<?xml version="1.0" encoding="utf-8"?>
<!-- Generator: Adobe Illustrator 25.4.1, SVG Export Plug-In . SVG Version: 6.00 Build 0)  -->
<svg version="1.1" id="Layer_1" xmlns="http://www.w3.org/2000/svg" xmlns:xlink="http://www.w3.org/1999/xlink" x="0px" y="0px"
	 viewBox="0 0 512 512" style="enable-background:new 0 0 512 512;" xml:space="preserve">
<style type="text/css">
	.st0{fill:#3E016D;stroke:#3E016D;stroke-width:11.0324;stroke-linecap:round;stroke-linejoin:round;stroke-miterlimit:10;}
	.st1{fill:url(#SVGID_1_);}
	.st2{fill:none;stroke:#3E016D;stroke-width:8.4456;stroke-linecap:round;stroke-linejoin:round;stroke-miterlimit:10;}
	.st3{fill:url(#SVGID_00000040544175521849739200000017454597929082834367_);}
</style>
<g>
	<g id="UEcE5g_00000100353706620970021310000012057533654204854939_">
		<g>
			<path class="st0" d="M224.5,454c-55.1,0-108.9,0-163.5,0c-0.2-3.6-0.5-6.9-0.5-10.2c0-49.5,0.1-99.1-0.1-148.6
				c-0.1-16.8,4.1-32.3,12.5-46.8c28.1-48.4,56.1-96.8,84.3-145.2c15.7-26.9,39.5-41.8,70.5-42.1c73.4-0.7,146.9-0.2,220.3-0.2
				c1.6,0,3.3,0.2,5.6,0.4c0,13,1.1,25.7-0.3,38.1c-1.8,16.6-12.7,27.2-26.9,35.1c-4.1,2.3-7,7.2-9.4,11.6
				c-2.1,3.8-2.6,8.4-3.8,12.7c-8.6,30.6-33.1,49.5-64.7,49.7c-33.8,0.2-67.6,0-103,0c2.7,11.1,5.1,21.5,7.8,32.8
				c19.2,0,38.3,0,57.4,0c18.8,0,37.6-0.3,56.4,0.1c34.8,0.6,63.8,29,65.6,63.8c0.9,18.6-14.3,34.4-34.1,34.5
				c-31.1,0.2-62.2-0.2-93.2,0.3c-4.7,0.1-10.5,2.5-14,5.7c-16.7,15.8-35.8,27.5-57.4,34.5c-8.3,2.7-10,6.7-9.8,14.5
				C224.9,414,224.5,433.5,224.5,454z"/>
		</g>
	</g>
	<linearGradient id="SVGID_1_" gradientUnits="userSpaceOnUse" x1="62.6675" y1="237.0326" x2="408.6675" y2="269.0326">
		<stop  offset="0" style="stop-color:#480E74"/>
		<stop  offset="1" style="stop-color:#AA0DF8"/>
	</linearGradient>
	<path class="st1" d="M444.3,70.8c0-1.8-0.1-3.7-0.1-5.6c-20.1,0-40.6,0-60.4-0.1c-21.3,0-43.4-0.1-65.1-0.1
		c-36.3,0-66,0.1-93.4,0.4c-28,0.3-49.7,13.3-64.5,38.6c-16.5,28.3-33.2,57-49.3,84.9c-11.5,19.8-23.3,40.2-35,60.3
		c-7.9,13.5-11.7,27.7-11.6,43.3c0.1,32.6,0.1,65.8,0.1,97.9c0,16.9,0,33.8,0,50.7c0,1.1,0,2.1,0.1,3.3h149.9c0-3.6,0-7.1,0-10.6
		c0.1-14.3,0.1-27.9-0.2-41.6c-0.2-8.5,1.4-17,14.7-21.3c20.2-6.5,38.6-17.6,54.8-33c4.7-4.5,12.2-7.6,18.7-7.7
		c14.6-0.2,29.2-0.3,41.5-0.3c4.6,0,9.2,0,13.7,0c4.6,0,9.2,0,13.7,0c9.8,0,17.3,0,24.4-0.1c7.9-0.1,15.1-3.1,20.2-8.6
		c4.8-5.1,7.3-11.7,6.9-18.5c-0.8-15.1-7.3-29.3-18.3-40c-11-10.8-25.4-16.8-40.5-17.1c-6.5-0.1-13.5-0.2-21.9-0.2
		c-5.6,0-11.4,0-16.9,0c-5.6,0-11.3,0-17,0h-0.3l-22.4,0l-17.4,0l-17.5,0c-3.2,0-6.1-2.2-6.8-5.4l-6.4-26.7l-1.5-6.1
		c-0.5-2.1,0-4.3,1.3-6c1.3-1.7,3.4-2.7,5.5-2.7c10.9,0,21.6,0,32.2,0c10.4,0,20.7,0,30.9,0c15.4,0,28,0,39.8-0.1
		c28.5-0.1,50.2-16.8,58-44.6c0.3-1.1,0.6-2.4,0.9-3.7c0.7-3.3,1.6-7,3.5-10.5c3.1-5.6,6.6-11.3,12.1-14.3
		c14.8-8.3,22-17.5,23.4-29.8C444.8,87.8,444.5,79.5,444.3,70.8z"/>
	<path class="st2" d="M444.3,70.8c0-1.8-0.1-3.7-0.1-5.6c-20.1,0-40.6,0-60.4-0.1c-21.3,0-43.4-0.1-65.1-0.1
		c-36.3,0-66,0.1-93.4,0.4c-28,0.3-49.7,13.3-64.5,38.6c-16.5,28.3-33.2,57-49.3,84.9c-11.5,19.8-23.3,40.2-35,60.3
		c-7.9,13.5-11.7,27.7-11.6,43.3c0.1,32.6,0.1,65.8,0.1,97.9c0,16.9,0,33.8,0,50.7c0,1.1,0,2.1,0.1,3.3h149.9c0-3.6,0-7.1,0-10.6
		c0.1-14.3,0.1-27.9-0.2-41.6c-0.2-8.5,1.4-17,14.7-21.3c20.2-6.5,38.6-17.6,54.8-33c4.7-4.5,12.2-7.6,18.7-7.7
		c14.6-0.2,29.2-0.3,41.5-0.3c4.6,0,9.2,0,13.7,0c4.6,0,9.2,0,13.7,0c9.8,0,17.3,0,24.4-0.1c7.9-0.1,15.1-3.1,20.2-8.6
		c4.8-5.1,7.3-11.7,6.9-18.5c-0.8-15.1-7.3-29.3-18.3-40c-11-10.8-25.4-16.8-40.5-17.1c-6.5-0.1-13.5-0.2-21.9-0.2
		c-5.6,0-11.4,0-16.9,0c-5.6,0-11.3,0-17,0h-0.3l-22.4,0l-17.4,0l-17.5,0c-3.2,0-6.1-2.2-6.8-5.4l-6.4-26.7l-1.5-6.1
		c-0.5-2.1,0-4.3,1.3-6c1.3-1.7,3.4-2.7,5.5-2.7c10.9,0,21.6,0,32.2,0c10.4,0,20.7,0,30.9,0c15.4,0,28,0,39.8-0.1
		c28.5-0.1,50.2-16.8,58-44.6c0.3-1.1,0.6-2.4,0.9-3.7c0.7-3.3,1.6-7,3.5-10.5c3.1-5.6,6.6-11.3,12.1-14.3
		c14.8-8.3,22-17.5,23.4-29.8C444.8,87.8,444.5,79.5,444.3,70.8z M418.1,108.3c-4.1,4-9.9,5.9-17.7,6c-10.8,0.1-22.7,0.1-37.2,0.1
		c-8.1,0-16.2,0-24.3,0c-8.1,0-16.2,0-24.2,0h-0.4c-4.8,0-9.8,0-14.5,0.1c-4.8,0-9.8,0.1-14.6,0.1c-8.7,0-15.7-0.1-22.2-0.3
		c-0.2,0-0.4,0-0.5,0c-2.9,0-3.8,0.4-5.2,3.6c-2.2,5.1-4.6,10.1-7.2,15.2h129.8c1.9,0,3.7,0.8,5.1,2.2c1.3,1.4,2,3.2,1.9,5.2
		c-1.1,23.9-16.9,39.5-40.3,39.6c-10.5,0.1-21.9,0.1-36,0.1c-7.6,0-15.2,0-22.8,0c-7.6,0-15.2,0-22.8,0c-5.9,0-11.8,0-17.7,0
		c-10.6,0-19.2,3.5-24.3,9.9c-5,6.3-6.5,15.3-4.1,25.5c2,8.8,4.4,18.1,7.3,28.4c3.9,14,12.5,20.5,26.9,20.6
		c10.4,0,21.8,0.1,35.8,0.1c7.4,0,14.8,0,22.2,0c7.4,0,14.8,0,22.3,0c10.9,0,19.9,0,28.2,0c12.2,0,22,3.5,29.3,10.2
		c7.2,6.7,11.6,16.4,12.8,28.8c0.2,2-0.4,3.9-1.8,5.4c-1.3,1.5-3.2,2.3-5.2,2.3h-91.1c-1,0-2,0-3,0.1c-1.1,0-2.3,0.1-3.4,0.1
		c-1.7,0-3.2-0.1-4.6-0.2c-1.2-0.1-2.3-0.2-3.4-0.2c-5.1,0-9.6,1.5-15.4,8.6c-18.4,22.5-43.7,36.6-75.2,41.8
		c-3.5,0.6-4.1,1.3-4.1,1.3c-0.1,0.1-0.6,1-0.4,4.8c0.4,11.9,0.3,23.5,0.2,35.9c0,5-0.1,10.1-0.1,15.2c0,3.9-3.1,7-7,7H90.8
		c-3.9,0-7-3.1-7-7v-8.4c0-10.7,0-21.5-0.1-32c-0.1-28.5-0.2-58,0.4-87c0.2-11.2,3.4-22.9,8.8-32.3c22.1-38.9,45.1-78.1,67.4-115.9
		c5.7-9.7,11.4-19.4,17.1-29.2c11.6-19.8,29.2-29.8,52.3-29.8l0.2,0C253.9,84,280,84,312.2,84c17.5,0,35,0,52.6,0
		c17.5,0,35,0,52.6,0c3.9,0,7,3.1,7,7C424.4,98.5,422.3,104.3,418.1,108.3z"/>
	
		<linearGradient id="SVGID_00000171697584389374858790000003757539255644220089_" gradientUnits="userSpaceOnUse" x1="435.8802" y1="59.9957" x2="45.8802" y2="458.9957">
		<stop  offset="0" style="stop-color:#F7E9A2"/>
		<stop  offset="0.324" style="stop-color:#F7BA00"/>
		<stop  offset="0.6269" style="stop-color:#F77300"/>
		<stop  offset="0.8356" style="stop-color:#F77300"/>
		<stop  offset="1" style="stop-color:#F75600"/>
	</linearGradient>
	<path style="fill:url(#SVGID_00000171697584389374858790000003757539255644220089_);" d="M444.3,70.8c0-1.8-0.1-3.7-0.1-5.6
		c-20.1,0-40.6,0-60.4-0.1c-21.3,0-43.4-0.1-65.1-0.1c-36.3,0-66,0.1-93.4,0.4c-28,0.3-49.7,13.3-64.5,38.6
		c-16.5,28.3-33.2,57-49.3,84.9c-11.5,19.8-23.3,40.2-35,60.3c-7.9,13.5-11.7,27.7-11.6,43.3c0.1,32.6,0.1,65.8,0.1,97.9
		c0,16.9,0,33.8,0,50.7c0,1.1,0,2.1,0.1,3.3h149.9c0-3.6,0-7.1,0-10.6c0.1-14.3,0.1-27.9-0.2-41.6c-0.2-8.5,1.4-17,14.7-21.3
		c20.2-6.5,38.6-17.6,54.8-33c4.7-4.5,12.2-7.6,18.7-7.7c14.6-0.2,29.2-0.3,41.5-0.3c4.6,0,9.2,0,13.7,0c4.6,0,9.2,0,13.7,0
		c9.8,0,17.3,0,24.4-0.1c7.9-0.1,15.1-3.1,20.2-8.6c4.8-5.1,7.3-11.7,6.9-18.5c-0.8-15.1-7.3-29.3-18.3-40
		c-11-10.8-25.4-16.8-40.5-17.1c-6.5-0.1-13.5-0.2-21.9-0.2c-5.6,0-11.4,0-16.9,0c-5.6,0-11.3,0-17,0h-0.3l-22.4,0l-17.4,0l-17.5,0
		c-3.2,0-6.1-2.2-6.8-5.4l-6.4-26.7l-1.5-6.1c-0.5-2.1,0-4.3,1.3-6c1.3-1.7,3.4-2.7,5.5-2.7c10.9,0,21.6,0,32.2,0
		c10.4,0,20.7,0,30.9,0c15.4,0,28,0,39.8-0.1c28.5-0.1,50.2-16.8,58-44.6c0.3-1.1,0.6-2.4,0.9-3.7c0.7-3.3,1.6-7,3.5-10.5
		c3.1-5.6,6.6-11.3,12.1-14.3c14.8-8.3,22-17.5,23.4-29.8C444.8,87.8,444.5,79.5,444.3,70.8z M418.1,108.3c-4.1,4-9.9,5.9-17.7,6
		c-10.8,0.1-22.7,0.1-37.2,0.1c-8.1,0-16.2,0-24.3,0c-8.1,0-16.2,0-24.2,0h-0.4c-4.8,0-9.8,0-14.5,0.1c-4.8,0-9.8,0.1-14.6,0.1
		c-8.7,0-15.7-0.1-22.2-0.3c-0.2,0-0.4,0-0.5,0c-2.9,0-3.8,0.4-5.2,3.6c-2.2,5.1-4.6,10.1-7.2,15.2h129.8c1.9,0,3.7,0.8,5.1,2.2
		c1.3,1.4,2,3.2,1.9,5.2c-1.1,23.9-16.9,39.5-40.3,39.6c-10.5,0.1-21.9,0.1-36,0.1c-7.6,0-15.2,0-22.8,0c-7.6,0-15.2,0-22.8,0
		c-5.9,0-11.8,0-17.7,0c-10.6,0-19.2,3.5-24.3,9.9c-5,6.3-6.5,15.3-4.1,25.5c2,8.8,4.4,18.1,7.3,28.4c3.9,14,12.5,20.5,26.9,20.6
		c10.4,0,21.8,0.1,35.8,0.1c7.4,0,14.8,0,22.2,0c7.4,0,14.8,0,22.3,0c10.9,0,19.9,0,28.2,0c12.2,0,22,3.5,29.3,10.2
		c7.2,6.7,11.6,16.4,12.8,28.8c0.2,2-0.4,3.9-1.8,5.4c-1.3,1.5-3.2,2.3-5.2,2.3h-91.1c-1,0-2,0-3,0.1c-1.1,0-2.3,0.1-3.4,0.1
		c-1.7,0-3.2-0.1-4.6-0.2c-1.2-0.1-2.3-0.2-3.4-0.2c-5.1,0-9.6,1.5-15.4,8.6c-18.4,22.5-43.7,36.6-75.2,41.8
		c-3.5,0.6-4.1,1.3-4.1,1.3c-0.1,0.1-0.6,1-0.4,4.8c0.4,11.9,0.3,23.5,0.2,35.9c0,5-0.1,10.1-0.1,15.2c0,3.9-3.1,7-7,7H90.8
		c-3.9,0-7-3.1-7-7v-8.4c0-10.7,0-21.5-0.1-32c-0.1-28.5-0.2-58,0.4-87c0.2-11.2,3.4-22.9,8.8-32.3c22.1-38.9,45.1-78.1,67.4-115.9
		c5.7-9.7,11.4-19.4,17.1-29.2c11.6-19.8,29.2-29.8,52.3-29.8l0.2,0C253.9,84,280,84,312.2,84c17.5,0,35,0,52.6,0
		c17.5,0,35,0,52.6,0c3.9,0,7,3.1,7,7C424.4,98.5,422.3,104.3,418.1,108.3z"/>
</g>
</svg>
