<?xml version="1.0" encoding="utf-8"?>
<!-- Generator: Adobe Illustrator 21.1.0, SVG Export Plug-In . SVG Version: 6.00 Build 0)  -->
<svg version="1.1" id="Capa_1" xmlns="http://www.w3.org/2000/svg" xmlns:xlink="http://www.w3.org/1999/xlink" x="0px" y="0px"
	 viewBox="0 0 512 512" style="enable-background:new 0 0 512 512;" xml:space="preserve">
<style type="text/css">
	.st0{fill:#3E016D;stroke:#3E016D;stroke-width:15;stroke-linecap:round;stroke-linejoin:round;stroke-miterlimit:10;}
	.st1{fill:#F77300;stroke:#3E016D;stroke-width:4;stroke-linecap:round;stroke-linejoin:round;stroke-miterlimit:10;}
</style>
<path class="st0" d="M474,203.7c-3.1-6.3-8.5-11.1-15.2-13.4c-0.7-0.2-1.4-0.4-2.1-0.6l-1.3-0.3l-4.7-52.3l17.5-12.6
	c2.3-1.6,3.6-4.4,3.3-7.2l-2.6-25.7c-0.4-4.3-4.3-7.5-8.6-7.1c-2.1,0.2-4,1.3-5.3,2.9s-1.9,3.7-1.7,5.8l2.1,21.2l-13.6,9.8
	l-15.3-6.9l-2.1-21.2c-0.4-4.3-4.3-7.6-8.6-7.1c-2.1,0.2-4,1.3-5.3,2.9s-1.9,3.7-1.7,5.8l2.6,25.7c0.3,2.8,2,5.2,4.6,6.4l19.4,8.7
	l4.7,52.5l-1.2,0.6c-6.4,3.2-11.1,8.5-13.4,15.2c-1.6,4.7-1.9,9.6-0.8,14.4l0.3,1.3l-28.6,17.4v-34.5c0-4.4-3.5-7.9-7.9-7.9h-27.6
	v-1.9c-0.5-54-41.5-98.4-95.2-103.3L264,92V76.3l1.4-0.4c15.2-4.2,25.8-18.1,25.8-33.8c0-19.3-15.7-35.1-35.1-35.1
	C236.7,7,221,22.7,221,42.1c0,15.7,10.6,29.6,25.8,33.8l1.4,0.4V92l-1.7,0.2c-53.7,4.9-94.6,49.3-95.2,103.3v1.9h-27.6
	c-4.4,0-7.9,3.5-7.9,7.9v34.6l-37.1,22.8l-1-0.8c-2.2-1.7-4.7-3-7.4-3.9c-2.8-1-5.7-1.4-8.6-1.4c-11.3,0-21.4,7.2-25.1,17.9
	c-2.3,6.7-1.9,13.9,1.3,20.2c3.1,6.4,8.5,11.1,15.2,13.4c0.7,0.2,1.4,0.5,2.1,0.6l1.3,0.3l4.7,52.3l-17.3,12.5
	c-2.3,1.6-3.5,4.4-3.3,7.2l2.6,25.7c0.4,4.1,3.8,7.1,7.9,7.1c0.3,0,0.5,0,0.8,0c2.1-0.2,4-1.2,5.3-2.9c1.3-1.6,2-3.7,1.8-5.8
	L56.7,384l13.6-9.8l15.2,6.9l2.1,21.2c0.4,4.1,3.8,7.1,7.9,7.1c0.3,0,0.5,0,0.8,0c2.1-0.2,4-1.2,5.3-2.9c1.3-1.6,2-3.7,1.7-5.8
	l-2.4-25.7c-0.3-2.8-2-5.3-4.6-6.4l-19.4-8.7l-4.7-52.5l1.2-0.6c6.3-3.1,11.1-8.5,13.4-15.2c1.6-4.6,1.9-9.6,0.8-14.4l-0.3-1.3
	l28.5-17.5v14.3c0,4.4,3.5,7.9,7.9,7.9h27.7V332h-8.7c-4.4,0-7.9,3.5-7.9,7.9v58.4l-1.3,0.4c-22.6,7.2-37.8,27.9-37.8,51.6
	c0,29.8,24.3,54.1,54.1,54.1h213c29.8,0,54.1-24.3,54.1-54.1c0-23.7-15.2-44.5-37.8-51.6l-1.3-0.4v-58.4c0-4.4-3.5-7.9-7.9-7.9h-8.7
	v-51.4h27.7c4.4,0,7.9-3.5,7.9-7.9v-14.3v-0.1l36.4-22.7l1,0.8c2.3,1.7,4.7,3,7.4,3.9c2.8,0.9,5.7,1.4,8.6,1.4
	c11.3,0,21.4-7.2,25.1-17.9C477.6,217.3,477.1,210.1,474,203.7z"/>
<g>
	<g>
		<path class="st1" d="M354.1,471.5c13.9,0,25.1-11.3,25.1-25.1c0-13.9-11.3-25.1-25.1-25.1c-13.9,0-25.1,11.3-25.1,25.1
			S340.3,471.5,354.1,471.5z M354.1,435.7c5.8,0,10.6,4.7,10.6,10.6c0,5.8-4.7,10.6-10.6,10.6c-5.8,0-10.6-4.7-10.6-10.6
			C343.5,440.5,348.3,435.7,354.1,435.7z"/>
		<path class="st1" d="M218.1,471.5c13.9,0,25.1-11.3,25.1-25.1c0-13.9-11.3-25.1-25.1-25.1c-13.9,0-25.1,11.3-25.1,25.1
			C192.9,460.2,204.2,471.5,218.1,471.5z M218.1,435.7c5.8,0,10.6,4.7,10.6,10.6c0,5.8-4.7,10.6-10.6,10.6
			c-5.8,0-10.6-4.7-10.6-10.6C207.5,440.5,212.2,435.7,218.1,435.7z"/>
		<path class="st1" d="M124.9,446.3c0,13.9,11.3,25.1,25.1,25.1c13.9,0,25.1-11.3,25.1-25.1c0-13.9-11.3-25.1-25.1-25.1
			C136.2,421.2,124.9,432.5,124.9,446.3z M150,435.7c5.8,0,10.6,4.7,10.6,10.6c0,5.8-4.7,10.6-10.6,10.6s-10.6-4.7-10.6-10.6
			C139.4,440.5,144.2,435.7,150,435.7z"/>
		<path class="st1" d="M314.2,257.6c-0.2-0.5-0.4-0.9-0.7-1.3c-0.3-0.4-0.6-0.8-0.9-1.1s-0.7-0.6-1.1-0.9s-0.8-0.5-1.3-0.7
			s-1-0.3-1.4-0.4c-0.5-0.1-0.9-0.1-1.4-0.1c-0.4,0-0.9,0-1.4,0.1c-0.4,0.1-0.8,0.2-1.3,0.4c-0.4,0.2-0.8,0.5-1.2,0.7
			c-0.4,0.3-0.8,0.6-1.1,0.9s-0.6,0.7-0.9,1.1c-0.2,0.3-0.4,0.7-0.6,1.2s-0.3,1-0.4,1.4c-0.1,0.5-0.1,0.9-0.1,1.4
			c0,0.4,0,0.9,0.1,1.4c0.1,0.4,0.2,0.8,0.4,1.3s0.4,0.9,0.7,1.3c0.3,0.4,0.6,0.8,0.9,1.1c0.3,0.3,0.7,0.6,1.1,0.9s0.8,0.5,1.2,0.7
			c0.5,0.2,0.9,0.3,1.4,0.4s0.9,0.1,1.4,0.1c0.4,0,0.9,0,1.4-0.1s1-0.2,1.4-0.4c0.5-0.2,0.9-0.4,1.3-0.7c0.4-0.3,0.8-0.6,1.1-0.9
			c1.3-1.3,2.1-3.2,2.1-5.1c0-0.4,0-0.9-0.1-1.4C314.7,258.5,314.5,258.1,314.2,257.6z"/>
		<path class="st1" d="M271.4,253.1h-74.9c-4,0-7.3,3.3-7.3,7.3s3.3,7.3,7.3,7.3h74.9c4,0,7.3-3.3,7.3-7.3S275.4,253.1,271.4,253.1z
			"/>
		<path class="st1" d="M286.1,471.5c13.9,0,25.1-11.3,25.1-25.1c0-13.9-11.3-25.1-25.1-25.1c-13.9,0-25.1,11.3-25.1,25.1
			C260.9,460.2,272.2,471.5,286.1,471.5z M286.1,435.7c5.8,0,10.6,4.7,10.6,10.6c0,5.8-4.7,10.6-10.6,10.6
			c-5.8,0-10.6-4.7-10.6-10.6C275.5,440.5,280.3,435.7,286.1,435.7z"/>
		<path class="st1" d="M170.1,371c0.2,0.5,0.4,0.9,0.7,1.3s0.6,0.8,0.9,1.1c1.3,1.3,3.2,2.1,5.1,2.1c2,0,3.8-0.7,5.2-2.1
			c0.3-0.3,0.6-0.7,0.9-1.1c0.3-0.4,0.5-0.9,0.7-1.3c0.2-0.5,0.3-0.9,0.4-1.4c0.1-0.5,0.1-0.9,0.1-1.4c0-0.4,0-0.9-0.1-1.4
			s-0.2-1-0.4-1.4c-0.2-0.5-0.4-0.9-0.7-1.3s-0.6-0.8-0.9-1.1c-1.3-1.3-3.2-2.1-5.1-2.1c-1.9,0-3.7,0.7-5.1,2.1
			c-0.3,0.3-0.6,0.7-0.9,1.1c-0.3,0.4-0.5,0.8-0.7,1.2c-0.2,0.5-0.3,0.9-0.4,1.4c-0.1,0.5-0.1,0.9-0.1,1.4c0,0.4,0,0.9,0.1,1.4
			C169.9,369.9,170,370.3,170.1,371z"/>
		<path class="st1" d="M310.8,181.5H193.3c-4,0-7.3,3.3-7.3,7.3v37.5c0,4,3.3,7.3,7.3,7.3h117.5c4,0,7.3-3.3,7.3-7.3v-37.5
			C318.1,184.7,314.8,181.5,310.8,181.5z M303.5,219H200.6v-23h102.9V219z"/>
		<path class="st1" d="M470,199.7c-3.1-6.3-8.5-11.1-15.2-13.4c-0.7-0.2-1.4-0.4-2.1-0.6l-1.3-0.3l-4.7-52.3l17.5-12.6
			c2.3-1.6,3.6-4.4,3.3-7.2l-2.6-25.7c-0.4-4.3-4.3-7.5-8.6-7.1c-2.1,0.2-4,1.3-5.3,2.9s-1.9,3.7-1.7,5.8l2.1,21.2l-13.6,9.8
			l-15.3-6.9l-2.1-21.2c-0.4-4.3-4.3-7.6-8.6-7.1c-2.1,0.2-4,1.3-5.3,2.9s-1.9,3.7-1.7,5.8l2.6,25.7c0.3,2.8,2,5.2,4.6,6.4l19.4,8.7
			l4.7,52.5l-1.2,0.6c-6.4,3.2-11.1,8.5-13.4,15.2c-1.6,4.7-1.9,9.6-0.8,14.4l0.3,1.3l-28.6,17.4v-34.5c0-4.4-3.5-7.9-7.9-7.9h-27.6
			v-1.9c-0.5-54-41.5-98.4-95.2-103.3L260,88V72.3l1.4-0.4c15.2-4.2,25.8-18.1,25.8-33.8c0-19.3-15.7-35.1-35.1-35.1
			C232.7,3,217,18.7,217,38.1c0,15.7,10.6,29.6,25.8,33.8l1.4,0.4V88l-1.7,0.2c-53.7,4.9-94.6,49.3-95.2,103.3v1.9h-27.6
			c-4.4,0-7.9,3.5-7.9,7.9v34.6l-37.1,22.8l-1-0.8c-2.2-1.7-4.7-3-7.4-3.9c-2.8-1-5.7-1.4-8.6-1.4c-11.3,0-21.4,7.2-25.1,17.9
			c-2.3,6.7-1.9,13.9,1.3,20.2c3.1,6.4,8.5,11.1,15.2,13.4c0.7,0.2,1.4,0.5,2.1,0.6l1.3,0.3l4.7,52.3l-17.3,12.5
			c-2.3,1.6-3.5,4.4-3.3,7.2l2.6,25.7c0.4,4.1,3.8,7.1,7.9,7.1c0.3,0,0.5,0,0.8,0c2.1-0.2,4-1.2,5.3-2.9c1.3-1.6,2-3.7,1.8-5.8
			L52.7,380l13.6-9.8l15.2,6.9l2.1,21.2c0.4,4.1,3.8,7.1,7.9,7.1c0.3,0,0.5,0,0.8,0c2.1-0.2,4-1.2,5.3-2.9c1.3-1.6,2-3.7,1.7-5.8
			L96.9,371c-0.3-2.8-2-5.3-4.6-6.4l-19.4-8.7l-4.7-52.5l1.2-0.6c6.3-3.1,11.1-8.5,13.4-15.2c1.6-4.6,1.9-9.6,0.8-14.4l-0.3-1.3
			l28.5-17.5v14.3c0,4.4,3.5,7.9,7.9,7.9h27.7V328h-8.7c-4.4,0-7.9,3.5-7.9,7.9v58.4l-1.3,0.4c-22.6,7.2-37.8,27.9-37.8,51.6
			c0,29.8,24.3,54.1,54.1,54.1h213c29.8,0,54.1-24.3,54.1-54.1c0-23.7-15.2-44.5-37.8-51.6l-1.3-0.4v-58.4c0-4.4-3.5-7.9-7.9-7.9
			h-8.7v-51.4h27.7c4.4,0,7.9-3.5,7.9-7.9v-14.3v-0.1l36.4-22.7l1,0.8c2.3,1.7,4.7,3,7.4,3.9c2.8,0.9,5.7,1.4,8.6,1.4
			c11.3,0,21.4-7.2,25.1-17.9C473.6,213.3,473.1,206.1,470,199.7z M67.7,282.4c-0.9,2.7-2.8,4.9-5.4,6.1s-5.5,1.4-8.2,0.5
			s-4.9-2.9-6.1-5.4c-1.3-2.6-1.4-5.5-0.5-8.2c1.5-4.3,5.6-7.2,10.1-7.2c1.2,0,2.3,0.2,3.5,0.6c2.7,0.9,4.9,2.9,6.1,5.4
			C68.4,276.8,68.6,279.7,67.7,282.4z M147.2,260.8h-19.7v-51.7h19.7V260.8z M232.8,38.1c0-10.6,8.6-19.3,19.3-19.3
			c10.6,0,19.3,8.6,19.3,19.3s-8.6,19.3-19.3,19.3C241.5,57.3,232.8,48.7,232.8,38.1z M163.1,192.5c0-49.1,39.9-89,89-89
			s89,39.9,89,89V328h-178V192.5z M396.9,446.3c0,21.1-17.2,38.3-38.3,38.3h-213c-21.1,0-38.3-17.2-38.3-38.3
			c0-21.1,17.2-38.3,38.3-38.3h213C379.7,408,396.9,425.2,396.9,446.3z M357.7,343.8v16.3H213.2c-4.4,0-7.9,3.5-7.9,7.9
			s3.5,7.9,7.9,7.9h144.6v16.3H146.4v-48.4L357.7,343.8z M376.6,260.8h-19.7v-51.7h19.7V260.8z M456.4,214.9
			c-1.5,4.3-5.5,7.2-10.1,7.2c-1.2,0-2.4-0.2-3.5-0.6c-2.7-0.9-4.8-2.8-6.1-5.4c-1.2-2.6-1.4-5.5-0.5-8.2s2.8-4.8,5.4-6.1
			c2.5-1.2,5.4-1.4,8.2-0.5C455.3,203.2,458.3,209.3,456.4,214.9z"/>
	</g>
</g>
</svg>
