<?xml version="1.0" encoding="utf-8"?>
<!-- Generator: Adobe Illustrator 21.1.0, SVG Export Plug-In . SVG Version: 6.00 Build 0)  -->
<svg version="1.1" id="Capa_1" xmlns="http://www.w3.org/2000/svg" xmlns:xlink="http://www.w3.org/1999/xlink" x="0px" y="0px"
	 viewBox="0 0 512 512" style="enable-background:new 0 0 512 512;" xml:space="preserve">
<style type="text/css">
	.st0{fill:#3E016D;stroke:#3E016D;stroke-width:9;stroke-linecap:round;stroke-linejoin:round;stroke-miterlimit:10;}
	.st1{fill:#F77300;stroke:#3E016D;stroke-width:4;stroke-linecap:round;stroke-linejoin:round;stroke-miterlimit:10;}
</style>
<g>
	<g>
		<path class="st0" d="M455.1,306.7c0.7-0.2,1.4-0.4,2.1-0.6c6.7-2.3,12.1-7.1,15.2-13.4c3.1-6.4,3.6-13.6,1.3-20.2
			c-3.7-10.7-13.8-17.9-25.1-17.9c-2.9,0-5.8,0.5-8.6,1.4c-2.7,0.9-5.1,2.2-7.4,3.9l-1,0.8l-37.1-22.8v-34.6c0-4.4-3.5-7.9-7.9-7.9
			H359v-1.9c-0.5-54-41.5-98.4-95.2-103.3L262,90V74.3l1.4-0.4c15.2-4.2,25.8-18.1,25.8-33.8c0-19.3-15.7-35.1-35.1-35.1
			S219,20.7,219,40.1c0,15.7,10.6,29.6,25.8,33.8l1.4,0.4V90l-1.7,0.2c-53.7,4.9-94.6,49.3-95.2,103.3v1.9h-27.6
			c-4.4,0-7.9,3.5-7.9,7.9v34.6l-37.1,22.8l-1-0.8c-2.2-1.7-4.7-3-7.4-3.9c-2.8-1-5.7-1.4-8.6-1.4c-11.3,0-21.4,7.2-25.1,17.9
			c-2.3,6.7-1.9,13.9,1.3,20.2c3.1,6.4,8.5,11.1,15.2,13.4c0.7,0.2,1.4,0.5,2.1,0.6l1.3,0.3l4.7,52.3l-17.3,12.5
			c-2.3,1.6-3.5,4.4-3.3,7.2l2.6,25.7c0.4,4.1,3.8,7.1,7.9,7.1c0.3,0,0.5,0,0.8,0c2.1-0.2,4-1.2,5.3-2.9c1.3-1.6,2-3.7,1.8-5.8
			L54.8,382l13.6-9.8l15.2,6.9l2.1,21.2c0.4,4.1,3.8,7.1,7.9,7.1c0.3,0,0.5,0,0.8,0c2.1-0.2,4-1.2,5.3-2.9c1.3-1.6,2-3.7,1.7-5.8
			L98.8,373c-0.3-2.8-2-5.3-4.6-6.4l-19.4-8.7l-4.7-52.5l1.2-0.6c6.3-3.1,11.1-8.5,13.4-15.2c1.6-4.6,1.9-9.6,0.8-14.4l-0.3-1.3
			l28.5-17.5v14.3c0,4.4,3.5,7.9,7.9,7.9h27.7V330h-8.7c-4.4,0-7.9,3.5-7.9,7.9v58.4l-1.3,0.4c-22.6,7.2-37.8,27.9-37.8,51.6
			c0,29.8,24.3,54.1,54.1,54.1h213c29.8,0,54.1-24.3,54.1-54.1c0-23.7-15.2-44.5-37.8-51.6l-1.3-0.4V338c0-4.4-3.5-7.9-7.9-7.9h-8.7
			v-51.4h27.7c4.4,0,7.9-3.5,7.9-7.9v-14.3l28.5,17.5l-0.3,1.3c-1.1,4.8-0.8,9.7,0.8,14.4c2.3,6.7,7,12,13.4,15.2l1.2,0.6l-4.7,52.5
			l-19.4,8.7c-2.6,1.2-4.3,3.6-4.6,6.4l-2.6,25.7c-0.2,2.1,0.4,4.2,1.7,5.8c1.3,1.6,3.2,2.7,5.3,2.9c4.3,0.5,8.2-2.8,8.6-7.1
			l2.1-21.2l15.3-6.9l13.6,9.8l-2.1,21.2c-0.2,2.1,0.4,4.2,1.7,5.8c1.3,1.6,3.2,2.7,5.3,2.9c4.3,0.4,8.2-2.8,8.6-7.1l2.6-25.7
			c0.3-2.8-1-5.6-3.3-7.2l-17.3-12.5l4.7-52.3L455.1,306.7z M126.9,448.4c0,13.9,11.3,25.1,25.1,25.1c13.9,0,25.1-11.3,25.1-25.1
			c0-13.9-11.3-25.1-25.1-25.1C138.2,423.2,126.9,434.5,126.9,448.4z M152.1,437.8c5.8,0,10.6,4.7,10.6,10.6
			c0,5.8-4.7,10.6-10.6,10.6s-10.6-4.7-10.6-10.6S146.2,437.8,152.1,437.8z M220.1,473.5c13.9,0,25.1-11.3,25.1-25.1
			c0-13.9-11.3-25.1-25.1-25.1c-13.9,0-25.1,11.3-25.1,25.1S206.3,473.5,220.1,473.5z M220.1,437.8c5.8,0,10.6,4.7,10.6,10.6
			c0,5.8-4.7,10.6-10.6,10.6c-5.8,0-10.6-4.7-10.6-10.6S214.3,437.8,220.1,437.8z M288.2,473.5c13.9,0,25.1-11.3,25.1-25.1
			c0-13.9-11.3-25.1-25.1-25.1c-13.9,0-25.1,11.3-25.1,25.1C263,462.2,274.3,473.5,288.2,473.5z M288.2,437.8
			c5.8,0,10.6,4.7,10.6,10.6c0,5.8-4.7,10.6-10.6,10.6c-5.8,0-10.6-4.7-10.6-10.6S282.3,437.8,288.2,437.8z M356.2,473.5
			c13.9,0,25.1-11.3,25.1-25.1c0-13.9-11.3-25.1-25.1-25.1c-13.9,0-25.1,11.3-25.1,25.1C331,462.2,342.3,473.5,356.2,473.5z
			 M356.2,437.8c5.8,0,10.6,4.7,10.6,10.6c0,5.8-4.7,10.6-10.6,10.6c-5.8,0-10.6-4.7-10.6-10.6S350.3,437.8,356.2,437.8z
			 M312.9,183.5H195.4c-4,0-7.3,3.3-7.3,7.3v37.5c0,4,3.3,7.3,7.3,7.3h117.5c4,0,7.3-3.3,7.3-7.3v-37.5
			C320.1,186.8,316.9,183.5,312.9,183.5z M305.6,221.1H202.7v-23h102.9V221.1z"/>
	</g>
	<path class="st1" d="M455,306.7c0.7-0.2,1.4-0.4,2.1-0.6c6.7-2.3,12.1-7.1,15.2-13.4c3.1-6.4,3.6-13.6,1.3-20.2
		c-3.7-10.7-13.8-17.9-25.1-17.9c-2.9,0-5.8,0.5-8.6,1.4c-2.7,0.9-5.1,2.2-7.4,3.9l-1,0.8l-37.1-22.8v-34.6c0-4.4-3.5-7.9-7.9-7.9
		h-27.6v-1.9c-0.5-54-41.5-98.4-95.2-103.3L262,90V74.3l1.4-0.4c15.2-4.2,25.8-18.1,25.8-33.8c0-19.3-15.7-35.1-35.1-35.1
		S219,20.7,219,40.1c0,15.7,10.6,29.6,25.8,33.8l1.4,0.4V90l-1.7,0.2c-53.7,4.9-94.6,49.3-95.2,103.3v1.9h-27.6
		c-4.4,0-7.9,3.5-7.9,7.9v34.6l-37.1,22.8l-1-0.8c-2.2-1.7-4.7-3-7.4-3.9c-2.8-1-5.7-1.4-8.6-1.4c-11.3,0-21.4,7.2-25.1,17.9
		c-2.3,6.7-1.9,13.9,1.3,20.2c3.1,6.4,8.5,11.1,15.2,13.4c0.7,0.2,1.4,0.5,2.1,0.6l1.3,0.3l4.7,52.3l-17.3,12.5
		c-2.3,1.6-3.5,4.4-3.3,7.2l2.6,25.7c0.4,4.1,3.8,7.1,7.9,7.1c0.3,0,0.5,0,0.8,0c2.1-0.2,4-1.2,5.3-2.9c1.3-1.6,2-3.7,1.8-5.8
		L54.7,382l13.6-9.8l15.2,6.9l2.1,21.2c0.4,4.1,3.8,7.1,7.9,7.1c0.3,0,0.5,0,0.8,0c2.1-0.2,4-1.2,5.3-2.9c1.3-1.6,2-3.7,1.7-5.8
		L98.9,373c-0.3-2.8-2-5.3-4.6-6.4l-19.4-8.7l-4.7-52.5l1.2-0.6c6.3-3.1,11.1-8.5,13.4-15.2c1.6-4.6,1.9-9.6,0.8-14.4l-0.3-1.3
		l28.5-17.5v14.3c0,4.4,3.5,7.9,7.9,7.9h27.7V330h-8.7c-4.4,0-7.9,3.5-7.9,7.9v58.4l-1.3,0.4c-22.6,7.2-37.8,27.9-37.8,51.6
		c0,29.8,24.3,54.1,54.1,54.1h213c29.8,0,54.1-24.3,54.1-54.1c0-23.7-15.2-44.5-37.8-51.6l-1.3-0.4v-58.4c0-4.4-3.5-7.9-7.9-7.9
		h-8.7v-51.4h27.7c4.4,0,7.9-3.5,7.9-7.9v-14.3l28.5,17.5l-0.3,1.3c-1.1,4.8-0.8,9.7,0.8,14.4c2.3,6.7,7,12,13.4,15.2l1.2,0.6
		l-4.7,52.5l-19.4,8.7c-2.6,1.2-4.3,3.6-4.6,6.4l-2.6,25.7c-0.2,2.1,0.4,4.2,1.7,5.8c1.3,1.6,3.2,2.7,5.3,2.9
		c4.3,0.5,8.2-2.8,8.6-7.1l2.1-21.2l15.3-6.9l13.6,9.8l-2.1,21.2c-0.2,2.1,0.4,4.2,1.7,5.8c1.3,1.6,3.2,2.7,5.3,2.9
		c4.3,0.4,8.2-2.8,8.6-7.1l2.6-25.7c0.3-2.8-1-5.6-3.3-7.2L449,359.3l4.7-52.3L455,306.7z M69.7,284.4c-0.9,2.7-2.8,4.9-5.4,6.1
		s-5.5,1.4-8.2,0.5s-4.9-2.9-6.1-5.4c-1.3-2.6-1.4-5.5-0.5-8.2c1.5-4.3,5.6-7.2,10.1-7.2c1.2,0,2.3,0.2,3.5,0.6
		c2.7,0.9,4.9,2.9,6.1,5.4C70.4,278.8,70.6,281.7,69.7,284.4z M234.8,40.1c0-10.6,8.6-19.3,19.3-19.3c10.6,0,19.3,8.6,19.3,19.3
		s-8.6,19.3-19.3,19.3C243.5,59.3,234.8,50.7,234.8,40.1z M165.1,194.5c0-49.1,39.9-89,89-89s89,39.9,89,89V330h-178V194.5z
		 M129.5,262.8v-51.7h19.7v51.7H129.5z M398.9,448.3c0,21.1-17.2,38.3-38.3,38.3h-213c-21.1,0-38.3-17.2-38.3-38.3
		c0-21.1,17.2-38.3,38.3-38.3h213C381.7,410,398.9,427.2,398.9,448.3z M359.7,345.8v16.3H215.2c-4.4,0-7.9,3.5-7.9,7.9
		s3.5,7.9,7.9,7.9h144.6v16.3H148.4v-48.4L359.7,345.8L359.7,345.8z M378.6,262.8h-19.7v-51.7h19.7V262.8z M443.9,290.6
		c-2.6-1.3-4.5-3.4-5.4-6.1s-0.7-5.6,0.5-8.2c1.3-2.6,3.4-4.5,6.1-5.4c1.1-0.4,2.3-0.6,3.5-0.6c4.6,0,8.6,2.9,10.1,7.2
		c1.9,5.6-1.1,11.7-6.6,13.6C449.3,292,446.4,291.8,443.9,290.6z M316.8,260.9c0.1,0.5,0.1,1,0.1,1.4c0,1.9-0.8,3.8-2.1,5.1
		c-0.3,0.3-0.7,0.6-1.1,0.9s-0.8,0.5-1.3,0.7c-0.4,0.2-0.9,0.3-1.4,0.4s-1,0.1-1.4,0.1c-0.5,0-0.9,0-1.4-0.1s-0.9-0.2-1.4-0.4
		c-0.4-0.2-0.8-0.4-1.2-0.7c-0.4-0.3-0.8-0.6-1.1-0.9c-0.3-0.3-0.6-0.7-0.9-1.1s-0.5-0.8-0.7-1.3s-0.3-0.9-0.4-1.3
		c-0.1-0.5-0.1-1-0.1-1.4c0-0.5,0-0.9,0.1-1.4c0.1-0.4,0.2-0.9,0.4-1.4c0.2-0.5,0.4-0.9,0.6-1.2c0.3-0.4,0.6-0.8,0.9-1.1
		c0.3-0.3,0.7-0.6,1.1-0.9c0.4-0.2,0.8-0.5,1.2-0.7c0.5-0.2,0.9-0.3,1.3-0.4c0.5-0.1,1-0.1,1.4-0.1c0.5,0,0.9,0,1.4,0.1
		c0.4,0.1,0.9,0.2,1.4,0.4s0.9,0.4,1.3,0.7s0.8,0.6,1.1,0.9c0.3,0.3,0.6,0.7,0.9,1.1s0.5,0.8,0.7,1.3
		C316.5,260.1,316.7,260.5,316.8,260.9z M280.7,262.4c0,4-3.3,7.3-7.3,7.3h-74.9c-4,0-7.3-3.3-7.3-7.3s3.3-7.3,7.3-7.3h74.9
		C277.4,255.1,280.7,258.4,280.7,262.4z M126.9,448.3c0,13.9,11.3,25.1,25.1,25.1c13.9,0,25.1-11.3,25.1-25.1
		c0-13.9-11.3-25.1-25.1-25.1C138.2,423.2,126.9,434.5,126.9,448.3z M152,437.7c5.8,0,10.6,4.7,10.6,10.6c0,5.8-4.7,10.6-10.6,10.6
		s-10.6-4.7-10.6-10.6C141.4,442.5,146.2,437.7,152,437.7z M220.1,473.5c13.9,0,25.1-11.3,25.1-25.1c0-13.9-11.3-25.1-25.1-25.1
		c-13.9,0-25.1,11.3-25.1,25.1C194.9,462.2,206.2,473.5,220.1,473.5z M220.1,437.7c5.8,0,10.6,4.7,10.6,10.6
		c0,5.8-4.7,10.6-10.6,10.6c-5.8,0-10.6-4.7-10.6-10.6C209.5,442.5,214.2,437.7,220.1,437.7z M288.1,473.5
		c13.9,0,25.1-11.3,25.1-25.1c0-13.9-11.3-25.1-25.1-25.1c-13.9,0-25.1,11.3-25.1,25.1C262.9,462.2,274.2,473.5,288.1,473.5z
		 M288.1,437.7c5.8,0,10.6,4.7,10.6,10.6c0,5.8-4.7,10.6-10.6,10.6c-5.8,0-10.6-4.7-10.6-10.6C277.5,442.5,282.3,437.7,288.1,437.7z
		 M356.1,473.5c13.9,0,25.1-11.3,25.1-25.1c0-13.9-11.3-25.1-25.1-25.1c-13.9,0-25.1,11.3-25.1,25.1S342.3,473.5,356.1,473.5z
		 M356.1,437.7c5.8,0,10.6,4.7,10.6,10.6c0,5.8-4.7,10.6-10.6,10.6c-5.8,0-10.6-4.7-10.6-10.6C345.5,442.5,350.3,437.7,356.1,437.7z
		 M312.8,183.5H195.3c-4,0-7.3,3.3-7.3,7.3v37.5c0,4,3.3,7.3,7.3,7.3h117.5c4,0,7.3-3.3,7.3-7.3v-37.5
		C320.1,186.7,316.8,183.5,312.8,183.5z M305.5,221H202.6v-23h102.9V221z M171.8,371.5c-0.1-0.5-0.1-1-0.1-1.4c0-0.5,0-0.9,0.1-1.4
		s0.2-0.9,0.4-1.4c0.2-0.4,0.4-0.8,0.7-1.2c0.3-0.4,0.6-0.8,0.9-1.1c1.4-1.4,3.2-2.1,5.1-2.1c1.9,0,3.8,0.8,5.1,2.1
		c0.3,0.3,0.6,0.7,0.9,1.1c0.3,0.4,0.5,0.8,0.7,1.3c0.2,0.4,0.3,0.9,0.4,1.4c0.1,0.5,0.1,1,0.1,1.4c0,0.5,0,0.9-0.1,1.4
		s-0.2,0.9-0.4,1.4c-0.2,0.4-0.4,0.9-0.7,1.3s-0.6,0.8-0.9,1.1c-1.4,1.4-3.2,2.1-5.2,2.1c-1.9,0-3.8-0.8-5.1-2.1
		c-0.3-0.3-0.6-0.7-0.9-1.1c-0.3-0.4-0.5-0.8-0.7-1.3C172,372.3,171.9,371.9,171.8,371.5z"/>
</g>
</svg>
