<?xml version="1.0" encoding="utf-8"?>
<!-- Generator: Adobe Illustrator 21.1.0, SVG Export Plug-In . SVG Version: 6.00 Build 0)  -->
<svg version="1.1" id="Layer_1" xmlns="http://www.w3.org/2000/svg" xmlns:xlink="http://www.w3.org/1999/xlink" x="0px" y="0px"
	 viewBox="0 0 512 512" style="enable-background:new 0 0 512 512;" xml:space="preserve">
<style type="text/css">
	.st0{fill:none;stroke:#3E016D;stroke-width:13.8327;stroke-miterlimit:10;}
	.st1{fill:#3E016D;}
	.st2{fill:#3E016D;stroke:#3E016D;stroke-width:14.8208;stroke-linecap:round;stroke-linejoin:round;stroke-miterlimit:10;}
	.st3{fill:#F77300;stroke:#3E016D;stroke-width:5.9283;stroke-linecap:round;stroke-linejoin:round;stroke-miterlimit:10;}
</style>
<g>
	<g>
		<g>
			<path class="st0" d="M422.2,125.1c-10.8-23-29.1-43.6-54.5-61c-20-13.6-44.3-25.5-72.2-35.2C248,12.5,206.7,8,205,7.9
				c-3.3-0.4-6.4,1-8.5,3.6C176.3,36.4,174,63,175.3,80.5L113.1,51c-3.6-1.7-7.8-1-10.7,1.7c-1.4,1.3-34.6,33.4-36,119.5
				C65.3,247,96.8,293.1,106,304.8v51.7c0,78.1,63.5,141.6,141.6,141.6s141.6-63.5,141.6-141.6V301C433.9,233,445,173.9,422.2,125.1
				z M370.1,298L370.1,298v58.3c0,67.5-54.9,122.4-122.4,122.4l0,0c-67.5,0-122.4-54.9-122.4-122.4v-168h23.5l0,0l0,0H165
				l-22.5,62.4c-1,2.8-0.7,5.7,0.8,8.2c1.5,2.5,4.1,4.1,6.9,4.5l32,4.1l-38.9,116.1c-1.5,4.3,0.4,9.2,4.4,11.5
				c1.5,0.8,3.1,1.2,4.6,1.2c2.8,0,5.5-1.2,7.4-3.5l54.2-66.1v55.3c0,5.3,4.2,9.6,9.6,9.6H262c5.3,0,9.6-4.2,9.6-9.6
				c0-5.3-4.2-9.6-9.6-9.6h-28.9v-69.2l54.2-66.1c2.2-2.7,2.8-6.2,1.6-9.5c-1.2-3.2-4.1-5.5-7.4-6l-31.5-5l15.9-28.5h104.2
				L370.1,298L370.1,298z M226.4,228.3c1.4,2.8,4.1,4.7,7.1,5.2l28.6,4.5l-84.2,102.5l26.1-77.8c0.9-2.7,0.6-5.7-1-8.1
				c-1.5-2.5-4.1-4.1-6.9-4.4l-31.7-4.1l20.8-57.8h58.7l-17.4,31.1C225.1,222.2,225,225.5,226.4,228.3z M389.3,263.7v-85
				c0-5.3-4.2-9.6-9.6-9.6H260.3h-81.7h-26.8c-13.2-9.9-17.1-23.4-18-33.1c-0.5-5.2-5.1-9.2-10.4-8.7s-9.2,5.1-8.7,10.4
				c1.1,11.7,4.8,22.3,11,31.4h-10.1c-5.3,0-9.6,4.2-9.6,9.6v89.3c-10.2-20.7-21-53.2-20.4-95.7c1-59.4,18.1-89.9,26-101l72.3,34.4
				c3.5,1.7,7.6,1.1,10.5-1.5s4-6.6,2.8-10.2c-0.5-1.5-11.3-34.8,11.1-66.4c28.2,4,159.7,26.6,196.6,105.6
				C421.8,169.3,416.5,213.1,389.3,263.7z"/>
		</g>
	</g>
</g>
<g>
	<path class="st1" d="M420.4,131c-10.5-22.3-28.2-42.2-52.8-59c-19.1-13.1-42.4-24.4-69.3-33.7c-45.2-15.5-84.6-19.9-86.3-20.1
		c-4.1-0.5-8.2,1.2-10.9,4.4c-17.7,21.9-21.4,45.1-20.9,62.2l-54-25.7c-4.5-2.2-9.9-1.3-13.5,2.2c-1.4,1.3-33.8,32.5-35.1,115.3
		c-1.1,70,27.5,113.7,37.4,126.8v47.8c0,75.7,61.6,137.2,137.2,137.2s137.1-61.7,137.1-137.3v-51.7C431.9,234.8,442.3,178,420.4,131
		z"/>
	<g>
		<g>
			<g>
				<g>
					<path class="st2" d="M428.1,131c-10.8-23-29.1-43.6-54.5-61c-20-13.6-44.3-25.5-72.2-35.2c-47.4-16.4-88.7-20.9-90.4-21
						c-3.3-0.4-6.4,1-8.5,3.6c-20.2,24.9-22.5,51.6-21.1,69.1L119,56.9c-3.6-1.7-7.8-1-10.7,1.7C107,59.9,73.8,92,72.4,178
						c-1.2,74.9,30.3,120.9,39.5,132.7v51.7c0,78.1,63.5,141.6,141.6,141.6s141.6-63.5,141.6-141.6v-55.5
						C439.8,238.9,450.9,179.8,428.1,131z M376,303.9L376,303.9v58.3c0,67.5-54.9,122.4-122.4,122.4l0,0
						c-67.5,0-122.4-54.9-122.4-122.4v-168h23.5l0,0l0,0h16.2l-22.5,62.4c-1,2.8-0.7,5.7,0.8,8.2c1.5,2.5,4.1,4.1,6.9,4.5l32,4.1
						l-38.9,116.1c-1.5,4.3,0.4,9.2,4.4,11.5c1.5,0.8,3.1,1.2,4.6,1.2c2.8,0,5.5-1.2,7.4-3.5l54.2-66.1v55.3c0,5.3,4.2,9.6,9.6,9.6
						h38.4c5.3,0,9.6-4.2,9.6-9.6c0-5.3-4.2-9.6-9.6-9.6h-28.9v-69.2l54.2-66.1c2.2-2.7,2.8-6.2,1.6-9.5c-1.2-3.2-4.1-5.5-7.4-6
						l-31.5-5l15.9-28.5h104.2L376,303.9L376,303.9z M232.3,234.3c1.4,2.8,4.1,4.7,7.1,5.2L268,244l-84.2,102.5l26.1-77.8
						c0.9-2.7,0.6-5.7-1-8.1c-1.5-2.5-4.1-4.1-6.9-4.4l-31.7-4.1l20.8-57.8h58.7l-17.4,31.1C231.1,228.1,231,231.4,232.3,234.3z
						 M395.2,269.6v-85c0-5.3-4.2-9.6-9.6-9.6H266.2h-81.7h-26.8c-13.2-9.9-17.1-23.4-18-33.1c-0.5-5.2-5.1-9.2-10.4-8.7
						c-5.2,0.5-9.2,5.1-8.7,10.4c1.1,11.7,4.8,22.3,11,31.4h-10.1c-5.3,0-9.6,4.2-9.6,9.6V274c-10.2-20.7-21-53.2-20.4-95.7
						c1-59.4,18.1-89.9,26-101l72.3,34.4c3.5,1.7,7.6,1.1,10.5-1.5c2.9-2.6,4-6.6,2.8-10.2c-0.5-1.5-11.3-34.8,11.1-66.4
						c28.2,4,159.7,26.6,196.6,105.6C427.7,175.3,422.5,219,395.2,269.6z"/>
				</g>
			</g>
		</g>
		<g>
			<g>
				<g>
					<path class="st2" d="M312.4,299c-7.1,0-12.8,5.8-12.8,12.8c0,7.1,5.8,12.8,12.8,12.8c7.1,0,12.8-5.8,12.8-12.8
						C325.2,304.8,319.5,299,312.4,299z"/>
				</g>
			</g>
		</g>
		<g>
			<g>
				<g>
					<path class="st2" d="M359.2,116.9l-0.2-0.2l0,0c-4.1-3.3-10.2-2.6-13.4,1.6c-3.3,4.1-2.6,10.2,1.6,13.4l0.3,0.2
						c1.8,1.4,3.9,2.1,5.9,2.1c2.9,0,5.6-1.3,7.5-3.7C364.1,126.2,363.4,120.1,359.2,116.9z"/>
				</g>
			</g>
		</g>
		<g>
			<g>
				<g>
					<path class="st2" d="M334.7,100.5c-18.2-10.3-37.2-17.9-53.6-24c-4.9-1.9-10.5,0.7-12.4,5.6s0.7,10.5,5.6,12.4
						c15.6,5.8,33.8,13,50.8,22.6c1.5,0.9,3.2,1.3,4.7,1.3c3.4,0,6.5-1.8,8.3-4.8C340.9,109,339.4,103.1,334.7,100.5z"/>
				</g>
			</g>
		</g>
		<g>
			<g>
				<g>
					<path class="st2" d="M135.8,105.9c-5-1.5-10.4,1.4-11.9,6.5l-0.2,0.5c-1.5,5,1.5,10.4,6.5,11.9c0.9,0.3,1.8,0.4,2.7,0.4
						c4.1,0,8-2.8,9.2-6.9l0.1-0.4C143.8,112.6,140.9,107.4,135.8,105.9z"/>
				</g>
			</g>
		</g>
		<g>
			<g>
				<g>
					<path class="st2" d="M278.1,423.5H229c-5.3,0-9.6,4.2-9.6,9.6c0,5.3,4.2,9.6,9.6,9.6h49.1c5.3,0,9.6-4.2,9.6-9.6
						S283.4,423.5,278.1,423.5z"/>
				</g>
			</g>
		</g>
	</g>
	<g>
		<g>
			<g>
				<g>
					<path class="st3" d="M422.2,125.1c-10.8-23-29.1-43.6-54.5-61c-20-13.6-44.3-25.5-72.2-35.2C248,12.5,206.7,8,205,7.9
						c-3.3-0.4-6.4,1-8.5,3.6C176.3,36.4,174,63,175.3,80.5L113.1,51c-3.6-1.7-7.8-1-10.7,1.7c-1.4,1.3-34.6,33.4-36,119.5
						C65.3,247,96.8,293.1,106,304.8v51.7c0,78.1,63.5,141.6,141.6,141.6s141.6-63.5,141.6-141.6V301
						C433.9,233,445,173.9,422.2,125.1z M370.1,298L370.1,298v58.3c0,67.5-54.9,122.4-122.4,122.4l0,0
						c-67.5,0-122.4-54.9-122.4-122.4v-168h23.5l0,0l0,0H165l-22.5,62.4c-1,2.8-0.7,5.7,0.8,8.2c1.5,2.5,4.1,4.1,6.9,4.5l32,4.1
						l-38.9,116.1c-1.5,4.3,0.4,9.2,4.4,11.5c1.5,0.8,3.1,1.2,4.6,1.2c2.8,0,5.5-1.2,7.4-3.5l54.2-66.1v55.3c0,5.3,4.2,9.6,9.6,9.6
						H262c5.3,0,9.6-4.2,9.6-9.6c0-5.3-4.2-9.6-9.6-9.6h-28.9v-69.2l54.2-66.1c2.2-2.7,2.8-6.2,1.6-9.5c-1.2-3.2-4.1-5.5-7.4-6
						l-31.5-5l15.9-28.5h104.2L370.1,298L370.1,298z M226.4,228.3c1.4,2.8,4.1,4.7,7.1,5.2l28.6,4.5l-84.2,102.5l26.1-77.8
						c0.9-2.7,0.6-5.7-1-8.1c-1.5-2.5-4.1-4.1-6.9-4.4l-31.7-4.1l20.8-57.8h58.7l-17.4,31.1C225.1,222.2,225,225.5,226.4,228.3z
						 M389.3,263.7v-85c0-5.3-4.2-9.6-9.6-9.6H260.3h-81.7h-26.8c-13.2-9.9-17.1-23.4-18-33.1c-0.5-5.2-5.1-9.2-10.4-8.7
						s-9.2,5.1-8.7,10.4c1.1,11.7,4.8,22.3,11,31.4h-10.1c-5.3,0-9.6,4.2-9.6,9.6v89.3c-10.2-20.7-21-53.2-20.4-95.7
						c1-59.4,18.1-89.9,26-101l72.3,34.4c3.5,1.7,7.6,1.1,10.5-1.5s4-6.6,2.8-10.2c-0.5-1.5-11.3-34.8,11.1-66.4
						c28.2,4,159.7,26.6,196.6,105.6C421.8,169.3,416.5,213.1,389.3,263.7z"/>
				</g>
			</g>
		</g>
		<g>
			<g>
				<g>
					<path class="st3" d="M306.5,293.1c-7.1,0-12.8,5.8-12.8,12.8c0,7.1,5.8,12.8,12.8,12.8c7.1,0,12.8-5.8,12.8-12.8
						C319.3,298.9,313.6,293.1,306.5,293.1z"/>
				</g>
			</g>
		</g>
		<g>
			<g>
				<g>
					<path class="st3" d="M353.3,111l-0.2-0.2l0,0c-4.1-3.3-10.2-2.6-13.4,1.6c-3.3,4.1-2.6,10.2,1.6,13.4l0.3,0.2
						c1.8,1.4,3.9,2.1,5.9,2.1c2.9,0,5.6-1.3,7.5-3.7C358.1,120.2,357.4,114.2,353.3,111z"/>
				</g>
			</g>
		</g>
		<g>
			<g>
				<g>
					<path class="st3" d="M328.8,94.6c-18.2-10.3-37.2-17.9-53.6-24c-4.9-1.9-10.5,0.7-12.4,5.6c-1.9,4.9,0.7,10.5,5.6,12.4
						c15.6,5.8,33.8,13,50.8,22.6c1.5,0.9,3.2,1.3,4.7,1.3c3.4,0,6.5-1.8,8.3-4.8C335,103,333.4,97.2,328.8,94.6z"/>
				</g>
			</g>
		</g>
		<g>
			<g>
				<g>
					<path class="st3" d="M129.9,100c-5-1.5-10.4,1.4-11.9,6.5l-0.2,0.5c-1.5,5,1.5,10.4,6.5,11.9c0.9,0.3,1.8,0.4,2.7,0.4
						c4.1,0,8-2.8,9.2-6.9l0.1-0.4C137.9,106.7,134.9,101.5,129.9,100z"/>
				</g>
			</g>
		</g>
		<g>
			<g>
				<g>
					<path class="st3" d="M272.2,417.5h-49.1c-5.3,0-9.6,4.2-9.6,9.6c0,5.3,4.2,9.6,9.6,9.6h49.1c5.3,0,9.6-4.2,9.6-9.6
						S277.5,417.5,272.2,417.5z"/>
				</g>
			</g>
		</g>
	</g>
</g>
</svg>
