<?xml version="1.0" encoding="utf-8"?>
<!-- Generator: Adobe Illustrator 21.1.0, SVG Export Plug-In . SVG Version: 6.00 Build 0)  -->
<svg version="1.1" id="Layer_1" xmlns="http://www.w3.org/2000/svg" xmlns:xlink="http://www.w3.org/1999/xlink" x="0px" y="0px"
	 viewBox="0 0 512 512" style="enable-background:new 0 0 512 512;" xml:space="preserve">
<style type="text/css">
	.st0{fill:none;stroke:#3E016D;stroke-width:14;stroke-miterlimit:10;}
	.st1{fill:#3E016D;}
	.st2{fill:#F77300;stroke:#3E016D;stroke-width:6;stroke-linecap:round;stroke-linejoin:round;stroke-miterlimit:10;}
</style>
<g>
	<g>
		<g>
			<path class="st0" d="M424.2,126.5c-10.9-23.3-29.5-44.1-55.2-61.7C348.8,51,324.2,39,295.9,29.2c-48-16.6-89.8-21.2-91.5-21.3
				c-3.3-0.4-6.5,1-8.6,3.6c-20.4,25.2-22.8,52.2-21.4,69.9l-63-29.9c-3.6-1.7-7.9-1-10.8,1.7c-1.4,1.3-35,33.8-36.4,120.9
				c-1.2,75.8,30.7,122.4,40,134.3v52.3c0,79,64.3,143.3,143.3,143.3s143.3-64.3,143.3-143.3v-56.2
				C436.1,235.7,447.3,175.9,424.2,126.5z M371.5,301.5L371.5,301.5v59c0,68.3-55.6,123.9-123.9,123.9l0,0
				c-68.3,0-123.9-55.6-123.9-123.9v-170h23.8l0,0l0,0h16.4l-22.8,63.2c-1,2.8-0.7,5.8,0.8,8.3s4.1,4.2,7,4.6l32.4,4.2l-39.4,117.5
				c-1.5,4.4,0.4,9.3,4.5,11.6c1.5,0.8,3.1,1.2,4.7,1.2c2.8,0,5.6-1.2,7.5-3.5l54.9-66.9v56c0,5.4,4.3,9.7,9.7,9.7h38.9
				c5.4,0,9.7-4.3,9.7-9.7c0-5.4-4.3-9.7-9.7-9.7h-29.2v-70l54.9-66.9c2.2-2.7,2.8-6.3,1.6-9.6c-1.2-3.2-4.1-5.6-7.5-6.1l-31.9-5.1
				l16.1-28.8h105.5L371.5,301.5L371.5,301.5z M226.1,231c1.4,2.8,4.1,4.8,7.2,5.3l28.9,4.6L177,344.6l26.4-78.7
				c0.9-2.7,0.6-5.8-1-8.2c-1.5-2.5-4.1-4.1-7-4.5l-32.1-4.2l21.1-58.5h59.4L226.2,222C224.8,224.8,224.7,228.1,226.1,231z
				 M390.9,266.8v-86c0-5.4-4.3-9.7-9.7-9.7H260.4h-82.7h-27.1c-13.4-10-17.3-23.7-18.2-33.5c-0.5-5.3-5.2-9.3-10.5-8.8
				s-9.3,5.2-8.8,10.5c1.1,11.8,4.9,22.6,11.1,31.8H114c-5.4,0-9.7,4.3-9.7,9.7v90.4c-10.3-21-21.3-53.8-20.6-96.9
				c1-60.1,18.3-91,26.3-102.2l73.2,34.8c3.5,1.7,7.7,1.1,10.6-1.5c2.9-2.6,4-6.7,2.8-10.3c-0.5-1.5-11.4-35.2,11.2-67.2
				c28.5,4,161.6,26.9,199,106.9C423.8,171.3,418.5,215.6,390.9,266.8z"/>
		</g>
	</g>
</g>
<g>
	<path class="st1" d="M420.4,132.5c-10.6-22.6-28.5-42.7-53.4-59.7c-19.3-13.3-42.9-24.7-70.1-34.1c-45.7-15.7-85.6-20.1-87.3-20.3
		c-4.2-0.5-8.3,1.2-11,4.5c-17.9,22.2-21.7,45.6-21.2,63l-54.7-26c-4.6-2.2-10-1.3-13.7,2.2c-1.4,1.3-34.2,32.9-35.5,116.7
		c-1.1,70.8,27.8,115.1,37.9,128.3v48.4c0,76.6,62.3,138.9,138.9,138.9S389.1,432,389.1,355.4v-52.3
		C432.1,237.5,442.6,180.1,420.4,132.5z"/>
	<g>
		<g>
			<g>
				<g>
					<path class="st2" d="M424.2,126.5c-10.9-23.3-29.5-44.1-55.2-61.7C348.8,51,324.2,39,295.9,29.2c-48-16.6-89.8-21.2-91.5-21.3
						c-3.3-0.4-6.5,1-8.6,3.6c-20.4,25.2-22.8,52.2-21.4,69.9l-63-29.9c-3.6-1.7-7.9-1-10.8,1.7c-1.4,1.3-35,33.8-36.4,120.9
						c-1.2,75.8,30.7,122.4,40,134.3v52.3c0,79,64.3,143.3,143.3,143.3s143.3-64.3,143.3-143.3v-56.2
						C436.1,235.7,447.3,175.9,424.2,126.5z M371.5,301.5L371.5,301.5v59c0,68.3-55.6,123.9-123.9,123.9l0,0
						c-68.3,0-123.9-55.6-123.9-123.9v-170h23.8l0,0l0,0h16.4l-22.8,63.2c-1,2.8-0.7,5.8,0.8,8.3s4.1,4.2,7,4.6l32.4,4.2
						l-39.4,117.5c-1.5,4.4,0.4,9.3,4.5,11.6c1.5,0.8,3.1,1.2,4.7,1.2c2.8,0,5.6-1.2,7.5-3.5l54.9-66.9v56c0,5.4,4.3,9.7,9.7,9.7
						h38.9c5.4,0,9.7-4.3,9.7-9.7c0-5.4-4.3-9.7-9.7-9.7h-29.2v-70l54.9-66.9c2.2-2.7,2.8-6.3,1.6-9.6c-1.2-3.2-4.1-5.6-7.5-6.1
						l-31.9-5.1l16.1-28.8h105.5L371.5,301.5L371.5,301.5z M226.1,231c1.4,2.8,4.1,4.8,7.2,5.3l28.9,4.6L177,344.6l26.4-78.7
						c0.9-2.7,0.6-5.8-1-8.2c-1.5-2.5-4.1-4.1-7-4.5l-32.1-4.2l21.1-58.5h59.4L226.2,222C224.8,224.8,224.7,228.1,226.1,231z
						 M390.9,266.8v-86c0-5.4-4.3-9.7-9.7-9.7H260.4h-82.7h-27.1c-13.4-10-17.3-23.7-18.2-33.5c-0.5-5.3-5.2-9.3-10.5-8.8
						s-9.3,5.2-8.8,10.5c1.1,11.8,4.9,22.6,11.1,31.8H114c-5.4,0-9.7,4.3-9.7,9.7v90.4c-10.3-21-21.3-53.8-20.6-96.9
						c1-60.1,18.3-91,26.3-102.2l73.2,34.8c3.5,1.7,7.7,1.1,10.6-1.5c2.9-2.6,4-6.7,2.8-10.3c-0.5-1.5-11.4-35.2,11.2-67.2
						c28.5,4,161.6,26.9,199,106.9C423.8,171.3,418.5,215.6,390.9,266.8z"/>
				</g>
			</g>
		</g>
		<g>
			<g>
				<g>
					<path class="st2" d="M307.1,296.5c-7.2,0-13,5.9-13,13c0,7.2,5.9,13,13,13c7.2,0,13-5.9,13-13
						C320.1,302.4,314.3,296.5,307.1,296.5z"/>
				</g>
			</g>
		</g>
		<g>
			<g>
				<g>
					<path class="st2" d="M354.5,112.2l-0.2-0.2l0,0c-4.2-3.3-10.3-2.6-13.6,1.6c-3.3,4.2-2.6,10.3,1.6,13.6l0.3,0.2
						c1.8,1.4,3.9,2.1,6,2.1c2.9,0,5.7-1.3,7.6-3.7C359.4,121.6,358.7,115.5,354.5,112.2z"/>
				</g>
			</g>
		</g>
		<g>
			<g>
				<g>
					<path class="st2" d="M329.7,95.6c-18.4-10.4-37.7-18.1-54.2-24.3c-5-1.9-10.6,0.7-12.5,5.7s0.7,10.6,5.7,12.5
						c15.8,5.9,34.2,13.2,51.4,22.9c1.5,0.9,3.2,1.3,4.8,1.3c3.4,0,6.6-1.8,8.4-4.9C336,104.2,334.4,98.3,329.7,95.6z"/>
				</g>
			</g>
		</g>
		<g>
			<g>
				<g>
					<path class="st2" d="M128.4,101.1c-5.1-1.5-10.5,1.4-12,6.6l-0.2,0.5c-1.5,5.1,1.5,10.5,6.6,12c0.9,0.3,1.8,0.4,2.7,0.4
						c4.2,0,8.1-2.8,9.3-7l0.1-0.4C136.5,107.9,133.5,102.6,128.4,101.1z"/>
				</g>
			</g>
		</g>
		<g>
			<g>
				<g>
					<path class="st2" d="M272.4,422.5h-49.7c-5.4,0-9.7,4.3-9.7,9.7c0,5.4,4.3,9.7,9.7,9.7h49.7c5.4,0,9.7-4.3,9.7-9.7
						C282.1,426.8,277.8,422.5,272.4,422.5z"/>
				</g>
			</g>
		</g>
	</g>
</g>
</svg>
