<?xml version="1.0" encoding="utf-8"?>
<!-- Generator: Adobe Illustrator 21.1.0, SVG Export Plug-In . SVG Version: 6.00 Build 0)  -->
<svg version="1.1" id="Capa_1" xmlns="http://www.w3.org/2000/svg" xmlns:xlink="http://www.w3.org/1999/xlink" x="0px" y="0px"
	 viewBox="0 0 512 512" style="enable-background:new 0 0 512 512;" xml:space="preserve">
<style type="text/css">
	.st0{fill:#3E016D;stroke:#3E016D;stroke-width:9;stroke-linecap:round;stroke-linejoin:round;stroke-miterlimit:10;}
	.st1{fill:#F77300;stroke:#3E016D;stroke-width:7;stroke-linecap:round;stroke-linejoin:round;stroke-miterlimit:10;}
</style>
<g>
	<g>
		<path class="st0" d="M493.5,143L493.5,143c-3.3-3.3-8.1-4.4-12.5-3.1l-151.9,45.4l45.3-152c1.3-4.4,0.1-9.2-3.1-12.5
			c-3.3-3.3-8-4.5-12.4-3.3L318,29.1c-3.6,1.1-6.5,3.6-8.1,6.9L229,215l-79.6,23.7c-20.4-23-52.3-32-81.8-23.2
			C25.9,228.1,2,272.3,14.5,314.1c9.9,33.2,41.1,56.5,75.9,56.5c7.6,0,15.3-1.2,22.6-3.3c28.2-8.5,49-31.1,54.9-59.8l35.3,3.5
			l3.5,35.3c-28.6,5.9-51.3,26.7-59.8,54.9c-12.5,41.8,11.4,86,53.2,98.5c7.4,2.2,15,3.4,22.7,3.4c16.7,0,33.3-5.5,46.9-15.4
			c14-10.3,24-24.5,29-41.1c8.8-29.6-0.3-61.4-23.2-81.8l23.7-79.6l179-80.8c3.4-1.5,6-4.5,6.9-8.1l11.6-40.9
			C498,150.9,496.7,146.2,493.5,143z"/>
	</g>
	<g>
		<g>
			<g>
				<g>
					<path class="st1" d="M112.4,268.6c-6.1-6.1-14.4-9.6-23.2-9.6s-17,3.4-23.2,9.6c-6.1,6.1-9.6,14.4-9.6,23.2
						c0,8.7,3.4,17,9.6,23.2c6.1,6.1,14.4,9.6,23.2,9.6s17-3.4,23.2-9.6c6.1-6.1,9.6-14.4,9.6-23.2C122,283,118.7,274.8,112.4,268.6
						z M99.3,301.7c-2.7,2.7-6.1,4.1-9.9,4.1s-7.3-1.4-9.9-4.1c-2.7-2.7-4.1-6.1-4.1-9.9c0-3.7,1.4-7.3,4.1-9.9
						c2.7-2.7,6.1-4.1,9.9-4.1s7.3,1.4,9.9,4.1c2.7,2.7,4.1,6.1,4.1,9.9C103.3,295.5,101.9,299.1,99.3,301.7z"/>
				</g>
			</g>
		</g>
		<g>
			<g>
				<g>
					<path class="st1" d="M489.6,143.8c-2.4-2.4-6-3.3-9.2-2.3l-157.7,47.1l47.1-157.7c1-3.3,0.1-6.8-2.3-9.2s-6-3.4-9.2-2.4
						l-40.9,11.6c-2.7,0.8-4.8,2.6-6,5.2L230,216.3l-83,24.8c-19.3-23-50.5-32.6-79.8-23.8C27,229.2,4,271.6,16.1,311.7
						c9.8,32.9,40.1,54.2,72.8,54.2c7.2,0,14.4-1.1,21.7-3.2c28.1-8.4,48.4-31.9,53.1-60.2l40.9,4l4,40.9
						c-28.2,4.7-51.8,25.2-60.2,53.1c-12,40.1,11,82.5,51,94.5c7.1,2.1,14.4,3.2,21.7,3.2c16,0,32-5.3,45-14.8
						c13.5-9.8,23.1-23.4,27.8-39.5c8.7-29.2-0.9-60.4-23.8-79.8l24.8-83l180.4-81.4c2.5-1.2,4.4-3.4,5.2-6l11.6-40.9
						C493,149.7,492.1,146.2,489.6,143.8z M202.9,276.1c-0.7,1.5-1,3.2-0.8,4.8l0.7,6.7l-46.5-4.5c-2.6-0.3-5.1,0.6-7.1,2.3
						c-1.9,1.7-3.1,4.1-3.2,6.7c-0.9,24.5-17.3,45.7-40.8,52.8c-30.3,9-62.2-8.3-71.2-38.4c-9-30.2,8.3-62.2,38.4-71.2
						c23.7-7.1,49.1,1.8,63.2,22c2.3,3.3,6.5,4.8,10.4,3.7l73.7-22L202.9,276.1z M250.4,365.2c-1.2,3.8,0.3,8.1,3.7,10.4
						c20.3,14.1,29.1,39.6,22,63.2c-7.2,24-29.7,40.8-54.8,40.8c-5.5,0-11.1-0.8-16.4-2.4c-30.2-9-47.5-40.9-38.4-71.2
						c7-23.5,28.2-40,52.8-40.8c2.6-0.1,5-1.2,6.7-3.2c0.9-1.1,1.5-2.3,1.9-3.6c0.1-0.3,0.3-0.6,0.4-0.9l22.4-57.6
						c1.8-4.8-0.5-10.3-5.4-12.1c-4.8-1.9-10.3,0.5-12.1,5.4l-8.7,22.6l-3.4-34.4l105.6-234l20.3-5.8L250.4,365.2z M463.6,184.6
						l-161.6,73l14.2-47.6l153.2-45.7L463.6,184.6z"/>
				</g>
			</g>
		</g>
		<g>
			<g>
				<g>
					<path class="st1" d="M244.4,399.2c-6.1-6.1-14.4-9.6-23.2-9.6c-8.7,0-17,3.4-23.2,9.6c-6.1,6.1-9.6,14.4-9.6,23.2
						s3.4,17,9.6,23.2c6.1,6.1,14.4,9.6,23.2,9.6c8.7,0,17-3.4,23.2-9.6C257.1,432.8,257.1,412,244.4,399.2z M231.2,432.3
						c-2.7,2.7-6.1,4.1-9.9,4.1c-3.7,0-7.3-1.4-9.9-4.1c-2.7-2.7-4.1-6.1-4.1-9.9c0-3.7,1.4-7.3,4.1-9.9c2.7-2.7,6.1-4.1,9.9-4.1
						c3.7,0,7.3,1.4,9.9,4.1C236.7,417.9,236.7,426.9,231.2,432.3z"/>
				</g>
			</g>
		</g>
		<g>
			<g>
				<g>
					<path class="st1" d="M255.5,261.7c-4.8-1.8-10.3,0.5-12.1,5.4l-0.1,0.3c-1.8,4.8,0.5,10.3,5.4,12.1c1.2,0.4,2.2,0.7,3.4,0.7
						c3.7,0,7.3-2.3,8.7-6l0.1-0.3C262.7,269,260.3,263.6,255.5,261.7z"/>
				</g>
			</g>
		</g>
	</g>
</g>
</svg>
