<?xml version="1.0" encoding="utf-8"?>
<!-- Generator: Adobe Illustrator 21.1.0, SVG Export Plug-In . SVG Version: 6.00 Build 0)  -->
<svg version="1.1" id="Capa_1" xmlns="http://www.w3.org/2000/svg" xmlns:xlink="http://www.w3.org/1999/xlink" x="0px" y="0px"
	 viewBox="0 0 512 512" style="enable-background:new 0 0 512 512;" xml:space="preserve">
<style type="text/css">
	.st0{fill:#FFD400;}
	.st1{fill:#FFD400;stroke:#FFD400;stroke-width:7;stroke-linecap:round;stroke-linejoin:round;stroke-miterlimit:10;}
</style>
<path class="st0" d="M92.2,302.1c-2.8,2.8-6.6,4.4-10.6,4.4s-7.8-1.6-10.6-4.4c-2.8-2.8-4.4-6.6-4.4-10.6s1.6-7.8,4.4-10.6
	c2.8-2.8,6.6-4.4,10.6-4.4s7.8,1.6,10.6,4.4c2.8,2.8,4.4,6.6,4.4,10.6S95,299.2,92.2,302.1z"/>
<polygon class="st1" points="481.3,177 308.8,254.9 323.9,204.2 487.4,155.4 "/>
<path class="st0" d="M233.1,441.6c-2.8,2.8-6.6,4.4-10.6,4.4s-7.8-1.6-10.6-4.4s-4.4-6.6-4.4-10.6s1.6-7.8,4.4-10.6
	c2.8-2.8,6.6-4.4,10.6-4.4s7.8,1.6,10.6,4.4C238.9,426.2,238.9,435.7,233.1,441.6z"/>
<path class="st1" d="M220.8,235l-78.7,23.5c-4.2,1.2-8.6-0.4-11.1-3.9c-15.1-21.6-42.2-31-67.5-23.5c-32.2,9.7-50.6,43.7-41,76
	c9.7,32.2,43.7,50.6,76,41c25.2-7.5,42.7-30.2,43.6-56.4c0.1-2.8,1.3-5.4,3.4-7.2c2.1-1.8,4.9-2.7,7.6-2.4l49.7,4.9l-0.7-7.2
	c-0.2-1.8,0.1-3.5,0.8-5.1L220.8,235z M108.8,318.6c-7.3,7.4-16.9,11.3-27.2,11.3s-19.9-4.1-27.2-11.3c-7.4-7.3-11.3-16.9-11.3-27.2
	c0-10.2,4.1-19.9,11.3-27.2c7.3-7.4,16.9-11.3,27.2-11.3s19.9,4.1,27.2,11.3c7.4,7.3,11.3,16.9,11.3,27.2
	C120.1,301.6,116,311.3,108.8,318.6z"/>
<path class="st0" d="M360.1,25.6c0.4-1.2,0-2.5-0.9-3.5c-0.9-0.9-2.2-1.3-3.4-0.9l-21.7,6.1c-1,0.3-1.8,1-2.2,1.9L219.2,279
	c-0.3,0.6-0.4,1.2-0.3,1.8l3.6,36.7c0.2,1.6,1.4,2.9,3,3.1c1.6,0.2,3.1-0.7,3.7-2.2l9.4-24.1c1.3-3.3,5.1-5,8.4-3.7
	c3.3,1.3,5,5.1,3.7,8.4l-23.9,61.5c0,0,0,0,0,0.1l0,0.1c-0.1,0.2-0.3,0.5-0.4,0.9c0,0,0,0.1,0,0.1c-0.3,0.9-0.7,1.7-1.3,2.4
	c0,0,0,0-0.1,0.1c-1.1,1.3-2.8,2.1-4.7,2.2c-27.7,1-51.7,19.5-59.6,46.1c-5,16.5-3.2,34,5,49.2c8.2,15.2,21.8,26.3,38.3,31.2
	c6.1,1.8,12.3,2.7,18.5,2.7c28.3,0,53.7-19,61.9-46.1c8-26.7-2-55.4-24.8-71.4c0,0,0,0,0,0c-2.3-1.6-3.3-4.5-2.5-7.2L360.1,25.6z
	 M257.5,430.8c0,9.4-3.6,18.2-10.3,24.9c0,0,0,0,0,0c-6.5,6.6-15.3,10.3-24.7,10.3c-9.3,0-18-3.7-24.7-10.3
	c-6.6-6.5-10.3-15.3-10.3-24.7c0-9.3,3.7-18,10.3-24.7c6.5-6.6,15.3-10.3,24.7-10.3c9.4,0,18.1,3.6,24.7,10.2
	C253.8,412.8,257.5,421.5,257.5,430.8z M255.3,279c-1.2,0-2.4-0.2-3.6-0.7c-5.1-2-7.7-7.8-5.7-12.9l0.1-0.3c2-5.1,7.7-7.7,12.9-5.7
	c5.2,1.9,7.7,7.7,5.7,12.9l-0.1,0.3C263.1,276.6,259.3,279,255.3,279z"/>
</svg>
