<?xml version="1.0" encoding="utf-8"?>
<!-- Generator: Adobe Illustrator 21.1.0, SVG Export Plug-In . SVG Version: 6.00 Build 0)  -->
<svg version="1.1" id="Layer_1" xmlns="http://www.w3.org/2000/svg" xmlns:xlink="http://www.w3.org/1999/xlink" x="0px" y="0px"
	 viewBox="0 0 444.4 160" style="enable-background:new 0 0 444.4 160;" xml:space="preserve">
<style type="text/css">
	.st0{fill:#40236A;stroke:#40236A;stroke-width:9;stroke-linecap:round;stroke-linejoin:round;stroke-miterlimit:10;}
	.st1{fill:#F47421;}
	.st2{fill:#F6A81C;}
	.st3{clip-path:url(#SVGID_2_);fill:url(#SVGID_3_);}
</style>
<g>
	<path class="st0" d="M10.5,20.1l24.2-2.2c5.4-0.5,9.7,0.6,13,3.2c3.3,2.6,5.2,7.4,5.9,14.4c0.4,4.4,0,7.8-1.1,10.2
		c-1.1,2.4-2.9,4.5-5.2,6.1l11.9,21.1l-15.1,1.4l-9.7-18.8l-5.7,0.5l1.8,19.6l-14.8,1.4L10.5,20.1z M34.4,43.6
		c1.7-0.2,2.9-0.8,3.6-1.8c0.7-1.1,1-2.7,0.8-4.9c-0.2-2.2-0.7-3.7-1.6-4.5c-0.9-0.8-2.2-1.1-3.9-1L26.5,32l1.1,12.2L34.4,43.6z
		 M66.8,68.8c-3.4-1.6-6-4.6-7.7-8.8c-1.7-4.2-2.4-10.3-2.2-18.2c0.2-7.9,1.2-13.9,3.1-18.1c1.9-4.2,4.6-7,8.1-8.4
		c3.5-1.4,8.1-2.1,13.9-2c5.8,0.1,10.4,1,13.8,2.6c3.4,1.6,6,4.6,7.7,8.8c1.7,4.2,2.4,10.3,2.2,18.2c-0.2,7.9-1.2,13.9-3.1,18.1
		c-1.9,4.2-4.6,7-8.1,8.4c-3.5,1.4-8.1,2.1-13.9,2C74.8,71.3,70.2,70.4,66.8,68.8z M86.9,57c1.3-0.8,2.3-2.3,2.9-4.5
		c0.6-2.2,0.9-5.5,1.1-9.8c0.1-4.5-0.1-7.8-0.5-10c-0.5-2.2-1.3-3.7-2.7-4.5c-1.3-0.8-3.3-1.3-6-1.3c-2.7-0.1-4.7,0.3-6,1
		c-1.4,0.8-2.3,2.2-2.9,4.4c-0.6,2.2-0.9,5.5-1,10c-0.1,4.4,0.1,7.6,0.6,9.8c0.5,2.2,1.4,3.8,2.6,4.6c1.3,0.9,3.3,1.3,5.9,1.4
		C83.6,58.2,85.6,57.8,86.9,57z M112.7,67.9c-2.6-2.1-4.4-5.4-5.2-9.8c-0.8-4.5-0.5-10.6,1-18.3c1.4-7.5,3.4-13.1,5.9-17
		c2.5-3.8,5.4-6.2,8.6-7.2c3.3-1,7.1-1.1,11.5-0.2c4.2,0.8,7.7,1.8,10.7,3c3,1.2,5.3,2.4,7.1,3.6l-2.2,11.4
		c-1.6-0.7-3.7-1.4-6.3-2.2c-2.6-0.8-5.5-1.4-8.6-2.1c-2.5-0.5-4.4-0.5-5.8,0c-1.4,0.5-2.6,1.8-3.6,3.8c-1,2.1-1.9,5.3-2.8,9.8
		c-0.8,4.3-1.2,7.5-1.1,9.7c0.1,2.2,0.7,3.9,1.8,5c1.1,1.1,3,2,5.7,2.5c6.6,1.3,11.6,2,15.1,2.2l-2.2,11.4
		c-4.3,0.8-10.6,0.5-18.9-1.1C119,71.4,115.4,70,112.7,67.9z M158.1,10l14.7,2.6l-3.9,21.8l5.8,1l12.9-20.2l15.6,2.8l-18,26
		l8.6,30.3l-15.6-2.8l-5.9-22.9l-5.8-1l-3.8,21.2L148,66.1L158.1,10z M198.6,78.7c-0.9-0.1-1.5-0.1-1.8-0.2l-0.6-4.7
		c0.9-0.1,1.5-0.3,1.8-0.5c0.3-0.3,0.4-0.7,0.4-1.4l-0.2-1.4l-0.8,0.1c-0.6,0.1-1,0-1.4-0.3c-0.4-0.3-0.6-0.7-0.7-1.3l-1-7.4
		c-0.2-1.4,0.4-2.1,1.6-2.3l8.5-1.1c1.2-0.2,1.9,0.4,2.1,1.8l1.5,11.2c0.3,2.4-0.1,4.2-1.4,5.4c-1.2,1.1-2.9,1.9-4.8,2.1
		C200.6,78.7,199.6,78.7,198.6,78.7z M212.6,19.1l24.4-5.7c3.1-0.7,6-0.9,8.6-0.5c2.7,0.4,5.2,1.8,7.5,4.4s4.1,6.6,5.4,12.1
		c1.9,8,1.6,13.8-0.8,17.3c-2.4,3.5-5.9,5.8-10.5,6.9c-2.2,0.5-4.6,0.8-7,0.9c-2.4,0.1-3.8,0.1-4,0.1l3.9,16.7l-14.5,3.4L212.6,19.1
		z M241.9,41c1.4-0.3,2.3-1.2,2.6-2.5c0.3-1.3,0.2-3.2-0.4-5.7c-0.6-2.3-1.3-4-2.2-5.1c-0.9-1-2-1.4-3.4-1.1l-8.4,2l3.4,14.3
		L241.9,41z M271.7,19.2l18.5,1.6l12,58.3l-15.4-1.3l-1.5-9.2L268.2,67l-3,8.8L250,74.6L271.7,19.2z M283,54.9l-3.3-22.3L272.8,54
		L283,54.9z M299.7,11.9l25-1.7c3.2-0.2,6,0.1,8.6,0.9c2.6,0.8,4.8,2.6,6.7,5.5c1.9,2.9,3,7.1,3.4,12.8c0.6,8.2-0.6,13.9-3.6,16.9
		c-2.9,3.1-6.8,4.8-11.5,5.1c-2.3,0.2-4.7,0.1-7.1-0.2c-2.4-0.3-3.7-0.5-4-0.5l1.2,17.2l-14.9,1L299.7,11.9z M325.1,38.3
		c1.5-0.1,2.5-0.8,3-2c0.5-1.2,0.7-3.1,0.5-5.7c-0.2-2.4-0.6-4.2-1.3-5.3c-0.7-1.2-1.8-1.7-3.2-1.6l-8.6,0.6l1,14.6L325.1,38.3z
		 M342.4,64.5l3.2-29.6c0.5-5,2.3-8.5,5.3-10.4c3-1.9,6.4-2.6,10.3-2.2c9.2,1,17.5,2.2,24.9,3.8l-1.3,12.5l-20.5-2.2
		c-2.6-0.3-4,0.7-4.3,2.9l-0.5,4.7l20.5,3l-1.3,11.8l-20.6-1.4l-0.5,4.3c-0.1,1.3,0,2.3,0.6,3.1c0.5,0.7,1.3,1.1,2.3,1.2l21.1,2.2
		l-1.3,12.5c-3.2,0.1-7,0.1-11.5-0.2c-4.5-0.2-8.8-0.6-12.8-1C345.9,78.6,341.4,73.6,342.4,64.5z M390,16.1l24.3-0.5
		c5.4-0.1,9.7,1.2,12.8,4.1c3.1,2.8,4.7,7.7,4.9,14.8c0.1,4.4-0.5,7.8-1.8,10.1c-1.3,2.4-3.2,4.3-5.6,5.8L435,72.2l-15.1,0.3
		L411.4,53l-5.7,0.1l0.4,19.7l-14.9,0.3L390,16.1z M412.2,41.2c1.7,0,2.9-0.6,3.7-1.6c0.8-1,1.2-2.6,1.1-4.8c0-2.2-0.5-3.7-1.3-4.6
		c-0.8-0.9-2.1-1.3-3.8-1.2l-6.8,0.1l0.3,12.2L412.2,41.2z M67.4,142.3l-1-11.8c5.1,0,11-0.3,17.6-0.9c2.6-0.2,4.5-0.7,5.7-1.4
		c1.2-0.7,1.7-1.8,1.6-3.2l-0.1-0.9c-0.1-1.1-0.5-1.9-1.4-2.4c-0.8-0.5-1.8-0.7-2.9-0.6l-4.1,0.4c-6.1,0.5-10.7-0.4-13.9-2.8
		c-3.2-2.4-5.1-6.6-5.6-12.6l-0.2-2.5c-0.5-5.6,0.8-9.9,3.9-13c3.1-3.1,7.8-4.9,14.2-5.5c5.6-0.5,11.6-0.3,17.9,0.7l1,11.8
		c-5.8,0-11.1,0.3-16,0.7c-2.4,0.2-4.3,0.7-5.4,1.4c-1.2,0.7-1.7,1.9-1.5,3.5l0.1,0.8c0.2,2.6,2,3.8,5.3,3.5l5-0.4
		c5.1-0.5,9.2,0.6,12.3,3.2c3,2.6,4.7,6.2,5.2,10.8l0.2,2.5c0.4,4.7-0.1,8.4-1.5,11.1c-1.4,2.7-3.6,4.7-6.5,5.9
		c-2.9,1.2-6.7,2-11.4,2.4C79.4,143.5,73.2,143.3,67.4,142.3z M113.4,134.5c-2.8-1.8-4.8-5-6-9.3c-1.2-4.4-1.4-10.5-0.6-18.4
		c0.8-7.6,2.3-13.4,4.4-17.4c2.1-4,4.8-6.7,8-7.9c3.2-1.3,7-1.7,11.5-1.2c4.2,0.4,7.9,1.1,10.9,2.1c3.1,0.9,5.5,1.9,7.4,2.9
		l-1.2,11.5c-1.6-0.5-3.8-1.1-6.5-1.6c-2.7-0.5-5.6-1-8.7-1.3c-2.5-0.3-4.4-0.1-5.8,0.5c-1.4,0.6-2.4,2-3.2,4.1
		c-0.8,2.1-1.5,5.5-1.9,10c-0.4,4.3-0.5,7.6-0.3,9.8c0.3,2.2,1,3.8,2.2,4.8c1.2,1,3.2,1.7,5.9,2c6.7,0.7,11.8,1,15.3,0.9l-1.2,11.5
		c-4.2,1.2-10.5,1.4-18.9,0.5C119.9,137.5,116.2,136.4,113.4,134.5z M151.3,91.6l14.9-0.8l3.2,57l-14.9,0.8L151.3,91.6z
		 M173.9,141.9l-0.6-11.8c5.1,0.2,11,0.1,17.6-0.3c2.6-0.1,4.5-0.5,5.7-1.2c1.2-0.7,1.8-1.7,1.7-3.1l0-0.9c-0.1-1.1-0.5-1.9-1.3-2.4
		c-0.8-0.5-1.8-0.8-2.9-0.7l-4.1,0.2c-6.1,0.3-10.7-0.8-13.8-3.3c-3.1-2.5-4.9-6.8-5.2-12.8l-0.1-2.5c-0.3-5.6,1.1-9.9,4.3-12.8
		c3.2-3,8-4.7,14.4-5c5.6-0.3,11.6,0.1,17.9,1.3l0.6,11.8c-5.8-0.2-11.1-0.1-16,0.2c-2.5,0.1-4.3,0.5-5.5,1.2
		c-1.2,0.7-1.7,1.8-1.7,3.4l0,0.8c0.1,2.6,1.9,3.8,5.2,3.6l5.1-0.3c5.2-0.3,9.2,0.9,12.2,3.7c2.9,2.7,4.5,6.4,4.8,11l0.1,2.5
		c0.3,4.7-0.4,8.4-1.9,11.1c-1.5,2.7-3.7,4.6-6.7,5.7c-2.9,1.1-6.8,1.8-11.5,2C185.9,143.5,179.7,143.1,173.9,141.9z M214.3,137
		l1.4-11.7c5,1,10.8,1.9,17.4,2.7c2.6,0.3,4.5,0.2,5.8-0.2c1.3-0.4,2-1.4,2.2-2.8l0.1-0.9c0.1-1.1-0.2-1.9-0.9-2.6
		c-0.7-0.7-1.6-1.1-2.7-1.2l-4-0.5c-6.1-0.7-10.4-2.6-13.1-5.6c-2.7-3-3.7-7.5-3-13.4l0.3-2.5c0.6-5.5,2.8-9.5,6.4-11.9
		c3.6-2.4,8.6-3.3,15.1-2.5c5.6,0.6,11.4,2.1,17.4,4.3l-1.4,11.7c-5.6-1.1-10.9-2-15.8-2.5c-2.4-0.3-4.3-0.2-5.6,0.2
		c-1.3,0.4-2,1.5-2.2,3.1l-0.1,0.8c-0.3,2.6,1.2,4.1,4.5,4.5l5,0.6c5.1,0.6,8.9,2.5,11.4,5.6c2.4,3.2,3.4,7,2.9,11.6l-0.3,2.5
		c-0.5,4.7-1.8,8.2-3.7,10.6c-1.9,2.4-4.4,3.9-7.5,4.5c-3.1,0.6-7,0.6-11.6,0.1C225.7,140.5,219.7,139.1,214.3,137z M271.6,143.5
		c-3.6-1.3-6.4-4-8.4-8c-2.1-4.1-3.4-10-3.9-17.9c-0.5-7.9-0.1-14,1.4-18.3c1.5-4.3,3.9-7.4,7.3-9.1c3.3-1.8,7.9-2.9,13.7-3.3
		c5.8-0.4,10.4,0,14,1.3c3.6,1.3,6.4,4,8.4,8c2.1,4.1,3.4,10,3.9,17.9c0.5,7.9,0.1,14-1.4,18.3c-1.5,4.3-3.9,7.4-7.3,9.1
		c-3.3,1.8-7.9,2.9-13.7,3.3C279.8,145.2,275.2,144.8,271.6,143.5z M290.5,129.8c1.2-0.9,2.1-2.5,2.4-4.7c0.4-2.2,0.4-5.5,0.1-9.9
		c-0.3-4.5-0.8-7.8-1.5-9.9c-0.7-2.1-1.7-3.6-3.1-4.3c-1.4-0.7-3.4-1-6.1-0.8c-2.7,0.2-4.6,0.7-5.9,1.6c-1.3,0.9-2.1,2.4-2.5,4.6
		c-0.4,2.2-0.4,5.6-0.1,10.1c0.3,4.3,0.8,7.6,1.5,9.8c0.7,2.2,1.7,3.6,3.1,4.4c1.4,0.8,3.4,1,6,0.9
		C287.3,131.3,289.3,130.8,290.5,129.8z M317.4,87.4l24.1,3.6c5.4,0.8,9.3,2.8,11.9,6.1c2.6,3.3,3.3,8.4,2.3,15.4
		c-0.6,4.4-1.8,7.6-3.5,9.7c-1.7,2.1-3.8,3.7-6.5,4.7l6.6,23.3l-15-2.2l-5-20.6l-5.6-0.8l-2.9,19.4l-14.7-2.2L317.4,87.4z
		 M335.1,115.9c1.7,0.2,3-0.1,3.9-0.9c1-0.9,1.6-2.4,1.9-4.6c0.3-2.2,0.2-3.8-0.5-4.7c-0.7-1-1.8-1.6-3.6-1.8l-6.7-1l-1.8,12.1
		L335.1,115.9z M372.9,83.4l15.7,3.9l-12.9,42.8l-11.7-2.9L372.9,83.4z M359.8,143.5c-0.3-0.4-0.3-0.9-0.2-1.5l2.3-9.5
		c0.2-0.6,0.4-1.1,0.9-1.4c0.4-0.3,0.9-0.3,1.6-0.2l9.1,2.3c1.3,0.3,1.9,1.2,1.5,2.5l-2.3,9.5c-0.3,1.2-1.1,1.7-2.5,1.4l-9.1-2.3
		C360.5,144.2,360,143.9,359.8,143.5z"/>
	<path class="st1" d="M8.5,18.1l24.2-2.2c5.4-0.5,9.7,0.6,13,3.2c3.3,2.6,5.2,7.4,5.9,14.4c0.4,4.4,0,7.8-1.1,10.2
		c-1.1,2.4-2.9,4.5-5.2,6.1l11.9,21.1l-15.1,1.4l-9.7-18.8l-5.7,0.5l1.8,19.6l-14.8,1.4L8.5,18.1z M32.4,41.6
		c1.7-0.2,2.9-0.8,3.6-1.8c0.7-1.1,1-2.7,0.8-4.9c-0.2-2.2-0.7-3.7-1.6-4.5c-0.9-0.8-2.2-1.1-3.9-1L24.5,30l1.1,12.2L32.4,41.6z
		 M64.8,66.8c-3.4-1.6-6-4.6-7.7-8.8c-1.7-4.2-2.4-10.3-2.2-18.2c0.2-7.9,1.2-13.9,3.1-18.1c1.9-4.2,4.6-7,8.1-8.4
		c3.5-1.4,8.1-2.1,13.9-2c5.8,0.1,10.4,1,13.8,2.6c3.4,1.6,6,4.6,7.7,8.8c1.7,4.2,2.4,10.3,2.2,18.2c-0.2,7.9-1.2,13.9-3.1,18.1
		c-1.9,4.2-4.6,7-8.1,8.4c-3.5,1.4-8.1,2.1-13.9,2C72.8,69.3,68.2,68.4,64.8,66.8z M84.9,55c1.3-0.8,2.3-2.3,2.9-4.5
		c0.6-2.2,0.9-5.5,1.1-9.8c0.1-4.5-0.1-7.8-0.5-10c-0.5-2.2-1.3-3.7-2.7-4.5c-1.3-0.8-3.3-1.3-6-1.3c-2.7-0.1-4.7,0.3-6,1
		c-1.4,0.8-2.3,2.2-2.9,4.4c-0.6,2.2-0.9,5.5-1,10c-0.1,4.4,0.1,7.6,0.6,9.8c0.5,2.2,1.4,3.8,2.6,4.6c1.3,0.9,3.3,1.3,5.9,1.4
		C81.6,56.2,83.6,55.8,84.9,55z M110.7,65.9c-2.6-2.1-4.4-5.4-5.2-9.8c-0.8-4.5-0.5-10.6,1-18.3c1.4-7.5,3.4-13.1,5.9-17
		c2.5-3.8,5.4-6.2,8.6-7.2c3.3-1,7.1-1.1,11.5-0.2c4.2,0.8,7.7,1.8,10.7,3c3,1.2,5.3,2.4,7.1,3.6l-2.2,11.4
		c-1.6-0.7-3.7-1.4-6.3-2.2c-2.6-0.8-5.5-1.4-8.6-2.1c-2.5-0.5-4.4-0.5-5.8,0c-1.4,0.5-2.6,1.8-3.6,3.8c-1,2.1-1.9,5.3-2.8,9.8
		c-0.8,4.3-1.2,7.5-1.1,9.7c0.1,2.2,0.7,3.9,1.8,5c1.1,1.1,3,2,5.7,2.5c6.6,1.3,11.6,2,15.1,2.2l-2.2,11.4
		c-4.3,0.8-10.6,0.5-18.9-1.1C117,69.4,113.4,68,110.7,65.9z M156.1,8l14.7,2.6l-3.9,21.8l5.8,1l12.9-20.2l15.6,2.8l-18,26l8.6,30.3
		l-15.6-2.8l-5.9-22.9l-5.8-1l-3.8,21.2L146,64.1L156.1,8z M196.6,76.7c-0.9-0.1-1.5-0.1-1.8-0.2l-0.6-4.7c0.9-0.1,1.5-0.3,1.8-0.5
		c0.3-0.3,0.4-0.7,0.4-1.4l-0.2-1.4l-0.8,0.1c-0.6,0.1-1,0-1.4-0.3c-0.4-0.3-0.6-0.7-0.7-1.3l-1-7.4c-0.2-1.4,0.4-2.1,1.6-2.3
		l8.5-1.1c1.2-0.2,1.9,0.4,2.1,1.8l1.5,11.2c0.3,2.4-0.1,4.2-1.4,5.4c-1.2,1.1-2.9,1.9-4.8,2.1C198.6,76.7,197.6,76.7,196.6,76.7z
		 M210.6,17.1l24.4-5.7c3.1-0.7,6-0.9,8.6-0.5c2.7,0.4,5.2,1.8,7.5,4.4s4.1,6.6,5.4,12.1c1.9,8,1.6,13.8-0.8,17.3
		c-2.4,3.5-5.9,5.8-10.5,6.9c-2.2,0.5-4.6,0.8-7,0.9c-2.4,0.1-3.8,0.1-4,0.1l3.9,16.7l-14.5,3.4L210.6,17.1z M239.9,39
		c1.4-0.3,2.3-1.2,2.6-2.5c0.3-1.3,0.2-3.2-0.4-5.7c-0.6-2.3-1.3-4-2.2-5.1c-0.9-1-2-1.4-3.4-1.1l-8.4,2l3.4,14.3L239.9,39z
		 M269.7,17.2l18.5,1.6l12,58.3l-15.4-1.3l-1.5-9.2L266.2,65l-3,8.8L248,72.6L269.7,17.2z M281,52.9l-3.3-22.3L270.8,52L281,52.9z
		 M297.7,9.9l25-1.7c3.2-0.2,6,0.1,8.6,0.9c2.6,0.8,4.8,2.6,6.7,5.5c1.9,2.9,3,7.1,3.4,12.8c0.6,8.2-0.6,13.9-3.6,16.9
		c-2.9,3.1-6.8,4.8-11.5,5.1c-2.3,0.2-4.7,0.1-7.1-0.2c-2.4-0.3-3.7-0.5-4-0.5l1.2,17.2l-14.9,1L297.7,9.9z M323.1,36.3
		c1.5-0.1,2.5-0.8,3-2c0.5-1.2,0.7-3.1,0.5-5.7c-0.2-2.4-0.6-4.2-1.3-5.3c-0.7-1.2-1.8-1.7-3.2-1.6l-8.6,0.6l1,14.6L323.1,36.3z
		 M340.4,62.5l3.2-29.6c0.5-5,2.3-8.5,5.3-10.4c3-1.9,6.4-2.6,10.3-2.2c9.2,1,17.5,2.2,24.9,3.8l-1.3,12.5l-20.5-2.2
		c-2.6-0.3-4,0.7-4.3,2.9l-0.5,4.7l20.5,3l-1.3,11.8l-20.6-1.4l-0.5,4.3c-0.1,1.3,0,2.3,0.6,3.1c0.5,0.7,1.3,1.1,2.3,1.2l21.1,2.2
		l-1.3,12.5c-3.2,0.1-7,0.1-11.5-0.2c-4.5-0.2-8.8-0.6-12.8-1C343.9,76.6,339.4,71.6,340.4,62.5z M388,14.1l24.3-0.5
		c5.4-0.1,9.7,1.2,12.8,4.1c3.1,2.8,4.7,7.7,4.9,14.8c0.1,4.4-0.5,7.8-1.8,10.1c-1.3,2.4-3.2,4.3-5.6,5.8L433,70.2l-15.1,0.3
		L409.4,51l-5.7,0.1l0.4,19.7l-14.9,0.3L388,14.1z M410.2,39.2c1.7,0,2.9-0.6,3.7-1.6c0.8-1,1.2-2.6,1.1-4.8c0-2.2-0.5-3.7-1.3-4.6
		c-0.8-0.9-2.1-1.3-3.8-1.2l-6.8,0.1l0.3,12.2L410.2,39.2z M65.4,140.3l-1-11.8c5.1,0,11-0.3,17.6-0.9c2.6-0.2,4.5-0.7,5.7-1.4
		c1.2-0.7,1.7-1.8,1.6-3.2l-0.1-0.9c-0.1-1.1-0.5-1.9-1.4-2.4c-0.8-0.5-1.8-0.7-2.9-0.6l-4.1,0.4c-6.1,0.5-10.7-0.4-13.9-2.8
		c-3.2-2.4-5.1-6.6-5.6-12.6l-0.2-2.5c-0.5-5.6,0.8-9.9,3.9-13c3.1-3.1,7.8-4.9,14.2-5.5c5.6-0.5,11.6-0.3,17.9,0.7l1,11.8
		c-5.8,0-11.1,0.3-16,0.7c-2.4,0.2-4.3,0.7-5.4,1.4c-1.2,0.7-1.7,1.9-1.5,3.5l0.1,0.8c0.2,2.6,2,3.8,5.3,3.5l5-0.4
		c5.1-0.5,9.2,0.6,12.3,3.2c3,2.6,4.7,6.2,5.2,10.8l0.2,2.5c0.4,4.7-0.1,8.4-1.5,11.1c-1.4,2.7-3.6,4.7-6.5,5.9
		c-2.9,1.2-6.7,2-11.4,2.4C77.4,141.5,71.2,141.3,65.4,140.3z M111.4,132.5c-2.8-1.8-4.8-5-6-9.3c-1.2-4.4-1.4-10.5-0.6-18.4
		c0.8-7.6,2.3-13.4,4.4-17.4c2.1-4,4.8-6.7,8-7.9c3.2-1.3,7-1.7,11.5-1.2c4.2,0.4,7.9,1.1,10.9,2.1c3.1,0.9,5.5,1.9,7.4,2.9
		l-1.2,11.5c-1.6-0.5-3.8-1.1-6.5-1.6c-2.7-0.5-5.6-1-8.7-1.3c-2.5-0.3-4.4-0.1-5.8,0.5c-1.4,0.6-2.4,2-3.2,4.1
		c-0.8,2.1-1.5,5.5-1.9,10c-0.4,4.3-0.5,7.6-0.3,9.8c0.3,2.2,1,3.8,2.2,4.8c1.2,1,3.2,1.7,5.9,2c6.7,0.7,11.8,1,15.3,0.9l-1.2,11.5
		c-4.2,1.2-10.5,1.4-18.9,0.5C117.9,135.5,114.2,134.4,111.4,132.5z M149.3,89.6l14.9-0.8l3.2,57l-14.9,0.8L149.3,89.6z
		 M171.9,139.9l-0.6-11.8c5.1,0.2,11,0.1,17.6-0.3c2.6-0.1,4.5-0.5,5.7-1.2c1.2-0.7,1.8-1.7,1.7-3.1l0-0.9c-0.1-1.1-0.5-1.9-1.3-2.4
		c-0.8-0.5-1.8-0.8-2.9-0.7l-4.1,0.2c-6.1,0.3-10.7-0.8-13.8-3.3c-3.1-2.5-4.9-6.8-5.2-12.8l-0.1-2.5c-0.3-5.6,1.1-9.9,4.3-12.8
		c3.2-3,8-4.7,14.4-5c5.6-0.3,11.6,0.1,17.9,1.3l0.6,11.8c-5.8-0.2-11.1-0.1-16,0.2c-2.5,0.1-4.3,0.5-5.5,1.2
		c-1.2,0.7-1.7,1.8-1.7,3.4l0,0.8c0.1,2.6,1.9,3.8,5.2,3.6l5.1-0.3c5.2-0.3,9.2,0.9,12.2,3.7c2.9,2.7,4.5,6.4,4.8,11l0.1,2.5
		c0.3,4.7-0.4,8.4-1.9,11.1c-1.5,2.7-3.7,4.6-6.7,5.7c-2.9,1.1-6.8,1.8-11.5,2C183.9,141.5,177.7,141.1,171.9,139.9z M212.3,135
		l1.4-11.7c5,1,10.8,1.9,17.4,2.7c2.6,0.3,4.5,0.2,5.8-0.2c1.3-0.4,2-1.4,2.2-2.8l0.1-0.9c0.1-1.1-0.2-1.9-0.9-2.6
		c-0.7-0.7-1.6-1.1-2.7-1.2l-4-0.5c-6.1-0.7-10.4-2.6-13.1-5.6c-2.7-3-3.7-7.5-3-13.4l0.3-2.5c0.6-5.5,2.8-9.5,6.4-11.9
		c3.6-2.4,8.6-3.3,15.1-2.5c5.6,0.6,11.4,2.1,17.4,4.3l-1.4,11.7c-5.6-1.1-10.9-2-15.8-2.5c-2.4-0.3-4.3-0.2-5.6,0.2
		c-1.3,0.4-2,1.5-2.2,3.1l-0.1,0.8c-0.3,2.6,1.2,4.1,4.5,4.5l5,0.6c5.1,0.6,8.9,2.5,11.4,5.6c2.4,3.2,3.4,7,2.9,11.6l-0.3,2.5
		c-0.5,4.7-1.8,8.2-3.7,10.6c-1.9,2.4-4.4,3.9-7.5,4.5c-3.1,0.6-7,0.6-11.6,0.1C223.7,138.5,217.7,137.1,212.3,135z M269.6,141.5
		c-3.6-1.3-6.4-4-8.4-8c-2.1-4.1-3.4-10-3.9-17.9c-0.5-7.9-0.1-14,1.4-18.3c1.5-4.3,3.9-7.4,7.3-9.1c3.3-1.8,7.9-2.9,13.7-3.3
		c5.8-0.4,10.4,0,14,1.3c3.6,1.3,6.4,4,8.4,8c2.1,4.1,3.4,10,3.9,17.9c0.5,7.9,0.1,14-1.4,18.3c-1.5,4.3-3.9,7.4-7.3,9.1
		c-3.3,1.8-7.9,2.9-13.7,3.3C277.8,143.2,273.2,142.8,269.6,141.5z M288.5,127.8c1.2-0.9,2.1-2.5,2.4-4.7c0.4-2.2,0.4-5.5,0.1-9.9
		c-0.3-4.5-0.8-7.8-1.5-9.9c-0.7-2.1-1.7-3.6-3.1-4.3c-1.4-0.7-3.4-1-6.1-0.8c-2.7,0.2-4.6,0.7-5.9,1.6c-1.3,0.9-2.1,2.4-2.5,4.6
		c-0.4,2.2-0.4,5.6-0.1,10.1c0.3,4.3,0.8,7.6,1.5,9.8c0.7,2.2,1.7,3.6,3.1,4.4c1.4,0.8,3.4,1,6,0.9
		C285.3,129.3,287.3,128.8,288.5,127.8z M315.4,85.4l24.1,3.6c5.4,0.8,9.3,2.8,11.9,6.1c2.6,3.3,3.3,8.4,2.3,15.4
		c-0.6,4.4-1.8,7.6-3.5,9.7c-1.7,2.1-3.8,3.7-6.5,4.7l6.6,23.3l-15-2.2l-5-20.6l-5.6-0.8l-2.9,19.4l-14.7-2.2L315.4,85.4z
		 M333.1,113.9c1.7,0.2,3-0.1,3.9-0.9c1-0.9,1.6-2.4,1.9-4.6c0.3-2.2,0.2-3.8-0.5-4.7c-0.7-1-1.8-1.6-3.6-1.8l-6.7-1l-1.8,12.1
		L333.1,113.9z M370.9,81.4l15.7,3.9l-12.9,42.8l-11.7-2.9L370.9,81.4z M357.8,141.5c-0.3-0.4-0.3-0.9-0.2-1.5l2.3-9.5
		c0.2-0.6,0.4-1.1,0.9-1.4c0.4-0.3,0.9-0.3,1.6-0.2l9.1,2.3c1.3,0.3,1.9,1.2,1.5,2.5l-2.3,9.5c-0.3,1.2-1.1,1.7-2.5,1.4l-9.1-2.3
		C358.5,142.2,358,141.9,357.8,141.5z"/>
	<g>
		<polygon class="st2" points="274.8,32.3 267.5,54.9 280.2,56 279.8,53.8 269.5,52.9 276.1,32.4 		"/>
		<path class="st2" d="M172.7,90.3c3-2.4,7.3-3.8,13-4.1c1.2-0.1,2.3-0.1,3.5-0.1c4.2,0,8.7,0.4,13.4,1.2l0.4,7.9c0.7,0,1.4,0,2.1,0
			l-0.5-9.9c-4.6-0.8-9.1-1.2-13.4-1.2c-1.2,0-2.4,0-3.5,0.1c-6.2,0.3-10.8,1.9-13.8,4.7C173.4,89.4,173,89.8,172.7,90.3z"/>
		<path class="st2" d="M228.8,44.2l9.3-2.2c1.5-0.3,2.5-1.2,3.1-2.4c-0.3,0.2-0.7,0.3-1.1,0.4l-9.3,2.2l-3.5-14.8l-2.3,0.6
			L228.8,44.2z"/>
		<polygon class="st2" points="264.8,66.1 263.5,66 261.3,72.7 262.5,72.8 		"/>
		<path class="st2" d="M228.9,128.9c1.1,0.1,2.1,0.2,2.9,0.2c1.4,0,2.4-0.1,3.3-0.5c1.2-0.4,2-1.2,2.5-2.2c-0.1,0.1-0.3,0.1-0.5,0.2
			c-0.9,0.3-2,0.5-3.3,0.5c-0.9,0-1.9-0.1-2.9-0.2c-6.1-0.7-11.6-1.5-16.4-2.5l-0.3,2.3C218.6,127.6,223.5,128.3,228.9,128.9z"/>
		<path class="st2" d="M232.2,53.5l-1.2,0l3.6,15.5l2.3-0.6l-3.5-15C232.7,53.4,232.3,53.5,232.2,53.5z"/>
		<path class="st2" d="M233.2,14.3c2-0.5,3.8-0.7,5.6-0.7c0.9,0,1.8,0.1,2.6,0.2c2.4,0.3,4.7,1.7,6.9,4c2.2,2.4,4,6.3,5.2,11.6
			c1.8,7.7,1.6,13.3-0.6,16.5c-0.3,0.4-0.5,0.7-0.8,1.1c1.1-0.9,2-1.9,2.8-3.1c2.2-3.3,2.4-8.8,0.6-16.5c-1.3-5.3-3-9.3-5.2-11.6
			c-2.2-2.3-4.5-3.7-6.9-4c-0.9-0.1-1.7-0.2-2.6-0.2c-1.8,0-3.7,0.2-5.6,0.7l-23.4,5.5l0.3,1.4L233.2,14.3z"/>
		<polygon class="st2" points="197.4,18.7 180.1,43.8 187.7,70.6 190.4,71.1 182.1,41.8 199.4,16.7 186.1,14.3 184.7,16.5 		"/>
		<path class="st2" d="M193.2,59.3l0.1,0.6l7.1-0.9c0.1,0,0.2,0,0.2,0c0.3,0,0.6,0,0.7,1l1.5,11.2c0.2,1.4,0.1,2.5-0.3,3.4
			c0.4-0.2,0.9-0.5,1.2-0.9c1-0.9,1.3-2.4,1.1-4.5L203.4,58c-0.1-1-0.5-1-0.7-1c-0.1,0-0.2,0-0.2,0l-8.5,1.1
			C193.4,58.2,193,58.3,193.2,59.3z"/>
		<path class="st2" d="M187,130.9c2.8-0.2,4.8-0.6,6.1-1.3c0.9-0.5,1.5-1.1,1.8-1.9c-1.3,0.7-3.3,1.1-6,1.2
			c-4.3,0.2-8.4,0.4-12.1,0.4c-1.5,0-3,0-4.5-0.1l0.1,2c0.8,0,1.6,0,2.4,0C178.5,131.2,182.6,131.1,187,130.9z"/>
		<path class="st2" d="M195.3,72.6l0,0.1C195.3,72.6,195.3,72.6,195.3,72.6C195.3,72.6,195.3,72.6,195.3,72.6z"/>
		<path class="st2" d="M139.7,70.6l1.9-9.6c-3.5-0.3-8.2-1-14.1-2.2c-2.9-0.6-4.9-1.5-6.2-2.7c-1.3-1.3-2-3.2-2.1-5.7
			c-0.1-2.3,0.3-5.5,1.1-9.9c0.9-4.6,1.8-7.9,2.9-10c0.3-0.7,0.7-1.2,1-1.8c-1.2,0.8-2.2,2-3,3.8c-1,2.1-2,5.4-2.9,10
			c-0.8,4.4-1.2,7.6-1.1,9.9c0.1,2.5,0.8,4.4,2.1,5.7c1.3,1.3,3.3,2.2,6.2,2.7c5.9,1.1,10.7,1.9,14.1,2.2l-1.5,7.8
			C138.6,70.7,139.1,70.7,139.7,70.6z"/>
		<path class="st2" d="M320.8,11.2c0.7,0,1.3-0.1,1.9-0.1c2.3,0,4.4,0.3,6.3,0.9c2.3,0.7,4.4,2.4,6.2,5.1c1.8,2.7,2.9,6.9,3.3,12.3
			c0.5,7.3-0.4,12.4-2.7,15.4c0.5-0.4,0.9-0.8,1.4-1.3c2.7-2.9,3.8-8.3,3.3-16.2c-0.4-5.5-1.5-9.6-3.3-12.3
			c-1.8-2.7-3.8-4.4-6.2-5.1c-1.9-0.6-4-0.9-6.3-0.9c-0.6,0-1.3,0-1.9,0.1l-24,1.7l0.1,1.9L320.8,11.2z"/>
		<path class="st2" d="M272.4,100.8c-0.1,0.1-0.2,0.1-0.4,0.2c-1.5,1-2.5,2.8-2.9,5.3c-0.4,2.3-0.4,5.7-0.1,10.3
			c0.3,4.5,0.8,7.7,1.5,10c0.8,2.4,2,4.1,3.5,4.9c1.3,0.7,2.9,1,5,1c0.5,0,1,0,1.6-0.1c2.9-0.2,5-0.8,6.4-1.9c0.6-0.4,1.1-1,1.5-1.7
			c-1.4,0.9-3.3,1.4-5.9,1.5c-0.5,0-1.1,0.1-1.6,0.1c-2.1,0-3.8-0.3-5-1c-1.6-0.9-2.8-2.5-3.5-4.9c-0.7-2.3-1.2-5.5-1.5-10
			c-0.3-4.6-0.3-8,0.1-10.3C271.4,102.9,271.8,101.8,272.4,100.8z"/>
		<path class="st2" d="M357.4,35.9c-1.4,0.6-2.2,1.8-2.4,3.5l-0.6,5.7l20.5,3l-0.8,7.7l1.8,0.1l1-9.8l-20.5-3l0.6-5.7
			C357.1,36.8,357.2,36.3,357.4,35.9z"/>
		<path class="st2" d="M412.8,40.2c0.2-0.2,0.3-0.5,0.5-0.7c-0.8,0.4-1.8,0.7-3,0.7l-7.8,0.2l-0.3-12.3l-2,0l0.3,14.2l7.8-0.2
			C410.3,42.1,411.8,41.5,412.8,40.2z"/>
		<path class="st2" d="M352.7,61.7c-0.2,1.6,0.1,2.8,0.7,3.8c0.7,1,1.7,1.5,3,1.7l20.1,2.1l-0.9,8.7c0.6,0,1.2,0,1.8,0l1.1-10.7
			l-20.1-2.1c-1.3-0.1-2.3-0.7-3-1.7c-0.7-0.9-0.9-2.2-0.7-3.8l0.3-3.1l-1.8-0.1L352.7,61.7z"/>
		<path class="st2" d="M421.5,48.4c-0.5,0.4-1,0.7-1.5,1l-0.8,0.5l9.2,19.4l2.9-0.1L421.5,48.4z"/>
		<path class="st2" d="M410.4,16.6c0.2,0,0.4,0,0.6,0c4.8,0,8.7,1.3,11.4,3.8c2.9,2.6,4.4,7.3,4.5,14c0.1,4.2-0.5,7.4-1.7,9.6
			c-0.4,0.8-1,1.5-1.5,2.2c1.4-1.2,2.6-2.6,3.5-4.2c1.2-2.2,1.8-5.4,1.7-9.6c-0.1-6.7-1.7-11.4-4.5-14c-2.8-2.5-6.6-3.8-11.4-3.8
			c-0.2,0-0.4,0-0.6,0l-23.3,0.5l0,2L410.4,16.6z"/>
		<polygon class="st2" points="285.4,21.7 296.5,75.7 299,75.9 287.4,19.7 270.4,18.2 269.6,20.3 		"/>
		<path class="st2" d="M311.6,39.9l9.6-0.7c1.8-0.1,3.1-1,3.7-2.4c-0.5,0.2-1.1,0.4-1.7,0.4l-9.6,0.7l-1-14.8l-2.1,0.1L311.6,39.9z"
			/>
		<path class="st2" d="M313.3,65l2.1-0.1l-1-15.1c-1.2-0.2-2.2-0.3-2.2-0.3L313.3,65z"/>
		<path class="st2" d="M347.4,25.4c2.3-1.4,4.9-2.1,7.7-2.1c0.6,0,1.3,0,2,0.1c8.7,0.9,16.8,2.1,23.9,3.6l-0.9,8.4l1.8,0.2L383,25
			c-7.2-1.5-15.2-2.7-23.9-3.6c-0.7-0.1-1.3-0.1-2-0.1c-2.8,0-5.4,0.7-7.7,2.1c-0.9,0.6-1.7,1.4-2.4,2.3
			C347.1,25.6,347.3,25.5,347.4,25.4z"/>
		<polygon class="st2" points="167.6,13.4 163.7,35.2 171.1,36.6 172.5,34.5 165.7,33.2 169.6,11.4 156.9,9.1 156.5,11.4 		"/>
		<path class="st2" d="M371.3,132.2l-9.1-2.3c-0.2,0-0.3-0.1-0.4-0.1c-0.2,0-0.3,0-0.4,0.1c-0.2,0.1-0.3,0.4-0.4,0.8l-0.3,1.3
			l8.7,2.1c0.3,0.1,0.6,0.2,0.8,0.4c0.1,0.2,0.1,0.6,0,0.9l-2,8l0.4,0.1c0.2,0.1,0.4,0.1,0.5,0.1c0.3,0,0.6-0.1,0.7-0.7l2.3-9.5
			c0.1-0.3,0.1-0.7,0-0.9C371.9,132.4,371.5,132.3,371.3,132.2z"/>
		<path class="st2" d="M232.9,82.5c-4.2,0-7.6,0.9-10.2,2.6c-1,0.7-1.9,1.6-2.7,2.6c0.2-0.2,0.5-0.4,0.7-0.6c2.6-1.7,6-2.6,10.2-2.6
			c1.3,0,2.7,0.1,4.2,0.3c5.3,0.6,10.8,1.9,16.5,3.9l-0.9,7.6c0.6,0.1,1.1,0.2,1.7,0.3l1.1-9.9c-5.7-2-11.2-3.3-16.5-3.9
			C235.6,82.5,234.2,82.5,232.9,82.5z"/>
		<path class="st2" d="M301.1,94.8c-1.9-3.8-4.6-6.4-7.9-7.6c-2.6-0.9-5.9-1.4-9.8-1.4c-1.2,0-2.5,0-3.8,0.1
			c-5.6,0.4-10.1,1.4-13.3,3.1c-1.5,0.8-2.8,1.9-4,3.3c0.6-0.5,1.3-0.9,2-1.3c3.2-1.7,7.7-2.8,13.3-3.1c1.3-0.1,2.6-0.1,3.8-0.1
			c3.9,0,7.2,0.5,9.8,1.4c3.3,1.2,5.9,3.7,7.9,7.6c2,3.9,3.3,9.8,3.8,17.5c0.5,7.7,0.1,13.7-1.4,17.9c-0.7,2.1-1.7,3.8-2.8,5.3
			c2.1-1.7,3.7-4.1,4.8-7.3c1.4-4.2,1.9-10.2,1.4-17.9C304.4,104.6,303.1,98.7,301.1,94.8z"/>
		<path class="st2" d="M239,105.4l-5-0.6c-1.9-0.2-3.3-0.8-4.2-1.7c-1-1-1.4-2.3-1.2-3.9l0.1-0.8c0.1-0.7,0.3-1.3,0.5-1.8
			c-1.1,0.5-2.2,1.5-2.5,3.8l-0.1,0.8c-0.2,1.6,0.2,2.9,1.2,3.9c0.9,0.9,2.3,1.5,4.2,1.7l5,0.6c4.8,0.6,8.4,2.3,10.7,5.3
			c2.3,2.9,3.2,6.6,2.7,10.9l-0.3,2.5c-0.5,4.4-1.7,7.7-3.4,10c0.7-0.5,1.3-1.2,1.9-1.9c1.8-2.2,3-5.6,3.5-10.1l0.3-2.5
			c0.5-4.3-0.4-8-2.7-10.9C247.5,107.7,243.9,105.9,239,105.4z"/>
		
			<rect x="312.7" y="133.3" transform="matrix(0.1464 -0.9892 0.9892 0.1464 141.5842 432.4287)" class="st2" width="17.4" height="1.7"/>
		<polygon class="st2" points="150.4,90.5 150.5,92.4 161.3,91.8 164.2,144.9 166.3,144.8 163.3,89.8 		"/>
		
			<rect x="151.2" y="55.2" transform="matrix(0.1764 -0.9843 0.9843 0.1764 77.2868 204.3853)" class="st2" width="19.2" height="1.6"/>
		<polygon class="st2" points="371.2,85 383.3,88 371.7,126.6 373,126.9 385.3,86 371.7,82.6 		"/>
		
			<rect x="400.9" y="52.2" transform="matrix(0.9998 -2.170643e-02 2.170643e-02 0.9998 -1.2295 8.739)" class="st2" width="2" height="17.7"/>
		<path class="st2" d="M325.3,101.7l-2.1,14.1l7.7,1.1c0.4,0.1,0.8,0.1,1.2,0.1c1.4,0,2.6-0.4,3.6-1.3c0.4-0.4,0.8-0.8,1.1-1.4
			c-0.8,0.4-1.6,0.6-2.6,0.6c-0.4,0-0.8,0-1.2-0.1l-7.7-1.1l1.7-11.8L325.3,101.7z"/>
		<path class="st2" d="M128.5,79.3c-1.2-0.1-2.3-0.2-3.4-0.2c-2.9,0-5.4,0.4-7.6,1.3c-1.9,0.7-3.5,2-5,3.8c1-0.8,2-1.4,3-1.8
			c2.2-0.9,4.8-1.3,7.6-1.3c1.1,0,2.2,0.1,3.4,0.2c4.1,0.4,7.8,1.1,10.8,2c2.7,0.8,4.9,1.7,6.6,2.5l-0.7,7.2
			c0.6,0.2,1.2,0.3,1.7,0.5l1-9.7c-1.7-0.9-3.9-1.7-6.6-2.5C136.3,80.4,132.7,79.7,128.5,79.3z"/>
		<path class="st2" d="M350.6,95.7c-2.4-3.1-6.2-5-11.3-5.8l-23.1-3.4l-0.3,2.2l21.4,3.2c5.1,0.8,8.9,2.7,11.3,5.8
			c2.4,3.1,3.1,8,2.1,14.6c-0.6,4.2-1.7,7.3-3.3,9.2c0.7-0.6,1.4-1.3,2-2c1.6-2,2.7-5.1,3.3-9.2C353.7,103.7,352.9,98.8,350.6,95.7z
			"/>
		<path class="st2" d="M341.3,126l-0.8,0.3l5.7,20.3l2.7,0.4l-6.1-21.7C342.3,125.6,341.8,125.8,341.3,126z"/>
		<path class="st2" d="M209.2,119.9c-0.2-4.3-1.7-7.8-4.5-10.3c-2.5-2.3-5.9-3.4-10.1-3.4c-0.4,0-0.9,0-1.4,0l-5.1,0.3
			c-0.2,0-0.5,0-0.7,0c-4.6,0-5.5-2.9-5.6-4.6l0-0.8c-0.1-1,0.1-1.8,0.4-2.5c-0.1,0-0.2,0.1-0.2,0.1c-1.1,0.6-2.3,1.8-2.2,4.4l0,0.8
			c0.1,1.7,0.9,4.6,5.6,4.6c0.2,0,0.4,0,0.7,0l5.1-0.3c0.5,0,0.9,0,1.4,0c4.2,0,7.6,1.2,10.1,3.4c2.7,2.5,4.2,6,4.5,10.3l0.1,2.5
			c0.2,4.5-0.3,8-1.7,10.5c-0.3,0.5-0.6,1-1,1.5c1.2-0.9,2.2-2.1,3-3.5c1.4-2.5,2-6,1.7-10.5L209.2,119.9z"/>
		<path class="st2" d="M86.2,129.2c0.8-0.5,1.4-1.1,1.7-1.8c-1.3,0.7-3.2,1.1-5.8,1.4c-6.1,0.5-11.7,0.8-16.6,0.9l0.2,2
			c4.3-0.1,9.2-0.4,14.4-0.8C82.9,130.4,84.8,129.9,86.2,129.2z"/>
		<path class="st2" d="M69.9,30c0.3-1.1,0.7-2.1,1.2-2.9c-1.5,0.9-2.6,2.6-3.2,4.9c-0.6,2.3-0.9,5.6-1.1,10.2
			c-0.1,4.5,0.1,7.8,0.6,10.1c0.5,2.5,1.6,4.2,3.1,5.2c1.5,1,3.6,1.5,6.5,1.6c0.2,0,0.6,0,0.6,0c2.6,0,4.5-0.4,5.9-1.3
			c0.8-0.5,1.4-1.1,2-2c-1.4,0.9-3.3,1.3-5.9,1.3c0,0-0.4,0-0.6,0c-2.9-0.1-5-0.6-6.5-1.6c-1.5-1-2.5-2.8-3.1-5.2
			c-0.5-2.3-0.7-5.6-0.6-10.1C68.9,35.6,69.3,32.2,69.9,30z"/>
		<path class="st2" d="M65.6,89.3c-0.3,0.3-0.6,0.6-0.8,1c2.9-2.3,7.1-3.7,12.5-4.2c1.9-0.2,3.9-0.3,5.9-0.3c3.5,0,7.2,0.3,11.1,0.8
			l0.7,8c0.7,0,1.4,0,2.2,0l-0.9-9.9c-3.8-0.5-7.5-0.8-11.1-0.8c-2,0-4,0.1-5.9,0.3C73.1,84.7,68.5,86.4,65.6,89.3z"/>
		<path class="st2" d="M119.4,16.5c1.6-0.5,3.5-0.7,5.5-0.7c1.7,0,3.6,0.2,5.6,0.6c4.1,0.8,7.6,1.8,10.5,3c2.6,1,4.7,2.1,6.4,3.1
			l-1.3,7c0.5,0.2,1,0.4,1.5,0.5l1.8-9.5c-1.6-1-3.8-2.1-6.4-3.1c-2.9-1.2-6.4-2.2-10.5-3c-2-0.4-3.9-0.6-5.6-0.6
			c-2,0-3.8,0.3-5.5,0.7c-2.3,0.7-4.4,2.2-6.3,4.4C116.5,17.7,117.9,16.9,119.4,16.5z"/>
		<path class="st2" d="M127.3,124.1c-2.9-0.3-5-1-6.4-2.2c-1.4-1.2-2.3-3-2.6-5.5c-0.3-2.3-0.2-5.6,0.3-10c0.5-4.7,1.1-8,2-10.2
			c0.3-0.9,0.7-1.7,1.2-2.3c-1.3,0.8-2.4,2.3-3.2,4.3c-0.9,2.2-1.5,5.6-2,10.2c-0.5,4.4-0.5,7.7-0.3,10c0.3,2.4,1.2,4.3,2.6,5.5
			c1.4,1.2,3.5,1.9,6.4,2.2c5.8,0.6,10.6,0.9,14,0.9c0.1,0,0.2,0,0.3,0l-0.8,8.1c0.6-0.1,1.3-0.2,1.8-0.4l1-9.7c-0.1,0-0.2,0-0.3,0
			C137.9,125,133.2,124.7,127.3,124.1z"/>
		<path class="st2" d="M64.5,16.3c3-1.3,7.1-1.9,12-1.9c0.5,0,1,0,1.5,0c5.6,0.1,10.1,1,13.4,2.6c3.2,1.5,5.6,4.3,7.2,8.3
			c1.6,4.1,2.4,10.1,2.2,17.8c-0.2,7.7-1.2,13.7-3,17.7c-0.7,1.5-1.5,2.9-2.5,4c1.8-1.5,3.3-3.5,4.5-6c1.8-4,2.9-10,3-17.7
			c0.2-7.7-0.5-13.7-2.2-17.8c-1.6-4-4-6.8-7.2-8.3c-3.3-1.6-7.8-2.4-13.4-2.6c-0.5,0-1,0-1.5,0c-4.9,0-8.9,0.6-12,1.9
			c-2,0.8-3.6,2.1-5.1,3.9C62.4,17.4,63.4,16.8,64.5,16.3z"/>
		<path class="st2" d="M102,119.1c-0.4-4.3-2-7.7-4.8-10.1c-2.4-2.1-5.5-3.1-9.4-3.1c-0.7,0-1.4,0-2.1,0.1l-5,0.4c-0.4,0-0.7,0-1,0
			c-3.2,0-5.1-1.6-5.4-4.4l-0.1-0.8c-0.1-1.1,0.1-2,0.4-2.6c-0.1,0.1-0.2,0.1-0.4,0.2c-1,0.6-2.3,1.9-2,4.4l0.1,0.8
			c0.2,2.9,2.2,4.4,5.4,4.4c0.3,0,0.7,0,1,0l5-0.4c0.7-0.1,1.4-0.1,2.1-0.1c3.9,0,7,1,9.4,3.1c2.8,2.4,4.4,5.8,4.8,10.1l0.2,2.5
			c0.4,4.5-0.1,8-1.4,10.6c-0.3,0.7-0.7,1.3-1.2,1.8c1.3-1,2.4-2.3,3.2-3.8c1.3-2.5,1.8-6.1,1.4-10.6L102,119.1z"/>
		<path class="st2" d="M30.8,18.8c0.8-0.1,1.6-0.1,2.4-0.1c4,0,7.3,1,9.9,3.1c3,2.4,4.9,7,5.5,13.7c0.4,4.2,0,7.5-1,9.7
			c-0.5,1.1-1.1,2-1.9,3c1.7-1.4,3-3,3.9-5c1.1-2.3,1.4-5.5,1-9.7c-0.6-6.7-2.5-11.3-5.5-13.7c-2.6-2-5.9-3.1-9.9-3.1
			c-0.8,0-1.6,0-2.4,0.1L9.6,19l0.2,1.8L30.8,18.8z"/>
		<path class="st2" d="M42.8,51L42,51.5l10.6,18.8l3-0.3L44.2,49.8C43.7,50.2,43.3,50.6,42.8,51z"/>
		
			<rect x="24.5" y="54.9" transform="matrix(0.9958 -9.130464e-02 9.130464e-02 0.9958 -5.7216 2.5999)" class="st2" width="2.2" height="17.8"/>
		<path class="st2" d="M34.8,42.3c0.1-0.1,0.2-0.3,0.3-0.5c-0.7,0.4-1.6,0.6-2.6,0.7l-7.7,0.7l-1.1-12.3l-2.2,0.2l1.3,14.2l7.7-0.7
			C32.5,44.4,33.9,43.6,34.8,42.3z"/>
	</g>
	<g>
		<defs>
			<path id="SVGID_1_" d="M8.5,18.1l24.2-2.2c5.4-0.5,9.7,0.6,13,3.2c3.3,2.6,5.2,7.4,5.9,14.4c0.4,4.4,0,7.8-1.1,10.2
				c-1.1,2.4-2.9,4.5-5.2,6.1l11.9,21.1l-15.1,1.4l-9.7-18.8l-5.7,0.5l1.8,19.6l-14.8,1.4L8.5,18.1z M32.4,41.6
				c1.7-0.2,2.9-0.8,3.6-1.8c0.7-1.1,1-2.7,0.8-4.9c-0.2-2.2-0.7-3.7-1.6-4.5c-0.9-0.8-2.2-1.1-3.9-1L24.5,30l1.1,12.2L32.4,41.6z
				 M64.8,66.8c-3.4-1.6-6-4.6-7.7-8.8c-1.7-4.2-2.4-10.3-2.2-18.2c0.2-7.9,1.2-13.9,3.1-18.1c1.9-4.2,4.6-7,8.1-8.4
				c3.5-1.4,8.1-2.1,13.9-2c5.8,0.1,10.4,1,13.8,2.6c3.4,1.6,6,4.6,7.7,8.8c1.7,4.2,2.4,10.3,2.2,18.2c-0.2,7.9-1.2,13.9-3.1,18.1
				c-1.9,4.2-4.6,7-8.1,8.4c-3.5,1.4-8.1,2.1-13.9,2C72.8,69.3,68.2,68.4,64.8,66.8z M84.9,55c1.3-0.8,2.3-2.3,2.9-4.5
				c0.6-2.2,0.9-5.5,1.1-9.8c0.1-4.5-0.1-7.8-0.5-10c-0.5-2.2-1.3-3.7-2.7-4.5c-1.3-0.8-3.3-1.3-6-1.3c-2.7-0.1-4.7,0.3-6,1
				c-1.4,0.8-2.3,2.2-2.9,4.4c-0.6,2.2-0.9,5.5-1,10c-0.1,4.4,0.1,7.6,0.6,9.8c0.5,2.2,1.4,3.8,2.6,4.6c1.3,0.9,3.3,1.3,5.9,1.4
				C81.6,56.2,83.6,55.8,84.9,55z M110.7,65.9c-2.6-2.1-4.4-5.4-5.2-9.8c-0.8-4.5-0.5-10.6,1-18.3c1.4-7.5,3.4-13.1,5.9-17
				c2.5-3.8,5.4-6.2,8.6-7.2c3.3-1,7.1-1.1,11.5-0.2c4.2,0.8,7.7,1.8,10.7,3c3,1.2,5.3,2.4,7.1,3.6l-2.2,11.4
				c-1.6-0.7-3.7-1.4-6.3-2.2c-2.6-0.8-5.5-1.4-8.6-2.1c-2.5-0.5-4.4-0.5-5.8,0c-1.4,0.5-2.6,1.8-3.6,3.8c-1,2.1-1.9,5.3-2.8,9.8
				c-0.8,4.3-1.2,7.5-1.1,9.7c0.1,2.2,0.7,3.9,1.8,5c1.1,1.1,3,2,5.7,2.5c6.6,1.3,11.6,2,15.1,2.2l-2.2,11.4
				c-4.3,0.8-10.6,0.5-18.9-1.1C117,69.4,113.4,68,110.7,65.9z M156.1,8l14.7,2.6l-3.9,21.8l5.8,1l12.9-20.2l15.6,2.8l-18,26
				l8.6,30.3l-15.6-2.8l-5.9-22.9l-5.8-1l-3.8,21.2L146,64.1L156.1,8z M196.6,76.7c-0.9-0.1-1.5-0.1-1.8-0.2l-0.6-4.7
				c0.9-0.1,1.5-0.3,1.8-0.5c0.3-0.3,0.4-0.7,0.4-1.4l-0.2-1.4l-0.8,0.1c-0.6,0.1-1,0-1.4-0.3c-0.4-0.3-0.6-0.7-0.7-1.3l-1-7.4
				c-0.2-1.4,0.4-2.1,1.6-2.3l8.5-1.1c1.2-0.2,1.9,0.4,2.1,1.8l1.5,11.2c0.3,2.4-0.1,4.2-1.4,5.4c-1.2,1.1-2.9,1.9-4.8,2.1
				C198.6,76.7,197.6,76.7,196.6,76.7z M210.6,17.1l24.4-5.7c3.1-0.7,6-0.9,8.6-0.5c2.7,0.4,5.2,1.8,7.5,4.4s4.1,6.6,5.4,12.1
				c1.9,8,1.6,13.8-0.8,17.3c-2.4,3.5-5.9,5.8-10.5,6.9c-2.2,0.5-4.6,0.8-7,0.9c-2.4,0.1-3.8,0.1-4,0.1l3.9,16.7l-14.5,3.4
				L210.6,17.1z M239.9,39c1.4-0.3,2.3-1.2,2.6-2.5c0.3-1.3,0.2-3.2-0.4-5.7c-0.6-2.3-1.3-4-2.2-5.1c-0.9-1-2-1.4-3.4-1.1l-8.4,2
				l3.4,14.3L239.9,39z M269.7,17.2l18.5,1.6l12,58.3l-15.4-1.3l-1.5-9.2L266.2,65l-3,8.8L248,72.6L269.7,17.2z M281,52.9l-3.3-22.3
				L270.8,52L281,52.9z M297.7,9.9l25-1.7c3.2-0.2,6,0.1,8.6,0.9c2.6,0.8,4.8,2.6,6.7,5.5c1.9,2.9,3,7.1,3.4,12.8
				c0.6,8.2-0.6,13.9-3.6,16.9c-2.9,3.1-6.8,4.8-11.5,5.1c-2.3,0.2-4.7,0.1-7.1-0.2c-2.4-0.3-3.7-0.5-4-0.5l1.2,17.2l-14.9,1
				L297.7,9.9z M323.1,36.3c1.5-0.1,2.5-0.8,3-2c0.5-1.2,0.7-3.1,0.5-5.7c-0.2-2.4-0.6-4.2-1.3-5.3c-0.7-1.2-1.8-1.7-3.2-1.6
				l-8.6,0.6l1,14.6L323.1,36.3z M340.4,62.5l3.2-29.6c0.5-5,2.3-8.5,5.3-10.4c3-1.9,6.4-2.6,10.3-2.2c9.2,1,17.5,2.2,24.9,3.8
				l-1.3,12.5l-20.5-2.2c-2.6-0.3-4,0.7-4.3,2.9l-0.5,4.7l20.5,3l-1.3,11.8l-20.6-1.4l-0.5,4.3c-0.1,1.3,0,2.3,0.6,3.1
				c0.5,0.7,1.3,1.1,2.3,1.2l21.1,2.2l-1.3,12.5c-3.2,0.1-7,0.1-11.5-0.2c-4.5-0.2-8.8-0.6-12.8-1C343.9,76.6,339.4,71.6,340.4,62.5
				z M388,14.1l24.3-0.5c5.4-0.1,9.7,1.2,12.8,4.1c3.1,2.8,4.7,7.7,4.9,14.8c0.1,4.4-0.5,7.8-1.8,10.1c-1.3,2.4-3.2,4.3-5.6,5.8
				L433,70.2l-15.1,0.3L409.4,51l-5.7,0.1l0.4,19.7l-14.9,0.3L388,14.1z M410.2,39.2c1.7,0,2.9-0.6,3.7-1.6c0.8-1,1.2-2.6,1.1-4.8
				c0-2.2-0.5-3.7-1.3-4.6c-0.8-0.9-2.1-1.3-3.8-1.2l-6.8,0.1l0.3,12.2L410.2,39.2z M65.4,140.3l-1-11.8c5.1,0,11-0.3,17.6-0.9
				c2.6-0.2,4.5-0.7,5.7-1.4c1.2-0.7,1.7-1.8,1.6-3.2l-0.1-0.9c-0.1-1.1-0.5-1.9-1.4-2.4c-0.8-0.5-1.8-0.7-2.9-0.6l-4.1,0.4
				c-6.1,0.5-10.7-0.4-13.9-2.8c-3.2-2.4-5.1-6.6-5.6-12.6l-0.2-2.5c-0.5-5.6,0.8-9.9,3.9-13c3.1-3.1,7.8-4.9,14.2-5.5
				c5.6-0.5,11.6-0.3,17.9,0.7l1,11.8c-5.8,0-11.1,0.3-16,0.7c-2.4,0.2-4.3,0.7-5.4,1.4c-1.2,0.7-1.7,1.9-1.5,3.5l0.1,0.8
				c0.2,2.6,2,3.8,5.3,3.5l5-0.4c5.1-0.5,9.2,0.6,12.3,3.2c3,2.6,4.7,6.2,5.2,10.8l0.2,2.5c0.4,4.7-0.1,8.4-1.5,11.1
				c-1.4,2.7-3.6,4.7-6.5,5.9c-2.9,1.2-6.7,2-11.4,2.4C77.4,141.5,71.2,141.3,65.4,140.3z M111.4,132.5c-2.8-1.8-4.8-5-6-9.3
				c-1.2-4.4-1.4-10.5-0.6-18.4c0.8-7.6,2.3-13.4,4.4-17.4c2.1-4,4.8-6.7,8-7.9c3.2-1.3,7-1.7,11.5-1.2c4.2,0.4,7.9,1.1,10.9,2.1
				c3.1,0.9,5.5,1.9,7.4,2.9l-1.2,11.5c-1.6-0.5-3.8-1.1-6.5-1.6c-2.7-0.5-5.6-1-8.7-1.3c-2.5-0.3-4.4-0.1-5.8,0.5
				c-1.4,0.6-2.4,2-3.2,4.1c-0.8,2.1-1.5,5.5-1.9,10c-0.4,4.3-0.5,7.6-0.3,9.8c0.3,2.2,1,3.8,2.2,4.8c1.2,1,3.2,1.7,5.9,2
				c6.7,0.7,11.8,1,15.3,0.9l-1.2,11.5c-4.2,1.2-10.5,1.4-18.9,0.5C117.9,135.5,114.2,134.4,111.4,132.5z M149.3,89.6l14.9-0.8
				l3.2,57l-14.9,0.8L149.3,89.6z M171.9,139.9l-0.6-11.8c5.1,0.2,11,0.1,17.6-0.3c2.6-0.1,4.5-0.5,5.7-1.2c1.2-0.7,1.8-1.7,1.7-3.1
				l0-0.9c-0.1-1.1-0.5-1.9-1.3-2.4c-0.8-0.5-1.8-0.8-2.9-0.7l-4.1,0.2c-6.1,0.3-10.7-0.8-13.8-3.3c-3.1-2.5-4.9-6.8-5.2-12.8
				l-0.1-2.5c-0.3-5.6,1.1-9.9,4.3-12.8c3.2-3,8-4.7,14.4-5c5.6-0.3,11.6,0.1,17.9,1.3l0.6,11.8c-5.8-0.2-11.1-0.1-16,0.2
				c-2.5,0.1-4.3,0.5-5.5,1.2c-1.2,0.7-1.7,1.8-1.7,3.4l0,0.8c0.1,2.6,1.9,3.8,5.2,3.6l5.1-0.3c5.2-0.3,9.2,0.9,12.2,3.7
				c2.9,2.7,4.5,6.4,4.8,11l0.1,2.5c0.3,4.7-0.4,8.4-1.9,11.1c-1.5,2.7-3.7,4.6-6.7,5.7c-2.9,1.1-6.8,1.8-11.5,2
				C183.9,141.5,177.7,141.1,171.9,139.9z M212.3,135l1.4-11.7c5,1,10.8,1.9,17.4,2.7c2.6,0.3,4.5,0.2,5.8-0.2
				c1.3-0.4,2-1.4,2.2-2.8l0.1-0.9c0.1-1.1-0.2-1.9-0.9-2.6c-0.7-0.7-1.6-1.1-2.7-1.2l-4-0.5c-6.1-0.7-10.4-2.6-13.1-5.6
				c-2.7-3-3.7-7.5-3-13.4l0.3-2.5c0.6-5.5,2.8-9.5,6.4-11.9c3.6-2.4,8.6-3.3,15.1-2.5c5.6,0.6,11.4,2.1,17.4,4.3l-1.4,11.7
				c-5.6-1.1-10.9-2-15.8-2.5c-2.4-0.3-4.3-0.2-5.6,0.2c-1.3,0.4-2,1.5-2.2,3.1l-0.1,0.8c-0.3,2.6,1.2,4.1,4.5,4.5l5,0.6
				c5.1,0.6,8.9,2.5,11.4,5.6c2.4,3.2,3.4,7,2.9,11.6l-0.3,2.5c-0.5,4.7-1.8,8.2-3.7,10.6c-1.9,2.4-4.4,3.9-7.5,4.5
				c-3.1,0.6-7,0.6-11.6,0.1C223.7,138.5,217.7,137.1,212.3,135z M269.6,141.5c-3.6-1.3-6.4-4-8.4-8c-2.1-4.1-3.4-10-3.9-17.9
				c-0.5-7.9-0.1-14,1.4-18.3c1.5-4.3,3.9-7.4,7.3-9.1c3.3-1.8,7.9-2.9,13.7-3.3c5.8-0.4,10.4,0,14,1.3c3.6,1.3,6.4,4,8.4,8
				c2.1,4.1,3.4,10,3.9,17.9c0.5,7.9,0.1,14-1.4,18.3c-1.5,4.3-3.9,7.4-7.3,9.1c-3.3,1.8-7.9,2.9-13.7,3.3
				C277.8,143.2,273.2,142.8,269.6,141.5z M288.5,127.8c1.2-0.9,2.1-2.5,2.4-4.7c0.4-2.2,0.4-5.5,0.1-9.9c-0.3-4.5-0.8-7.8-1.5-9.9
				c-0.7-2.1-1.7-3.6-3.1-4.3c-1.4-0.7-3.4-1-6.1-0.8c-2.7,0.2-4.6,0.7-5.9,1.6c-1.3,0.9-2.1,2.4-2.5,4.6c-0.4,2.2-0.4,5.6-0.1,10.1
				c0.3,4.3,0.8,7.6,1.5,9.8c0.7,2.2,1.7,3.6,3.1,4.4c1.4,0.8,3.4,1,6,0.9C285.3,129.3,287.3,128.8,288.5,127.8z M315.4,85.4
				l24.1,3.6c5.4,0.8,9.3,2.8,11.9,6.1c2.6,3.3,3.3,8.4,2.3,15.4c-0.6,4.4-1.8,7.6-3.5,9.7c-1.7,2.1-3.8,3.7-6.5,4.7l6.6,23.3
				l-15-2.2l-5-20.6l-5.6-0.8l-2.9,19.4l-14.7-2.2L315.4,85.4z M333.1,113.9c1.7,0.2,3-0.1,3.9-0.9c1-0.9,1.6-2.4,1.9-4.6
				c0.3-2.2,0.2-3.8-0.5-4.7c-0.7-1-1.8-1.6-3.6-1.8l-6.7-1l-1.8,12.1L333.1,113.9z M370.9,81.4l15.7,3.9l-12.9,42.8l-11.7-2.9
				L370.9,81.4z M357.8,141.5c-0.3-0.4-0.3-0.9-0.2-1.5l2.3-9.5c0.2-0.6,0.4-1.1,0.9-1.4c0.4-0.3,0.9-0.3,1.6-0.2l9.1,2.3
				c1.3,0.3,1.9,1.2,1.5,2.5l-2.3,9.5c-0.3,1.2-1.1,1.7-2.5,1.4l-9.1-2.3C358.5,142.2,358,141.9,357.8,141.5z"/>
		</defs>
		<clipPath id="SVGID_2_">
			<use xlink:href="#SVGID_1_"  style="overflow:visible;"/>
		</clipPath>
		<linearGradient id="SVGID_3_" gradientUnits="userSpaceOnUse" x1="226.6905" y1="37.0803" x2="225.6295" y2="111.8814">
			<stop  offset="0.1249" style="stop-color:#F69D1D"/>
			<stop  offset="0.2755" style="stop-color:#F47421"/>
			<stop  offset="0.6196" style="stop-color:#F47421"/>
			<stop  offset="0.9296" style="stop-color:#F69D1D"/>
		</linearGradient>
		<path class="st3" d="M-34,61.3c0,0,92-36.1,185.8-18.7s282.6-2.8,311.1-22.3s51.5,169.1-29.7,126S78.4,94.3-14.6,150
			C-49.7,170.9-34,61.3-34,61.3z"/>
	</g>
</g>
</svg>
