<?xml version="1.0" encoding="utf-8"?>
<!-- Generator: Adobe Illustrator 21.1.0, SVG Export Plug-In . SVG Version: 6.00 Build 0)  -->
<svg version="1.1" id="Layer_1" xmlns="http://www.w3.org/2000/svg" xmlns:xlink="http://www.w3.org/1999/xlink" x="0px" y="0px"
	 viewBox="0 0 444.4 160" style="enable-background:new 0 0 444.4 160;" xml:space="preserve">
<style type="text/css">
	.st0{fill:#3E016D;stroke:#3E016D;stroke-width:9;stroke-linecap:round;stroke-linejoin:round;stroke-miterlimit:10;}
	.st1{fill:#F77300;}
	.st2{fill:#F7A700;}
	.st3{clip-path:url(#SVGID_2_);fill:url(#SVGID_3_);}
	.st4{clip-path:url(#SVGID_5_);}
	.st5{fill:url(#SVGID_6_);}
</style>
<g>
	<path class="st0" d="M10.5,20.4l24.2-2.2c5.4-0.5,9.7,0.6,13,3.2c3.3,2.6,5.2,7.4,5.9,14.4c0.4,4.4,0,7.8-1.1,10.2
		c-1.1,2.4-2.9,4.5-5.2,6.1l11.9,21.1l-15.1,1.4l-9.7-18.8l-5.7,0.5l1.8,19.6l-14.8,1.4L10.5,20.4z M34.4,43.9
		c1.7-0.2,2.9-0.8,3.6-1.8c0.7-1.1,1-2.7,0.8-4.9c-0.2-2.2-0.7-3.7-1.6-4.5c-0.9-0.8-2.2-1.1-3.9-1l-6.7,0.6l1.1,12.2L34.4,43.9z
		 M66.8,69.1c-3.4-1.6-6-4.6-7.7-8.8c-1.7-4.2-2.4-10.3-2.2-18.2c0.2-7.9,1.2-13.9,3.1-18.1c1.9-4.2,4.6-7,8.1-8.4
		c3.5-1.4,8.1-2.1,13.9-2c5.8,0.1,10.4,1,13.8,2.6c3.4,1.6,6,4.6,7.7,8.8c1.7,4.2,2.4,10.3,2.2,18.2c-0.2,7.9-1.2,13.9-3.1,18.1
		c-1.9,4.2-4.6,7-8.1,8.4c-3.5,1.4-8.1,2.1-13.9,2C74.8,71.6,70.2,70.8,66.8,69.1z M86.9,57.3c1.3-0.8,2.3-2.3,2.9-4.5
		c0.6-2.2,0.9-5.5,1.1-9.8c0.1-4.5-0.1-7.8-0.5-10c-0.5-2.2-1.3-3.7-2.7-4.5c-1.3-0.8-3.3-1.3-6-1.3c-2.7-0.1-4.7,0.3-6,1
		c-1.4,0.8-2.3,2.2-2.9,4.4c-0.6,2.2-0.9,5.5-1,10c-0.1,4.4,0.1,7.6,0.6,9.8c0.5,2.2,1.4,3.8,2.6,4.6c1.3,0.9,3.3,1.3,5.9,1.4
		C83.6,58.5,85.6,58.1,86.9,57.3z M112.7,68.2c-2.6-2.1-4.4-5.4-5.2-9.8c-0.8-4.5-0.5-10.6,1-18.3c1.4-7.5,3.4-13.1,5.9-17
		c2.5-3.8,5.4-6.2,8.6-7.2c3.3-1,7.1-1.1,11.5-0.2c4.2,0.8,7.7,1.8,10.7,3c3,1.2,5.3,2.4,7.1,3.6l-2.2,11.4
		c-1.6-0.7-3.7-1.4-6.3-2.2c-2.6-0.8-5.5-1.4-8.6-2.1c-2.5-0.5-4.4-0.5-5.8,0c-1.4,0.5-2.6,1.8-3.6,3.8c-1,2.1-1.9,5.3-2.8,9.8
		c-0.8,4.3-1.2,7.5-1.1,9.7c0.1,2.2,0.7,3.9,1.8,5c1.1,1.1,3,2,5.7,2.5c6.6,1.3,11.6,2,15.1,2.2l-2.2,11.4
		c-4.3,0.8-10.6,0.5-18.9-1.1C119,71.8,115.4,70.3,112.7,68.2z M158.1,10.3l14.7,2.6l-3.9,21.8l5.8,1l12.9-20.2l15.6,2.8l-18,26
		l8.6,30.3l-15.6-2.8l-5.9-22.9l-5.8-1l-3.8,21.2L148,66.4L158.1,10.3z M198.6,79c-0.9-0.1-1.5-0.1-1.8-0.2l-0.6-4.7
		c0.9-0.1,1.5-0.3,1.8-0.5c0.3-0.2,0.4-0.7,0.4-1.4l-0.2-1.4l-0.8,0.1c-0.6,0.1-1,0-1.4-0.3c-0.4-0.3-0.6-0.7-0.7-1.3l-1-7.4
		c-0.2-1.4,0.4-2.1,1.6-2.3l8.5-1.1c1.2-0.2,1.9,0.4,2.1,1.8l1.5,11.2c0.3,2.4-0.1,4.2-1.4,5.4c-1.2,1.1-2.9,1.9-4.8,2.1
		C200.6,79,199.6,79,198.6,79z M212.6,19.4l24.4-5.7c3.1-0.7,6-0.9,8.6-0.5c2.7,0.4,5.2,1.8,7.5,4.4s4.1,6.6,5.4,12.1
		c1.9,8,1.6,13.8-0.8,17.3c-2.4,3.5-5.9,5.8-10.5,6.9c-2.2,0.5-4.6,0.8-7,0.9c-2.4,0.1-3.8,0.1-4,0.1l3.9,16.7l-14.5,3.4L212.6,19.4
		z M241.9,41.3c1.4-0.3,2.3-1.2,2.6-2.5c0.3-1.3,0.2-3.2-0.4-5.7c-0.6-2.3-1.3-4-2.2-5.1c-0.9-1-2-1.4-3.4-1.1l-8.4,2l3.4,14.3
		L241.9,41.3z M271.7,19.5l18.5,1.6l12,58.3L286.8,78l-1.5-9.2l-17.1-1.5l-3,8.8L250,74.9L271.7,19.5z M283,55.2l-3.3-22.3
		l-6.9,21.4L283,55.2z M299.7,12.2l25-1.7c3.2-0.2,6,0.1,8.6,0.9c2.6,0.8,4.8,2.6,6.7,5.5c1.9,2.9,3,7.1,3.4,12.8
		c0.6,8.2-0.6,13.9-3.6,16.9c-2.9,3.1-6.8,4.8-11.5,5.1c-2.3,0.2-4.7,0.1-7.1-0.2c-2.4-0.3-3.7-0.5-4-0.5l1.2,17.2l-14.9,1
		L299.7,12.2z M325.1,38.6c1.5-0.1,2.5-0.8,3-2c0.5-1.2,0.7-3.1,0.5-5.7c-0.2-2.4-0.6-4.2-1.3-5.3c-0.7-1.2-1.8-1.7-3.2-1.6
		l-8.6,0.6l1,14.6L325.1,38.6z M342.4,64.9l3.2-29.6c0.5-5,2.3-8.5,5.3-10.4c3-1.9,6.4-2.6,10.3-2.2c9.2,1,17.5,2.2,24.9,3.8
		L384.8,39l-20.5-2.2c-2.6-0.3-4,0.7-4.3,2.9l-0.5,4.7l20.5,3l-1.3,11.8l-20.6-1.4l-0.5,4.3c-0.1,1.3,0,2.3,0.6,3.1
		c0.5,0.7,1.3,1.1,2.3,1.2l21.1,2.2l-1.3,12.5c-3.2,0.1-7,0.1-11.5-0.2c-4.5-0.2-8.8-0.6-12.8-1C345.9,78.9,341.4,73.9,342.4,64.9z
		 M390,16.4l24.3-0.5c5.4-0.1,9.7,1.2,12.8,4.1c3.1,2.8,4.7,7.7,4.9,14.8c0.1,4.4-0.5,7.8-1.8,10.1c-1.3,2.4-3.2,4.3-5.6,5.8
		L435,72.5l-15.1,0.3l-8.4-19.5l-5.7,0.1l0.4,19.7l-14.9,0.3L390,16.4z M412.2,41.5c1.7,0,2.9-0.6,3.7-1.6c0.8-1,1.2-2.6,1.1-4.8
		c0-2.2-0.5-3.7-1.3-4.6c-0.8-0.9-2.1-1.3-3.8-1.2l-6.8,0.1l0.3,12.2L412.2,41.5z M45.4,142.6l-1-11.8c5.1,0,11-0.3,17.6-0.9
		c2.6-0.2,4.5-0.7,5.7-1.4c1.2-0.7,1.7-1.8,1.6-3.2l-0.1-0.9c-0.1-1.1-0.5-1.9-1.4-2.4c-0.8-0.5-1.8-0.7-2.9-0.6l-4.1,0.4
		c-6.1,0.5-10.7-0.4-13.9-2.8c-3.2-2.4-5.1-6.6-5.6-12.6l-0.2-2.5c-0.5-5.6,0.8-9.9,3.9-13c3.1-3.1,7.8-4.9,14.2-5.5
		c5.6-0.5,11.6-0.3,17.9,0.7l1,11.8c-5.8,0-11.1,0.3-16,0.7c-2.4,0.2-4.3,0.7-5.4,1.4c-1.2,0.7-1.7,1.9-1.5,3.5l0.1,0.8
		c0.2,2.6,2,3.8,5.3,3.5l5-0.4c5.1-0.5,9.2,0.6,12.3,3.2c3,2.6,4.7,6.2,5.2,10.8l0.2,2.5c0.4,4.7-0.1,8.4-1.5,11.1
		c-1.4,2.7-3.6,4.7-6.5,5.9c-2.9,1.2-6.7,2-11.4,2.4C57.4,143.8,51.2,143.6,45.4,142.6z M91.4,134.9c-2.8-1.8-4.8-5-6-9.3
		c-1.2-4.4-1.4-10.5-0.6-18.4c0.8-7.6,2.3-13.4,4.4-17.4c2.1-4,4.8-6.7,8-7.9c3.2-1.3,7-1.7,11.5-1.2c4.2,0.4,7.9,1.1,10.9,2.1
		c3.1,0.9,5.5,1.9,7.4,2.9l-1.2,11.5c-1.6-0.5-3.8-1.1-6.5-1.6c-2.7-0.5-5.6-1-8.7-1.3c-2.5-0.3-4.4-0.1-5.8,0.5
		c-1.4,0.6-2.4,2-3.2,4.1c-0.8,2.1-1.5,5.5-1.9,10c-0.4,4.3-0.5,7.6-0.3,9.8c0.3,2.2,1,3.8,2.2,4.8c1.2,1,3.2,1.7,5.9,2
		c6.7,0.7,11.8,1,15.3,0.9l-1.2,11.5c-4.2,1.2-10.5,1.4-18.9,0.5C97.9,137.9,94.2,136.7,91.4,134.9z M129.3,91.9l14.9-0.8l3.2,57
		l-14.9,0.8L129.3,91.9z M151.9,142.2l-0.6-11.8c5.1,0.2,11,0.1,17.6-0.3c2.6-0.1,4.5-0.5,5.7-1.2c1.2-0.7,1.8-1.7,1.7-3.1l0-0.9
		c-0.1-1.1-0.5-1.9-1.3-2.4c-0.8-0.5-1.8-0.8-2.9-0.7L168,122c-6.1,0.3-10.7-0.8-13.8-3.3c-3.1-2.5-4.9-6.8-5.2-12.8l-0.1-2.5
		c-0.3-5.6,1.1-9.9,4.3-12.8c3.2-3,8-4.7,14.4-5c5.6-0.3,11.6,0.1,17.9,1.3l0.6,11.8c-5.8-0.2-11.1-0.1-16,0.2
		c-2.5,0.1-4.3,0.5-5.5,1.2c-1.2,0.7-1.7,1.8-1.7,3.4l0,0.8c0.1,2.6,1.9,3.8,5.2,3.6l5.1-0.3c5.2-0.3,9.2,0.9,12.2,3.7
		c2.9,2.7,4.5,6.4,4.8,11l0.1,2.5c0.3,4.7-0.4,8.4-1.9,11.1c-1.5,2.7-3.7,4.6-6.7,5.7c-2.9,1.1-6.8,1.8-11.5,2
		C163.9,143.8,157.7,143.4,151.9,142.2z M192.3,137.3l1.4-11.7c5,1,10.8,1.9,17.4,2.7c2.6,0.3,4.5,0.2,5.8-0.2
		c1.3-0.4,2-1.4,2.2-2.8l0.1-0.9c0.1-1.1-0.2-1.9-0.9-2.6c-0.7-0.7-1.6-1.1-2.7-1.2l-4-0.5c-6.1-0.7-10.4-2.6-13.1-5.6
		c-2.7-3-3.7-7.5-3-13.4l0.3-2.5c0.6-5.5,2.8-9.5,6.4-11.9c3.6-2.4,8.6-3.3,15.1-2.5c5.6,0.6,11.4,2.1,17.4,4.3l-1.4,11.7
		c-5.6-1.1-10.9-2-15.8-2.5c-2.4-0.3-4.3-0.2-5.6,0.2c-1.3,0.4-2,1.5-2.2,3.1l-0.1,0.8c-0.3,2.6,1.2,4.1,4.5,4.5l5,0.6
		c5.1,0.6,8.9,2.5,11.4,5.6c2.4,3.2,3.4,7,2.9,11.6l-0.3,2.5c-0.5,4.7-1.8,8.2-3.7,10.6c-1.9,2.4-4.4,3.9-7.5,4.5
		c-3.1,0.6-7,0.6-11.6,0.1C203.7,140.8,197.7,139.4,192.3,137.3z M249.6,143.8c-3.6-1.3-6.4-4-8.4-8c-2.1-4.1-3.4-10-3.9-17.9
		c-0.5-7.9-0.1-14,1.4-18.3c1.5-4.3,3.9-7.4,7.3-9.1c3.3-1.8,7.9-2.9,13.7-3.3c5.8-0.4,10.4,0,14,1.3c3.6,1.3,6.4,4,8.4,8
		c2.1,4.1,3.4,10,3.9,17.9c0.5,7.9,0.1,14-1.4,18.3c-1.5,4.3-3.9,7.4-7.3,9.1c-3.3,1.8-7.9,2.9-13.7,3.3
		C257.8,145.6,253.2,145.1,249.6,143.8z M268.5,130.2c1.2-0.9,2.1-2.5,2.4-4.7c0.4-2.2,0.4-5.5,0.1-9.9c-0.3-4.5-0.8-7.8-1.5-9.9
		c-0.7-2.1-1.7-3.6-3.1-4.3c-1.4-0.7-3.4-1-6.1-0.8c-2.7,0.2-4.6,0.7-5.9,1.6c-1.3,0.9-2.1,2.4-2.5,4.6c-0.4,2.2-0.4,5.6-0.1,10.1
		c0.3,4.3,0.8,7.6,1.5,9.8c0.7,2.2,1.7,3.6,3.1,4.4c1.4,0.8,3.4,1,6,0.9C265.3,131.6,267.3,131.1,268.5,130.2z M295.4,87.7l24.1,3.6
		c5.4,0.8,9.3,2.8,11.9,6.1c2.6,3.3,3.3,8.4,2.3,15.4c-0.6,4.4-1.8,7.6-3.5,9.7c-1.7,2.1-3.8,3.7-6.5,4.7l6.6,23.3l-15-2.2l-5-20.6
		l-5.6-0.8l-2.9,19.4l-14.7-2.2L295.4,87.7z M313.1,116.2c1.7,0.2,3-0.1,3.9-0.9c1-0.9,1.6-2.4,1.9-4.6c0.3-2.2,0.2-3.8-0.5-4.7
		c-0.7-1-1.8-1.6-3.6-1.8l-6.7-1l-1.8,12.1L313.1,116.2z M394.4,82.1l16.1,1.7l-6.8,44.2l-11.9-1.2L394.4,82.1z M389.8,143.4
		c-0.3-0.4-0.5-0.9-0.4-1.4l1-9.7c0.1-0.7,0.3-1.2,0.7-1.5c0.4-0.3,0.9-0.5,1.5-0.4l9.4,1c1.4,0.1,2,0.9,1.9,2.3l-1,9.7
		c-0.1,1.3-0.9,1.8-2.3,1.7l-9.4-1C390.5,144,390.1,143.8,389.8,143.4z"/>
	<path class="st1" d="M8.5,18.4l24.2-2.2c5.4-0.5,9.7,0.6,13,3.2c3.3,2.6,5.2,7.4,5.9,14.4c0.4,4.4,0,7.8-1.1,10.2
		c-1.1,2.4-2.9,4.5-5.2,6.1l11.9,21.1l-15.1,1.4l-9.7-18.8l-5.7,0.5l1.8,19.6l-14.8,1.4L8.5,18.4z M32.4,41.9
		c1.7-0.2,2.9-0.8,3.6-1.8c0.7-1.1,1-2.7,0.8-4.9c-0.2-2.2-0.7-3.7-1.6-4.5c-0.9-0.8-2.2-1.1-3.9-1l-6.7,0.6l1.1,12.2L32.4,41.9z
		 M64.8,67.1c-3.4-1.6-6-4.6-7.7-8.8c-1.7-4.2-2.4-10.3-2.2-18.2c0.2-7.9,1.2-13.9,3.1-18.1c1.9-4.2,4.6-7,8.1-8.4
		c3.5-1.4,8.1-2.1,13.9-2c5.8,0.1,10.4,1,13.8,2.6c3.4,1.6,6,4.6,7.7,8.8c1.7,4.2,2.4,10.3,2.2,18.2c-0.2,7.9-1.2,13.9-3.1,18.1
		c-1.9,4.2-4.6,7-8.1,8.4c-3.5,1.4-8.1,2.1-13.9,2C72.8,69.6,68.2,68.8,64.8,67.1z M84.9,55.3c1.3-0.8,2.3-2.3,2.9-4.5
		c0.6-2.2,0.9-5.5,1.1-9.8c0.1-4.5-0.1-7.8-0.5-10c-0.5-2.2-1.3-3.7-2.7-4.5c-1.3-0.8-3.3-1.3-6-1.3c-2.7-0.1-4.7,0.3-6,1
		c-1.4,0.8-2.3,2.2-2.9,4.4c-0.6,2.2-0.9,5.5-1,10c-0.1,4.4,0.1,7.6,0.6,9.8c0.5,2.2,1.4,3.8,2.6,4.6c1.3,0.9,3.3,1.3,5.9,1.4
		C81.6,56.5,83.6,56.1,84.9,55.3z M110.7,66.2c-2.6-2.1-4.4-5.4-5.2-9.8c-0.8-4.5-0.5-10.6,1-18.3c1.4-7.5,3.4-13.1,5.9-17
		c2.5-3.8,5.4-6.2,8.6-7.2c3.3-1,7.1-1.1,11.5-0.2c4.2,0.8,7.7,1.8,10.7,3c3,1.2,5.3,2.4,7.1,3.6l-2.2,11.4
		c-1.6-0.7-3.7-1.4-6.3-2.2c-2.6-0.8-5.5-1.4-8.6-2.1c-2.5-0.5-4.4-0.5-5.8,0c-1.4,0.5-2.6,1.8-3.6,3.8c-1,2.1-1.9,5.3-2.8,9.8
		c-0.8,4.3-1.2,7.5-1.1,9.7c0.1,2.2,0.7,3.9,1.8,5c1.1,1.1,3,2,5.7,2.5c6.6,1.3,11.6,2,15.1,2.2l-2.2,11.4
		c-4.3,0.8-10.6,0.5-18.9-1.1C117,69.8,113.4,68.3,110.7,66.2z M156.1,8.3l14.7,2.6l-3.9,21.8l5.8,1l12.9-20.2l15.6,2.8l-18,26
		l8.6,30.3l-15.6-2.8l-5.9-22.9l-5.8-1l-3.8,21.2L146,64.4L156.1,8.3z M196.6,77c-0.9-0.1-1.5-0.1-1.8-0.2l-0.6-4.7
		c0.9-0.1,1.5-0.3,1.8-0.5c0.3-0.2,0.4-0.7,0.4-1.4l-0.2-1.4l-0.8,0.1c-0.6,0.1-1,0-1.4-0.3c-0.4-0.3-0.6-0.7-0.7-1.3l-1-7.4
		c-0.2-1.4,0.4-2.1,1.6-2.3l8.5-1.1c1.2-0.2,1.9,0.4,2.1,1.8l1.5,11.2c0.3,2.4-0.1,4.2-1.4,5.4c-1.2,1.1-2.9,1.9-4.8,2.1
		C198.6,77,197.6,77,196.6,77z M210.6,17.4l24.4-5.7c3.1-0.7,6-0.9,8.6-0.5c2.7,0.4,5.2,1.8,7.5,4.4s4.1,6.6,5.4,12.1
		c1.9,8,1.6,13.8-0.8,17.3c-2.4,3.5-5.9,5.8-10.5,6.9c-2.2,0.5-4.6,0.8-7,0.9c-2.4,0.1-3.8,0.1-4,0.1l3.9,16.7l-14.5,3.4L210.6,17.4
		z M239.9,39.3c1.4-0.3,2.3-1.2,2.6-2.5c0.3-1.3,0.2-3.2-0.4-5.7c-0.6-2.3-1.3-4-2.2-5.1c-0.9-1-2-1.4-3.4-1.1l-8.4,2l3.4,14.3
		L239.9,39.3z M269.7,17.5l18.5,1.6l12,58.3L284.8,76l-1.5-9.2l-17.1-1.5l-3,8.8L248,72.9L269.7,17.5z M281,53.2l-3.3-22.3
		l-6.9,21.4L281,53.2z M297.7,10.2l25-1.7c3.2-0.2,6,0.1,8.6,0.9c2.6,0.8,4.8,2.6,6.7,5.5c1.9,2.9,3,7.1,3.4,12.8
		c0.6,8.2-0.6,13.9-3.6,16.9c-2.9,3.1-6.8,4.8-11.5,5.1c-2.3,0.2-4.7,0.1-7.1-0.2c-2.4-0.3-3.7-0.5-4-0.5l1.2,17.2l-14.9,1
		L297.7,10.2z M323.1,36.6c1.5-0.1,2.5-0.8,3-2c0.5-1.2,0.7-3.1,0.5-5.7c-0.2-2.4-0.6-4.2-1.3-5.3c-0.7-1.2-1.8-1.7-3.2-1.6
		l-8.6,0.6l1,14.6L323.1,36.6z M340.4,62.9l3.2-29.6c0.5-5,2.3-8.5,5.3-10.4c3-1.9,6.4-2.6,10.3-2.2c9.2,1,17.5,2.2,24.9,3.8
		L382.8,37l-20.5-2.2c-2.6-0.3-4,0.7-4.3,2.9l-0.5,4.7l20.5,3l-1.3,11.8l-20.6-1.4l-0.5,4.3c-0.1,1.3,0,2.3,0.6,3.1
		c0.5,0.7,1.3,1.1,2.3,1.2l21.1,2.2l-1.3,12.5c-3.2,0.1-7,0.1-11.5-0.2c-4.5-0.2-8.8-0.6-12.8-1C343.9,76.9,339.4,71.9,340.4,62.9z
		 M388,14.4l24.3-0.5c5.4-0.1,9.7,1.2,12.8,4.1c3.1,2.8,4.7,7.7,4.9,14.8c0.1,4.4-0.5,7.8-1.8,10.1c-1.3,2.4-3.2,4.3-5.6,5.8
		L433,70.5l-15.1,0.3l-8.4-19.5l-5.7,0.1l0.4,19.7l-14.9,0.3L388,14.4z M410.2,39.5c1.7,0,2.9-0.6,3.7-1.6c0.8-1,1.2-2.6,1.1-4.8
		c0-2.2-0.5-3.7-1.3-4.6c-0.8-0.9-2.1-1.3-3.8-1.2l-6.8,0.1l0.3,12.2L410.2,39.5z M43.4,140.6l-1-11.8c5.1,0,11-0.3,17.6-0.9
		c2.6-0.2,4.5-0.7,5.7-1.4c1.2-0.7,1.7-1.8,1.6-3.2l-0.1-0.9c-0.1-1.1-0.5-1.9-1.4-2.4c-0.8-0.5-1.8-0.7-2.9-0.6l-4.1,0.4
		c-6.1,0.5-10.7-0.4-13.9-2.8c-3.2-2.4-5.1-6.6-5.6-12.6l-0.2-2.5c-0.5-5.6,0.8-9.9,3.9-13c3.1-3.1,7.8-4.9,14.2-5.5
		c5.6-0.5,11.6-0.3,17.9,0.7l1,11.8c-5.8,0-11.1,0.3-16,0.7c-2.4,0.2-4.3,0.7-5.4,1.4c-1.2,0.7-1.7,1.9-1.5,3.5l0.1,0.8
		c0.2,2.6,2,3.8,5.3,3.5l5-0.4c5.1-0.5,9.2,0.6,12.3,3.2c3,2.6,4.7,6.2,5.2,10.8l0.2,2.5c0.4,4.7-0.1,8.4-1.5,11.1
		c-1.4,2.7-3.6,4.7-6.5,5.9c-2.9,1.2-6.7,2-11.4,2.4C55.4,141.8,49.2,141.6,43.4,140.6z M89.4,132.9c-2.8-1.8-4.8-5-6-9.3
		c-1.2-4.4-1.4-10.5-0.6-18.4c0.8-7.6,2.3-13.4,4.4-17.4c2.1-4,4.8-6.7,8-7.9c3.2-1.3,7-1.7,11.5-1.2c4.2,0.4,7.9,1.1,10.9,2.1
		c3.1,0.9,5.5,1.9,7.4,2.9l-1.2,11.5c-1.6-0.5-3.8-1.1-6.5-1.6c-2.7-0.5-5.6-1-8.7-1.3c-2.5-0.3-4.4-0.1-5.8,0.5
		c-1.4,0.6-2.4,2-3.2,4.1c-0.8,2.1-1.5,5.5-1.9,10c-0.4,4.3-0.5,7.6-0.3,9.8c0.3,2.2,1,3.8,2.2,4.8c1.2,1,3.2,1.7,5.9,2
		c6.7,0.7,11.8,1,15.3,0.9l-1.2,11.5c-4.2,1.2-10.5,1.4-18.9,0.5C95.9,135.9,92.2,134.7,89.4,132.9z M127.3,89.9l14.9-0.8l3.2,57
		l-14.9,0.8L127.3,89.9z M149.9,140.2l-0.6-11.8c5.1,0.2,11,0.1,17.6-0.3c2.6-0.1,4.5-0.5,5.7-1.2c1.2-0.7,1.8-1.7,1.7-3.1l0-0.9
		c-0.1-1.1-0.5-1.9-1.3-2.4c-0.8-0.5-1.8-0.8-2.9-0.7L166,120c-6.1,0.3-10.7-0.8-13.8-3.3c-3.1-2.5-4.9-6.8-5.2-12.8l-0.1-2.5
		c-0.3-5.6,1.1-9.9,4.3-12.8c3.2-3,8-4.7,14.4-5c5.6-0.3,11.6,0.1,17.9,1.3l0.6,11.8c-5.8-0.2-11.1-0.1-16,0.2
		c-2.5,0.1-4.3,0.5-5.5,1.2c-1.2,0.7-1.7,1.8-1.7,3.4l0,0.8c0.1,2.6,1.9,3.8,5.2,3.6l5.1-0.3c5.2-0.3,9.2,0.9,12.2,3.7
		c2.9,2.7,4.5,6.4,4.8,11l0.1,2.5c0.3,4.7-0.4,8.4-1.9,11.1c-1.5,2.7-3.7,4.6-6.7,5.7c-2.9,1.1-6.8,1.8-11.5,2
		C161.9,141.8,155.7,141.4,149.9,140.2z M190.3,135.3l1.4-11.7c5,1,10.8,1.9,17.4,2.7c2.6,0.3,4.5,0.2,5.8-0.2
		c1.3-0.4,2-1.4,2.2-2.8l0.1-0.9c0.1-1.1-0.2-1.9-0.9-2.6c-0.7-0.7-1.6-1.1-2.7-1.2l-4-0.5c-6.1-0.7-10.4-2.6-13.1-5.6
		c-2.7-3-3.7-7.5-3-13.4l0.3-2.5c0.6-5.5,2.8-9.5,6.4-11.9c3.6-2.4,8.6-3.3,15.1-2.5c5.6,0.6,11.4,2.1,17.4,4.3L231.3,98
		c-5.6-1.1-10.9-2-15.8-2.5c-2.4-0.3-4.3-0.2-5.6,0.2c-1.3,0.4-2,1.5-2.2,3.1l-0.1,0.8c-0.3,2.6,1.2,4.1,4.5,4.5l5,0.6
		c5.1,0.6,8.9,2.5,11.4,5.6c2.4,3.2,3.4,7,2.9,11.6l-0.3,2.5c-0.5,4.7-1.8,8.2-3.7,10.6c-1.9,2.4-4.4,3.9-7.5,4.5
		c-3.1,0.6-7,0.6-11.6,0.1C201.7,138.8,195.7,137.4,190.3,135.3z M247.6,141.8c-3.6-1.3-6.4-4-8.4-8c-2.1-4.1-3.4-10-3.9-17.9
		c-0.5-7.9-0.1-14,1.4-18.3c1.5-4.3,3.9-7.4,7.3-9.1c3.3-1.8,7.9-2.9,13.7-3.3c5.8-0.4,10.4,0,14,1.3c3.6,1.3,6.4,4,8.4,8
		c2.1,4.1,3.4,10,3.9,17.9c0.5,7.9,0.1,14-1.4,18.3c-1.5,4.3-3.9,7.4-7.3,9.1c-3.3,1.8-7.9,2.9-13.7,3.3
		C255.8,143.6,251.2,143.1,247.6,141.8z M266.5,128.2c1.2-0.9,2.1-2.5,2.4-4.7c0.4-2.2,0.4-5.5,0.1-9.9c-0.3-4.5-0.8-7.8-1.5-9.9
		c-0.7-2.1-1.7-3.6-3.1-4.3c-1.4-0.7-3.4-1-6.1-0.8c-2.7,0.2-4.6,0.7-5.9,1.6c-1.3,0.9-2.1,2.4-2.5,4.6c-0.4,2.2-0.4,5.6-0.1,10.1
		c0.3,4.3,0.8,7.6,1.5,9.8c0.7,2.2,1.7,3.6,3.1,4.4c1.4,0.8,3.4,1,6,0.9C263.3,129.6,265.3,129.1,266.5,128.2z M293.4,85.7l24.1,3.6
		c5.4,0.8,9.3,2.8,11.9,6.1c2.6,3.3,3.3,8.4,2.3,15.4c-0.6,4.4-1.8,7.6-3.5,9.7c-1.7,2.1-3.8,3.7-6.5,4.7l6.6,23.3l-15-2.2l-5-20.6
		l-5.6-0.8l-2.9,19.4l-14.7-2.2L293.4,85.7z M311.1,114.2c1.7,0.2,3-0.1,3.9-0.9c1-0.9,1.6-2.4,1.9-4.6c0.3-2.2,0.2-3.8-0.5-4.7
		c-0.7-1-1.8-1.6-3.6-1.8l-6.7-1l-1.8,12.1L311.1,114.2z M392.2,80.4l16.1,1.7l-6.8,44.2l-11.9-1.2L392.2,80.4z M387.5,141.7
		c-0.3-0.4-0.5-0.9-0.4-1.4l1-9.7c0.1-0.7,0.3-1.2,0.7-1.5c0.4-0.3,0.9-0.5,1.5-0.4l9.4,1c1.4,0.1,2,0.9,1.9,2.3l-1,9.7
		c-0.1,1.3-0.9,1.8-2.3,1.7l-9.4-1C388.3,142.3,387.8,142.1,387.5,141.7z"/>
	<g>
		<polygon class="st2" points="274.8,32.6 267.5,55.2 280.2,56.3 279.8,54.1 269.5,53.2 276.1,32.7 		"/>
		<path class="st2" d="M150.7,90.6c3-2.4,7.3-3.8,13-4.1c1.2-0.1,2.3-0.1,3.5-0.1c4.2,0,8.7,0.4,13.4,1.2l0.4,7.9c0.7,0,1.4,0,2.1,0
			l-0.5-9.9c-4.6-0.8-9.1-1.2-13.4-1.2c-1.2,0-2.4,0-3.5,0.1c-6.2,0.3-10.8,1.9-13.8,4.7C151.4,89.7,151,90.2,150.7,90.6z"/>
		<path class="st2" d="M228.8,44.5l9.3-2.2c1.5-0.3,2.5-1.2,3.1-2.4c-0.3,0.2-0.7,0.3-1.1,0.4l-9.3,2.2l-3.5-14.8l-2.3,0.6
			L228.8,44.5z"/>
		<polygon class="st2" points="264.8,66.4 263.5,66.3 261.3,73 262.5,73.1 		"/>
		<path class="st2" d="M206.9,129.2c1.1,0.1,2.1,0.2,2.9,0.2c1.4,0,2.4-0.1,3.3-0.5c1.2-0.4,2-1.2,2.5-2.2c-0.1,0.1-0.3,0.1-0.5,0.2
			c-0.9,0.3-2,0.5-3.3,0.5c-0.9,0-1.9-0.1-2.9-0.2c-6.1-0.7-11.6-1.5-16.4-2.5l-0.3,2.3C196.6,127.9,201.5,128.6,206.9,129.2z"/>
		<path class="st2" d="M232.2,53.8l-1.2,0l3.6,15.5l2.3-0.6l-3.5-15C232.7,53.8,232.3,53.8,232.2,53.8z"/>
		<path class="st2" d="M233.2,14.6c2-0.5,3.8-0.7,5.6-0.7c0.9,0,1.8,0.1,2.6,0.2c2.4,0.3,4.7,1.7,6.9,4c2.2,2.4,4,6.3,5.2,11.6
			c1.8,7.7,1.6,13.3-0.6,16.5c-0.3,0.4-0.5,0.7-0.8,1.1c1.1-0.9,2-1.9,2.8-3.1c2.2-3.3,2.4-8.8,0.6-16.5c-1.3-5.3-3-9.3-5.2-11.6
			c-2.2-2.3-4.5-3.7-6.9-4c-0.9-0.1-1.7-0.2-2.6-0.2c-1.8,0-3.7,0.2-5.6,0.7l-23.4,5.5l0.3,1.4L233.2,14.6z"/>
		<polygon class="st2" points="197.4,19.1 180.1,44.1 187.7,70.9 190.4,71.4 182.1,42.1 199.4,17.1 186.1,14.7 184.7,16.8 		"/>
		<path class="st2" d="M193.2,59.7l0.1,0.6l7.1-0.9c0.1,0,0.2,0,0.2,0c0.3,0,0.6,0,0.7,1l1.5,11.2c0.2,1.4,0.1,2.5-0.3,3.4
			c0.4-0.2,0.9-0.5,1.2-0.9c1-0.9,1.3-2.4,1.1-4.5l-1.5-11.2c-0.1-1-0.5-1-0.7-1c-0.1,0-0.2,0-0.2,0l-8.5,1.1
			C193.4,58.5,193,58.7,193.2,59.7z"/>
		<path class="st2" d="M165,131.2c2.8-0.2,4.8-0.6,6.1-1.3c0.9-0.5,1.5-1.1,1.8-1.9c-1.3,0.7-3.3,1.1-6,1.2
			c-4.3,0.2-8.4,0.4-12.1,0.4c-1.5,0-3,0-4.5-0.1l0.1,2c0.8,0,1.6,0,2.4,0C156.5,131.5,160.6,131.4,165,131.2z"/>
		<path class="st2" d="M195.3,72.9l0,0.1C195.3,73,195.3,72.9,195.3,72.9C195.3,72.9,195.3,72.9,195.3,72.9z"/>
		<path class="st2" d="M139.7,70.9l1.9-9.6c-3.5-0.3-8.2-1-14.1-2.2c-2.9-0.6-4.9-1.5-6.2-2.7c-1.3-1.3-2-3.2-2.1-5.7
			c-0.1-2.3,0.3-5.5,1.1-9.9c0.9-4.6,1.8-7.9,2.9-10c0.3-0.7,0.7-1.2,1-1.8c-1.2,0.8-2.2,2-3,3.8c-1,2.1-2,5.4-2.9,10
			c-0.8,4.4-1.2,7.6-1.1,9.9c0.1,2.5,0.8,4.4,2.1,5.7c1.3,1.3,3.3,2.2,6.2,2.7c5.9,1.1,10.7,1.9,14.1,2.2l-1.5,7.8
			C138.6,71.1,139.1,71,139.7,70.9z"/>
		<path class="st2" d="M320.8,11.5c0.7,0,1.3-0.1,1.9-0.1c2.3,0,4.4,0.3,6.3,0.9c2.3,0.7,4.4,2.4,6.2,5.1c1.8,2.7,2.9,6.9,3.3,12.3
			c0.5,7.3-0.4,12.4-2.7,15.4c0.5-0.4,0.9-0.8,1.4-1.3c2.7-2.9,3.8-8.3,3.3-16.2c-0.4-5.5-1.5-9.6-3.3-12.3
			c-1.8-2.7-3.8-4.4-6.2-5.1c-1.9-0.6-4-0.9-6.3-0.9c-0.6,0-1.3,0-1.9,0.1l-24,1.7l0.1,1.9L320.8,11.5z"/>
		<path class="st2" d="M250.4,101.1c-0.1,0.1-0.2,0.1-0.4,0.2c-1.5,1-2.5,2.8-2.9,5.3c-0.4,2.3-0.4,5.7-0.1,10.3
			c0.3,4.5,0.8,7.7,1.5,10c0.8,2.4,2,4.1,3.5,4.9c1.3,0.7,2.9,1,5,1c0.5,0,1,0,1.6-0.1c2.9-0.2,5-0.8,6.4-1.9c0.6-0.4,1.1-1,1.5-1.7
			c-1.4,0.9-3.3,1.4-5.9,1.5c-0.5,0-1.1,0.1-1.6,0.1c-2.1,0-3.8-0.3-5-1c-1.6-0.9-2.8-2.5-3.5-4.9c-0.7-2.3-1.2-5.5-1.5-10
			c-0.3-4.6-0.3-8,0.1-10.3C249.4,103.2,249.8,102.1,250.4,101.1z"/>
		<path class="st2" d="M357.4,36.2c-1.4,0.6-2.2,1.8-2.4,3.5l-0.6,5.7l20.5,3l-0.8,7.7l1.8,0.1l1-9.8l-20.5-3l0.6-5.7
			C357.1,37.1,357.2,36.6,357.4,36.2z"/>
		<path class="st2" d="M412.8,40.5c0.2-0.2,0.3-0.5,0.5-0.7c-0.8,0.4-1.8,0.7-3,0.7l-7.8,0.2l-0.3-12.3l-2,0l0.3,14.2l7.8-0.2
			C410.3,42.5,411.8,41.8,412.8,40.5z"/>
		<path class="st2" d="M352.7,62c-0.2,1.6,0.1,2.8,0.7,3.8c0.7,1,1.7,1.5,3,1.7l20.1,2.1l-0.9,8.7c0.6,0,1.2,0,1.8,0l1.1-10.7
			l-20.1-2.1c-1.3-0.1-2.3-0.7-3-1.7c-0.7-0.9-0.9-2.2-0.7-3.8l0.3-3.1l-1.8-0.1L352.7,62z"/>
		<path class="st2" d="M421.5,48.7c-0.5,0.4-1,0.7-1.5,1l-0.8,0.5l9.2,19.4l2.9-0.1L421.5,48.7z"/>
		<path class="st2" d="M410.4,16.9c0.2,0,0.4,0,0.6,0c4.8,0,8.7,1.3,11.4,3.8c2.9,2.6,4.4,7.3,4.5,14c0.1,4.2-0.5,7.4-1.7,9.6
			c-0.4,0.8-1,1.5-1.5,2.2c1.4-1.2,2.6-2.6,3.5-4.2c1.2-2.2,1.8-5.4,1.7-9.6c-0.1-6.7-1.7-11.4-4.5-14c-2.8-2.5-6.6-3.8-11.4-3.8
			c-0.2,0-0.4,0-0.6,0l-23.3,0.5l0,2L410.4,16.9z"/>
		<polygon class="st2" points="285.4,22 296.5,76 299,76.2 287.4,20 270.4,18.5 269.6,20.6 		"/>
		<path class="st2" d="M311.6,40.2l9.6-0.7c1.8-0.1,3.1-1,3.7-2.4c-0.5,0.2-1.1,0.4-1.7,0.4l-9.6,0.7l-1-14.8l-2.1,0.1L311.6,40.2z"
			/>
		<path class="st2" d="M313.3,65.3l2.1-0.1l-1-15.1c-1.2-0.2-2.2-0.3-2.2-0.3L313.3,65.3z"/>
		<path class="st2" d="M347.4,25.7c2.3-1.4,4.9-2.1,7.7-2.1c0.6,0,1.3,0,2,0.1c8.7,0.9,16.8,2.1,23.9,3.6l-0.9,8.4l1.8,0.2l1.1-10.6
			c-7.2-1.5-15.2-2.7-23.9-3.6c-0.7-0.1-1.3-0.1-2-0.1c-2.8,0-5.4,0.7-7.7,2.1c-0.9,0.6-1.7,1.4-2.4,2.3
			C347.1,25.9,347.3,25.8,347.4,25.7z"/>
		<polygon class="st2" points="167.6,13.7 163.7,35.6 171.1,36.9 172.5,34.8 165.7,33.6 169.6,11.7 156.9,9.4 156.5,11.7 		"/>
		<path class="st2" d="M399.6,130.6l-9.4-1c-0.2,0-0.3,0-0.4,0c-0.2,0-0.3,0.1-0.3,0.1c-0.2,0.2-0.3,0.4-0.3,0.8L389,132l8.9,0.9
			c0.3,0,0.7,0.1,0.8,0.3c0.2,0.2,0.2,0.6,0.1,0.9l-0.8,8.2l0.4,0c0.2,0,0.4,0,0.6,0c0.3,0,0.6-0.1,0.6-0.8l1-9.7
			c0-0.3,0-0.7-0.1-0.9C400.2,130.7,399.8,130.6,399.6,130.6z"/>
		<path class="st2" d="M210.9,82.8c-4.2,0-7.6,0.9-10.2,2.6c-1,0.7-1.9,1.6-2.7,2.6c0.2-0.2,0.5-0.4,0.7-0.6c2.6-1.7,6-2.6,10.2-2.6
			c1.3,0,2.7,0.1,4.2,0.3c5.3,0.6,10.8,1.9,16.5,3.9l-0.9,7.6c0.6,0.1,1.1,0.2,1.7,0.3l1.1-9.9c-5.7-2-11.2-3.3-16.5-3.9
			C213.6,82.9,212.2,82.8,210.9,82.8z"/>
		<path class="st2" d="M279.1,95.1c-1.9-3.8-4.6-6.4-7.9-7.6c-2.6-0.9-5.9-1.4-9.8-1.4c-1.2,0-2.5,0-3.8,0.1
			c-5.6,0.4-10.1,1.4-13.3,3.1c-1.5,0.8-2.8,1.9-4,3.3c0.6-0.5,1.3-0.9,2-1.3c3.2-1.7,7.7-2.8,13.3-3.1c1.3-0.1,2.6-0.1,3.8-0.1
			c3.9,0,7.2,0.5,9.8,1.4c3.3,1.2,5.9,3.7,7.9,7.6c2,3.9,3.3,9.8,3.8,17.5c0.5,7.7,0.1,13.7-1.4,17.9c-0.7,2.1-1.7,3.8-2.8,5.3
			c2.1-1.7,3.7-4.1,4.8-7.3c1.4-4.2,1.9-10.2,1.4-17.9C282.4,104.9,281.1,99,279.1,95.1z"/>
		<path class="st2" d="M217,105.7l-5-0.6c-1.9-0.2-3.3-0.8-4.2-1.7c-1-1-1.4-2.3-1.2-3.9l0.1-0.8c0.1-0.7,0.3-1.3,0.5-1.8
			c-1.1,0.5-2.2,1.5-2.5,3.8l-0.1,0.8c-0.2,1.6,0.2,2.9,1.2,3.9c0.9,0.9,2.3,1.5,4.2,1.7l5,0.6c4.8,0.6,8.4,2.3,10.7,5.3
			c2.3,2.9,3.2,6.6,2.7,10.9l-0.3,2.5c-0.5,4.4-1.7,7.7-3.4,10c0.7-0.5,1.3-1.2,1.9-1.9c1.8-2.2,3-5.6,3.5-10.1l0.3-2.5
			c0.5-4.3-0.4-8-2.7-10.9C225.5,108,221.9,106.2,217,105.7z"/>
		
			<rect x="290.7" y="133.6" transform="matrix(0.1464 -0.9892 0.9892 0.1464 122.4963 410.9319)" class="st2" width="17.4" height="1.7"/>
		<polygon class="st2" points="128.4,90.9 128.5,92.7 139.3,92.1 142.2,145.2 144.3,145.1 141.3,90.1 		"/>
		
			<rect x="151.2" y="55.5" transform="matrix(0.1764 -0.9843 0.9843 0.1764 76.9799 204.6421)" class="st2" width="19.2" height="1.6"/>
		<polygon class="st2" points="393,83.9 405.4,85.2 399.3,125 400.6,125.1 407.1,82.9 393.1,81.5 		"/>
		
			<rect x="400.9" y="52.5" transform="matrix(0.9998 -2.170643e-02 2.170643e-02 0.9998 -1.2363 8.7391)" class="st2" width="2" height="17.7"/>
		<path class="st2" d="M303.3,102l-2.1,14.1l7.7,1.1c0.4,0.1,0.8,0.1,1.2,0.1c1.4,0,2.6-0.4,3.6-1.3c0.4-0.4,0.8-0.8,1.1-1.4
			c-0.8,0.4-1.6,0.6-2.6,0.6c-0.4,0-0.8,0-1.2-0.1l-7.7-1.1l1.7-11.8L303.3,102z"/>
		<path class="st2" d="M106.5,79.6c-1.2-0.1-2.3-0.2-3.4-0.2c-2.9,0-5.4,0.4-7.6,1.3c-1.9,0.7-3.5,2-5,3.8c1-0.8,2-1.4,3-1.8
			c2.2-0.9,4.8-1.3,7.6-1.3c1.1,0,2.2,0.1,3.4,0.2c4.1,0.4,7.8,1.1,10.8,2c2.7,0.8,4.9,1.7,6.6,2.5l-0.7,7.2
			c0.6,0.2,1.2,0.3,1.7,0.5l1-9.7c-1.7-0.9-3.9-1.7-6.6-2.5C114.3,80.7,110.7,80,106.5,79.6z"/>
		<path class="st2" d="M328.6,96c-2.4-3.1-6.2-5-11.3-5.8l-23.1-3.4l-0.3,2.2l21.4,3.2c5.1,0.8,8.9,2.7,11.3,5.8
			c2.4,3.1,3.1,8,2.1,14.6c-0.6,4.2-1.7,7.3-3.3,9.2c0.7-0.6,1.4-1.3,2-2c1.6-2,2.7-5.1,3.3-9.2C331.7,104,330.9,99.1,328.6,96z"/>
		<path class="st2" d="M319.3,126.3l-0.8,0.3l5.7,20.3l2.7,0.4l-6.1-21.7C320.3,125.9,319.8,126.1,319.3,126.3z"/>
		<path class="st2" d="M187.2,120.2c-0.2-4.3-1.7-7.8-4.5-10.3c-2.5-2.3-5.9-3.4-10.1-3.4c-0.4,0-0.9,0-1.4,0l-5.1,0.3
			c-0.2,0-0.5,0-0.7,0c-4.6,0-5.5-2.9-5.6-4.6l0-0.8c-0.1-1,0.1-1.8,0.4-2.5c-0.1,0-0.2,0.1-0.2,0.1c-1.1,0.6-2.3,1.8-2.2,4.4l0,0.8
			c0.1,1.7,0.9,4.6,5.6,4.6c0.2,0,0.4,0,0.7,0l5.1-0.3c0.5,0,0.9,0,1.4,0c4.2,0,7.6,1.2,10.1,3.4c2.7,2.5,4.2,6,4.5,10.3l0.1,2.5
			c0.2,4.5-0.3,8-1.7,10.5c-0.3,0.5-0.6,1-1,1.5c1.2-0.9,2.2-2.1,3-3.5c1.4-2.5,2-6,1.7-10.5L187.2,120.2z"/>
		<path class="st2" d="M64.2,129.5c0.8-0.5,1.4-1.1,1.7-1.8c-1.3,0.7-3.2,1.1-5.8,1.4c-6.1,0.5-11.7,0.8-16.6,0.9l0.2,2
			c4.3-0.1,9.2-0.4,14.4-0.8C60.9,130.8,62.8,130.3,64.2,129.5z"/>
		<path class="st2" d="M69.9,30.3c0.3-1.1,0.7-2.1,1.2-2.9c-1.5,0.9-2.6,2.6-3.2,4.9c-0.6,2.3-0.9,5.6-1.1,10.2
			c-0.1,4.5,0.1,7.8,0.6,10.1c0.5,2.5,1.6,4.2,3.1,5.2c1.5,1,3.6,1.5,6.5,1.6c0.2,0,0.6,0,0.6,0c2.6,0,4.5-0.4,5.9-1.3
			c0.8-0.5,1.4-1.1,2-2c-1.4,0.9-3.3,1.3-5.9,1.3c0,0-0.4,0-0.6,0c-2.9-0.1-5-0.6-6.5-1.6c-1.5-1-2.5-2.8-3.1-5.2
			c-0.5-2.3-0.7-5.6-0.6-10.1C68.9,35.9,69.3,32.5,69.9,30.3z"/>
		<path class="st2" d="M43.6,89.7c-0.3,0.3-0.6,0.6-0.8,1c2.9-2.3,7.1-3.7,12.5-4.2c1.9-0.2,3.9-0.3,5.9-0.3c3.5,0,7.2,0.3,11.1,0.8
			l0.7,8c0.7,0,1.4,0,2.2,0L74.2,85c-3.8-0.5-7.5-0.8-11.1-0.8c-2,0-4,0.1-5.9,0.3C51.1,85,46.5,86.8,43.6,89.7z"/>
		<path class="st2" d="M119.4,16.8c1.6-0.5,3.5-0.7,5.5-0.7c1.7,0,3.6,0.2,5.6,0.6c4.1,0.8,7.6,1.8,10.5,3c2.6,1,4.7,2.1,6.4,3.1
			l-1.3,7c0.5,0.2,1,0.4,1.5,0.5l1.8-9.5c-1.6-1-3.8-2.1-6.4-3.1c-2.9-1.2-6.4-2.2-10.5-3c-2-0.4-3.9-0.6-5.6-0.6
			c-2,0-3.8,0.3-5.5,0.7c-2.3,0.7-4.4,2.2-6.3,4.4C116.5,18,117.9,17.2,119.4,16.8z"/>
		<path class="st2" d="M105.3,124.4c-2.9-0.3-5-1-6.4-2.2c-1.4-1.2-2.3-3-2.6-5.5c-0.3-2.3-0.2-5.6,0.3-10c0.5-4.7,1.1-8,2-10.2
			c0.3-0.9,0.7-1.7,1.2-2.3c-1.3,0.8-2.4,2.3-3.2,4.3c-0.9,2.2-1.5,5.6-2,10.2c-0.5,4.4-0.5,7.7-0.3,10c0.3,2.4,1.2,4.3,2.6,5.5
			c1.4,1.2,3.5,1.9,6.4,2.2c5.8,0.6,10.6,0.9,14,0.9c0.1,0,0.2,0,0.3,0l-0.8,8.1c0.6-0.1,1.3-0.2,1.8-0.4l1-9.7c-0.1,0-0.2,0-0.3,0
			C115.9,125.3,111.2,125,105.3,124.4z"/>
		<path class="st2" d="M64.5,16.6c3-1.3,7.1-1.9,12-1.9c0.5,0,1,0,1.5,0c5.6,0.1,10.1,1,13.4,2.6c3.2,1.5,5.6,4.3,7.2,8.3
			c1.6,4.1,2.4,10.1,2.2,17.8c-0.2,7.7-1.2,13.7-3,17.7c-0.7,1.5-1.5,2.9-2.5,4c1.8-1.5,3.3-3.5,4.5-6c1.8-4,2.9-10,3-17.7
			c0.2-7.7-0.5-13.7-2.2-17.8c-1.6-4-4-6.8-7.2-8.3c-3.3-1.6-7.8-2.4-13.4-2.6c-0.5,0-1,0-1.5,0c-4.9,0-8.9,0.6-12,1.9
			c-2,0.8-3.6,2.1-5.1,3.9C62.4,17.7,63.4,17.1,64.5,16.6z"/>
		<path class="st2" d="M80,119.4c-0.4-4.3-2-7.7-4.8-10.1c-2.4-2.1-5.5-3.1-9.4-3.1c-0.7,0-1.4,0-2.1,0.1l-5,0.4c-0.4,0-0.7,0-1,0
			c-3.2,0-5.1-1.6-5.4-4.4l-0.1-0.8c-0.1-1.1,0.1-2,0.4-2.6c-0.1,0.1-0.2,0.1-0.4,0.2c-1,0.6-2.3,1.9-2,4.4l0.1,0.8
			c0.2,2.9,2.2,4.4,5.4,4.4c0.3,0,0.7,0,1,0l5-0.4c0.7-0.1,1.4-0.1,2.1-0.1c3.9,0,7,1,9.4,3.1c2.8,2.4,4.4,5.8,4.8,10.1l0.2,2.5
			c0.4,4.5-0.1,8-1.4,10.6c-0.3,0.7-0.7,1.3-1.2,1.8c1.3-1,2.4-2.3,3.2-3.8c1.3-2.5,1.8-6.1,1.4-10.6L80,119.4z"/>
		<path class="st2" d="M30.8,19.2c0.8-0.1,1.6-0.1,2.4-0.1c4,0,7.3,1,9.9,3.1c3,2.4,4.9,7,5.5,13.7c0.4,4.2,0,7.5-1,9.7
			c-0.5,1.1-1.1,2-1.9,3c1.7-1.4,3-3,3.9-5c1.1-2.3,1.4-5.5,1-9.7c-0.6-6.7-2.5-11.3-5.5-13.7c-2.6-2-5.9-3.1-9.9-3.1
			c-0.8,0-1.6,0-2.4,0.1L9.6,19.3l0.2,1.8L30.8,19.2z"/>
		<path class="st2" d="M42.8,51.3L42,51.8l10.6,18.8l3-0.3L44.2,50.1C43.7,50.5,43.3,50.9,42.8,51.3z"/>
		
			<rect x="24.5" y="55.2" transform="matrix(0.9958 -9.130464e-02 9.130464e-02 0.9958 -5.7501 2.6012)" class="st2" width="2.2" height="17.8"/>
		<path class="st2" d="M34.8,42.6c0.1-0.1,0.2-0.3,0.3-0.5c-0.7,0.4-1.6,0.6-2.6,0.7l-7.7,0.7l-1.1-12.3l-2.2,0.2l1.3,14.2l7.7-0.7
			C32.5,44.7,33.9,43.9,34.8,42.6z"/>
	</g>
	<g>
		<defs>
			<path id="SVGID_1_" d="M8.5,18.4l24.2-2.2c5.4-0.5,9.7,0.6,13,3.2c3.3,2.6,5.2,7.4,5.9,14.4c0.4,4.4,0,7.8-1.1,10.2
				c-1.1,2.4-2.9,4.5-5.2,6.1l11.9,21.1l-15.1,1.4l-9.7-18.8l-5.7,0.5l1.8,19.6l-14.8,1.4L8.5,18.4z M32.4,41.9
				c1.7-0.2,2.9-0.8,3.6-1.8c0.7-1.1,1-2.7,0.8-4.9c-0.2-2.2-0.7-3.7-1.6-4.5c-0.9-0.8-2.2-1.1-3.9-1l-6.7,0.6l1.1,12.2L32.4,41.9z
				 M64.8,67.1c-3.4-1.6-6-4.6-7.7-8.8c-1.7-4.2-2.4-10.3-2.2-18.2c0.2-7.9,1.2-13.9,3.1-18.1c1.9-4.2,4.6-7,8.1-8.4
				c3.5-1.4,8.1-2.1,13.9-2c5.8,0.1,10.4,1,13.8,2.6c3.4,1.6,6,4.6,7.7,8.8c1.7,4.2,2.4,10.3,2.2,18.2c-0.2,7.9-1.2,13.9-3.1,18.1
				c-1.9,4.2-4.6,7-8.1,8.4c-3.5,1.4-8.1,2.1-13.9,2C72.8,69.6,68.2,68.8,64.8,67.1z M84.9,55.3c1.3-0.8,2.3-2.3,2.9-4.5
				c0.6-2.2,0.9-5.5,1.1-9.8c0.1-4.5-0.1-7.8-0.5-10c-0.5-2.2-1.3-3.7-2.7-4.5c-1.3-0.8-3.3-1.3-6-1.3c-2.7-0.1-4.7,0.3-6,1
				c-1.4,0.8-2.3,2.2-2.9,4.4c-0.6,2.2-0.9,5.5-1,10c-0.1,4.4,0.1,7.6,0.6,9.8c0.5,2.2,1.4,3.8,2.6,4.6c1.3,0.9,3.3,1.3,5.9,1.4
				C81.6,56.5,83.6,56.1,84.9,55.3z M110.7,66.2c-2.6-2.1-4.4-5.4-5.2-9.8c-0.8-4.5-0.5-10.6,1-18.3c1.4-7.5,3.4-13.1,5.9-17
				c2.5-3.8,5.4-6.2,8.6-7.2c3.3-1,7.1-1.1,11.5-0.2c4.2,0.8,7.7,1.8,10.7,3c3,1.2,5.3,2.4,7.1,3.6l-2.2,11.4
				c-1.6-0.7-3.7-1.4-6.3-2.2c-2.6-0.8-5.5-1.4-8.6-2.1c-2.5-0.5-4.4-0.5-5.8,0c-1.4,0.5-2.6,1.8-3.6,3.8c-1,2.1-1.9,5.3-2.8,9.8
				c-0.8,4.3-1.2,7.5-1.1,9.7c0.1,2.2,0.7,3.9,1.8,5c1.1,1.1,3,2,5.7,2.5c6.6,1.3,11.6,2,15.1,2.2l-2.2,11.4
				c-4.3,0.8-10.6,0.5-18.9-1.1C117,69.8,113.4,68.3,110.7,66.2z M156.1,8.3l14.7,2.6l-3.9,21.8l5.8,1l12.9-20.2l15.6,2.8l-18,26
				l8.6,30.3l-15.6-2.8l-5.9-22.9l-5.8-1l-3.8,21.2L146,64.4L156.1,8.3z M196.6,77c-0.9-0.1-1.5-0.1-1.8-0.2l-0.6-4.7
				c0.9-0.1,1.5-0.3,1.8-0.5c0.3-0.2,0.4-0.7,0.4-1.4l-0.2-1.4l-0.8,0.1c-0.6,0.1-1,0-1.4-0.3c-0.4-0.3-0.6-0.7-0.7-1.3l-1-7.4
				c-0.2-1.4,0.4-2.1,1.6-2.3l8.5-1.1c1.2-0.2,1.9,0.4,2.1,1.8l1.5,11.2c0.3,2.4-0.1,4.2-1.4,5.4c-1.2,1.1-2.9,1.9-4.8,2.1
				C198.6,77,197.6,77,196.6,77z M210.6,17.4l24.4-5.7c3.1-0.7,6-0.9,8.6-0.5c2.7,0.4,5.2,1.8,7.5,4.4s4.1,6.6,5.4,12.1
				c1.9,8,1.6,13.8-0.8,17.3c-2.4,3.5-5.9,5.8-10.5,6.9c-2.2,0.5-4.6,0.8-7,0.9c-2.4,0.1-3.8,0.1-4,0.1l3.9,16.7l-14.5,3.4
				L210.6,17.4z M239.9,39.3c1.4-0.3,2.3-1.2,2.6-2.5c0.3-1.3,0.2-3.2-0.4-5.7c-0.6-2.3-1.3-4-2.2-5.1c-0.9-1-2-1.4-3.4-1.1l-8.4,2
				l3.4,14.3L239.9,39.3z M269.7,17.5l18.5,1.6l12,58.3L284.8,76l-1.5-9.2l-17.1-1.5l-3,8.8L248,72.9L269.7,17.5z M281,53.2
				l-3.3-22.3l-6.9,21.4L281,53.2z M297.7,10.2l25-1.7c3.2-0.2,6,0.1,8.6,0.9c2.6,0.8,4.8,2.6,6.7,5.5c1.9,2.9,3,7.1,3.4,12.8
				c0.6,8.2-0.6,13.9-3.6,16.9c-2.9,3.1-6.8,4.8-11.5,5.1c-2.3,0.2-4.7,0.1-7.1-0.2c-2.4-0.3-3.7-0.5-4-0.5l1.2,17.2l-14.9,1
				L297.7,10.2z M323.1,36.6c1.5-0.1,2.5-0.8,3-2c0.5-1.2,0.7-3.1,0.5-5.7c-0.2-2.4-0.6-4.2-1.3-5.3c-0.7-1.2-1.8-1.7-3.2-1.6
				l-8.6,0.6l1,14.6L323.1,36.6z M340.4,62.9l3.2-29.6c0.5-5,2.3-8.5,5.3-10.4c3-1.9,6.4-2.6,10.3-2.2c9.2,1,17.5,2.2,24.9,3.8
				L382.8,37l-20.5-2.2c-2.6-0.3-4,0.7-4.3,2.9l-0.5,4.7l20.5,3l-1.3,11.8l-20.6-1.4l-0.5,4.3c-0.1,1.3,0,2.3,0.6,3.1
				c0.5,0.7,1.3,1.1,2.3,1.2l21.1,2.2l-1.3,12.5c-3.2,0.1-7,0.1-11.5-0.2c-4.5-0.2-8.8-0.6-12.8-1C343.9,76.9,339.4,71.9,340.4,62.9
				z M388,14.4l24.3-0.5c5.4-0.1,9.7,1.2,12.8,4.1c3.1,2.8,4.7,7.7,4.9,14.8c0.1,4.4-0.5,7.8-1.8,10.1c-1.3,2.4-3.2,4.3-5.6,5.8
				L433,70.5l-15.1,0.3l-8.4-19.5l-5.7,0.1l0.4,19.7l-14.9,0.3L388,14.4z M410.2,39.5c1.7,0,2.9-0.6,3.7-1.6c0.8-1,1.2-2.6,1.1-4.8
				c0-2.2-0.5-3.7-1.3-4.6c-0.8-0.9-2.1-1.3-3.8-1.2l-6.8,0.1l0.3,12.2L410.2,39.5z M43.4,140.6l-1-11.8c5.1,0,11-0.3,17.6-0.9
				c2.6-0.2,4.5-0.7,5.7-1.4c1.2-0.7,1.7-1.8,1.6-3.2l-0.1-0.9c-0.1-1.1-0.5-1.9-1.4-2.4c-0.8-0.5-1.8-0.7-2.9-0.6l-4.1,0.4
				c-6.1,0.5-10.7-0.4-13.9-2.8c-3.2-2.4-5.1-6.6-5.6-12.6l-0.2-2.5c-0.5-5.6,0.8-9.9,3.9-13c3.1-3.1,7.8-4.9,14.2-5.5
				c5.6-0.5,11.6-0.3,17.9,0.7l1,11.8c-5.8,0-11.1,0.3-16,0.7c-2.4,0.2-4.3,0.7-5.4,1.4c-1.2,0.7-1.7,1.9-1.5,3.5l0.1,0.8
				c0.2,2.6,2,3.8,5.3,3.5l5-0.4c5.1-0.5,9.2,0.6,12.3,3.2c3,2.6,4.7,6.2,5.2,10.8l0.2,2.5c0.4,4.7-0.1,8.4-1.5,11.1
				c-1.4,2.7-3.6,4.7-6.5,5.9c-2.9,1.2-6.7,2-11.4,2.4C55.4,141.8,49.2,141.6,43.4,140.6z M89.4,132.9c-2.8-1.8-4.8-5-6-9.3
				c-1.2-4.4-1.4-10.5-0.6-18.4c0.8-7.6,2.3-13.4,4.4-17.4c2.1-4,4.8-6.7,8-7.9c3.2-1.3,7-1.7,11.5-1.2c4.2,0.4,7.9,1.1,10.9,2.1
				c3.1,0.9,5.5,1.9,7.4,2.9l-1.2,11.5c-1.6-0.5-3.8-1.1-6.5-1.6c-2.7-0.5-5.6-1-8.7-1.3c-2.5-0.3-4.4-0.1-5.8,0.5
				c-1.4,0.6-2.4,2-3.2,4.1c-0.8,2.1-1.5,5.5-1.9,10c-0.4,4.3-0.5,7.6-0.3,9.8c0.3,2.2,1,3.8,2.2,4.8c1.2,1,3.2,1.7,5.9,2
				c6.7,0.7,11.8,1,15.3,0.9l-1.2,11.5c-4.2,1.2-10.5,1.4-18.9,0.5C95.9,135.9,92.2,134.7,89.4,132.9z M127.3,89.9l14.9-0.8l3.2,57
				l-14.9,0.8L127.3,89.9z M149.9,140.2l-0.6-11.8c5.1,0.2,11,0.1,17.6-0.3c2.6-0.1,4.5-0.5,5.7-1.2c1.2-0.7,1.8-1.7,1.7-3.1l0-0.9
				c-0.1-1.1-0.5-1.9-1.3-2.4c-0.8-0.5-1.8-0.8-2.9-0.7L166,120c-6.1,0.3-10.7-0.8-13.8-3.3c-3.1-2.5-4.9-6.8-5.2-12.8l-0.1-2.5
				c-0.3-5.6,1.1-9.9,4.3-12.8c3.2-3,8-4.7,14.4-5c5.6-0.3,11.6,0.1,17.9,1.3l0.6,11.8c-5.8-0.2-11.1-0.1-16,0.2
				c-2.5,0.1-4.3,0.5-5.5,1.2c-1.2,0.7-1.7,1.8-1.7,3.4l0,0.8c0.1,2.6,1.9,3.8,5.2,3.6l5.1-0.3c5.2-0.3,9.2,0.9,12.2,3.7
				c2.9,2.7,4.5,6.4,4.8,11l0.1,2.5c0.3,4.7-0.4,8.4-1.9,11.1c-1.5,2.7-3.7,4.6-6.7,5.7c-2.9,1.1-6.8,1.8-11.5,2
				C161.9,141.8,155.7,141.4,149.9,140.2z M190.3,135.3l1.4-11.7c5,1,10.8,1.9,17.4,2.7c2.6,0.3,4.5,0.2,5.8-0.2
				c1.3-0.4,2-1.4,2.2-2.8l0.1-0.9c0.1-1.1-0.2-1.9-0.9-2.6c-0.7-0.7-1.6-1.1-2.7-1.2l-4-0.5c-6.1-0.7-10.4-2.6-13.1-5.6
				c-2.7-3-3.7-7.5-3-13.4l0.3-2.5c0.6-5.5,2.8-9.5,6.4-11.9c3.6-2.4,8.6-3.3,15.1-2.5c5.6,0.6,11.4,2.1,17.4,4.3L231.3,98
				c-5.6-1.1-10.9-2-15.8-2.5c-2.4-0.3-4.3-0.2-5.6,0.2c-1.3,0.4-2,1.5-2.2,3.1l-0.1,0.8c-0.3,2.6,1.2,4.1,4.5,4.5l5,0.6
				c5.1,0.6,8.9,2.5,11.4,5.6c2.4,3.2,3.4,7,2.9,11.6l-0.3,2.5c-0.5,4.7-1.8,8.2-3.7,10.6c-1.9,2.4-4.4,3.9-7.5,4.5
				c-3.1,0.6-7,0.6-11.6,0.1C201.7,138.8,195.7,137.4,190.3,135.3z M247.6,141.8c-3.6-1.3-6.4-4-8.4-8c-2.1-4.1-3.4-10-3.9-17.9
				c-0.5-7.9-0.1-14,1.4-18.3c1.5-4.3,3.9-7.4,7.3-9.1c3.3-1.8,7.9-2.9,13.7-3.3c5.8-0.4,10.4,0,14,1.3c3.6,1.3,6.4,4,8.4,8
				c2.1,4.1,3.4,10,3.9,17.9c0.5,7.9,0.1,14-1.4,18.3c-1.5,4.3-3.9,7.4-7.3,9.1c-3.3,1.8-7.9,2.9-13.7,3.3
				C255.8,143.6,251.2,143.1,247.6,141.8z M266.5,128.2c1.2-0.9,2.1-2.5,2.4-4.7c0.4-2.2,0.4-5.5,0.1-9.9c-0.3-4.5-0.8-7.8-1.5-9.9
				c-0.7-2.1-1.7-3.6-3.1-4.3c-1.4-0.7-3.4-1-6.1-0.8c-2.7,0.2-4.6,0.7-5.9,1.6c-1.3,0.9-2.1,2.4-2.5,4.6c-0.4,2.2-0.4,5.6-0.1,10.1
				c0.3,4.3,0.8,7.6,1.5,9.8c0.7,2.2,1.7,3.6,3.1,4.4c1.4,0.8,3.4,1,6,0.9C263.3,129.6,265.3,129.1,266.5,128.2z M293.4,85.7
				l24.1,3.6c5.4,0.8,9.3,2.8,11.9,6.1c2.6,3.3,3.3,8.4,2.3,15.4c-0.6,4.4-1.8,7.6-3.5,9.7c-1.7,2.1-3.8,3.7-6.5,4.7l6.6,23.3
				l-15-2.2l-5-20.6l-5.6-0.8l-2.9,19.4l-14.7-2.2L293.4,85.7z M311.1,114.2c1.7,0.2,3-0.1,3.9-0.9c1-0.9,1.6-2.4,1.9-4.6
				c0.3-2.2,0.2-3.8-0.5-4.7c-0.7-1-1.8-1.6-3.6-1.8l-6.7-1l-1.8,12.1L311.1,114.2z M392.2,80.4l16.1,1.7l-6.8,44.2l-11.9-1.2
				L392.2,80.4z M387.5,141.7c-0.3-0.4-0.5-0.9-0.4-1.4l1-9.7c0.1-0.7,0.3-1.2,0.7-1.5c0.4-0.3,0.9-0.5,1.5-0.4l9.4,1
				c1.4,0.1,2,0.9,1.9,2.3l-1,9.7c-0.1,1.3-0.9,1.8-2.3,1.7l-9.4-1C388.3,142.3,387.8,142.1,387.5,141.7z"/>
		</defs>
		<clipPath id="SVGID_2_">
			<use xlink:href="#SVGID_1_"  style="overflow:visible;"/>
		</clipPath>
		<linearGradient id="SVGID_3_" gradientUnits="userSpaceOnUse" x1="227.2223" y1="35.3347" x2="226.2519" y2="103.7484">
			<stop  offset="0.1249" style="stop-color:#F79C00"/>
			<stop  offset="0.2755" style="stop-color:#F77300"/>
			<stop  offset="0.6196" style="stop-color:#F77300"/>
			<stop  offset="0.9296" style="stop-color:#F79C00"/>
		</linearGradient>
		<path class="st3" d="M-34,61.6c0,0,92-36.1,185.8-18.7s282.6-2.8,311.1-22.3s47.3,142.4-2.1,119.2C384.5,104.1,76,82-17.1,137.7
			C-52.1,158.7-34,61.6-34,61.6z"/>
	</g>
</g>
<g>
	<path class="st0" d="M344,147.2l-1-11.8c5.1,0,11-0.3,17.6-0.9c2.6-0.2,4.5-0.7,5.7-1.4c1.2-0.7,1.7-1.8,1.6-3.2l-0.1-0.9
		c-0.1-1.1-0.5-1.9-1.4-2.4c-0.8-0.5-1.8-0.7-2.9-0.6l-4.1,0.4c-6.1,0.5-10.7-0.4-13.9-2.8c-3.2-2.4-5.1-6.6-5.6-12.6l-0.2-2.5
		c-0.5-5.6,0.8-9.9,3.9-13c3.1-3.1,7.8-4.9,14.2-5.5c5.6-0.5,11.6-0.3,17.9,0.7l1,11.8c-5.8,0-11.1,0.3-16,0.7
		c-2.4,0.2-4.3,0.7-5.4,1.4c-1.2,0.7-1.7,1.9-1.5,3.5l0.1,0.8c0.2,2.6,2,3.8,5.3,3.5l5-0.4c5.1-0.5,9.2,0.6,12.3,3.2
		c3,2.6,4.7,6.2,5.2,10.8l0.2,2.5c0.4,4.7-0.1,8.4-1.5,11.1c-1.4,2.7-3.6,4.7-6.5,5.9c-2.9,1.2-6.7,2-11.4,2.4
		C355.9,148.4,349.7,148.2,344,147.2z"/>
	<path class="st1" d="M342,145.2l-1-11.8c5.1,0,11-0.3,17.6-0.9c2.6-0.2,4.5-0.7,5.7-1.4c1.2-0.7,1.7-1.8,1.6-3.2l-0.1-0.9
		c-0.1-1.1-0.5-1.9-1.4-2.4c-0.8-0.5-1.8-0.7-2.9-0.6l-4.1,0.4c-6.1,0.5-10.7-0.4-13.9-2.8c-3.2-2.4-5.1-6.6-5.6-12.6l-0.2-2.5
		c-0.5-5.6,0.8-9.9,3.9-13c3.1-3.1,7.8-4.9,14.2-5.5c5.6-0.5,11.6-0.3,17.9,0.7l1,11.8c-5.8,0-11.1,0.3-16,0.7
		c-2.4,0.2-4.3,0.7-5.4,1.4c-1.2,0.7-1.7,1.9-1.5,3.5l0.1,0.8c0.2,2.6,2,3.8,5.3,3.5l5-0.4c5.1-0.5,9.2,0.6,12.3,3.2
		c3,2.6,4.7,6.2,5.2,10.8l0.2,2.5c0.4,4.7-0.1,8.4-1.5,11.1c-1.4,2.7-3.6,4.7-6.5,5.9c-2.9,1.2-6.7,2-11.4,2.4
		C353.9,146.4,347.7,146.2,342,145.2z"/>
	<g>
		<path class="st2" d="M362.7,134.1c0.8-0.5,1.4-1.1,1.7-1.8c-1.3,0.7-3.2,1.1-5.8,1.4c-6.1,0.5-11.7,0.8-16.6,0.9l0.2,2
			c4.3-0.1,9.2-0.4,14.4-0.8C359.4,135.4,361.4,134.9,362.7,134.1z"/>
		<path class="st2" d="M342.1,94.3c-0.3,0.3-0.6,0.6-0.8,1c2.9-2.3,7.1-3.7,12.5-4.2c1.9-0.2,3.9-0.3,5.9-0.3
			c3.5,0,7.2,0.3,11.1,0.8l0.7,8c0.7,0,1.4,0,2.2,0l-0.9-9.9c-3.8-0.5-7.5-0.8-11.1-0.8c-2,0-4,0.1-5.9,0.3
			C349.6,89.6,345,91.3,342.1,94.3z"/>
		<path class="st2" d="M378.5,124c-0.4-4.3-2-7.7-4.8-10.1c-2.4-2.1-5.5-3.1-9.4-3.1c-0.7,0-1.4,0-2.1,0.1l-5,0.4c-0.4,0-0.7,0-1,0
			c-3.2,0-5.1-1.6-5.4-4.4l-0.1-0.8c-0.1-1.1,0.1-2,0.4-2.6c-0.1,0.1-0.2,0.1-0.4,0.2c-1,0.6-2.3,1.9-2,4.4l0.1,0.8
			c0.2,2.9,2.2,4.4,5.4,4.4c0.3,0,0.7,0,1,0l5-0.4c0.7-0.1,1.4-0.1,2.1-0.1c3.9,0,7,1,9.4,3.1c2.8,2.4,4.4,5.8,4.8,10.1l0.2,2.5
			c0.4,4.5-0.1,8-1.4,10.6c-0.3,0.7-0.7,1.3-1.2,1.8c1.3-1,2.4-2.3,3.2-3.8c1.3-2.5,1.8-6.1,1.4-10.6L378.5,124z"/>
	</g>
	<g>
		<defs>
			<path id="SVGID_4_" d="M342,145.2l-1-11.8c5.1,0,11-0.3,17.6-0.9c2.6-0.2,4.5-0.7,5.7-1.4c1.2-0.7,1.7-1.8,1.6-3.2l-0.1-0.9
				c-0.1-1.1-0.5-1.9-1.4-2.4c-0.8-0.5-1.8-0.7-2.9-0.6l-4.1,0.4c-6.1,0.5-10.7-0.4-13.9-2.8c-3.2-2.4-5.1-6.6-5.6-12.6l-0.2-2.5
				c-0.5-5.6,0.8-9.9,3.9-13c3.1-3.1,7.8-4.9,14.2-5.5c5.6-0.5,11.6-0.3,17.9,0.7l1,11.8c-5.8,0-11.1,0.3-16,0.7
				c-2.4,0.2-4.3,0.7-5.4,1.4c-1.2,0.7-1.7,1.9-1.5,3.5l0.1,0.8c0.2,2.6,2,3.8,5.3,3.5l5-0.4c5.1-0.5,9.2,0.6,12.3,3.2
				c3,2.6,4.7,6.2,5.2,10.8l0.2,2.5c0.4,4.7-0.1,8.4-1.5,11.1c-1.4,2.7-3.6,4.7-6.5,5.9c-2.9,1.2-6.7,2-11.4,2.4
				C353.9,146.4,347.7,146.2,342,145.2z"/>
		</defs>
		<clipPath id="SVGID_5_">
			<use xlink:href="#SVGID_4_"  style="overflow:visible;"/>
		</clipPath>
		<g class="st4">
			<linearGradient id="SVGID_6_" gradientUnits="userSpaceOnUse" x1="362.733" y1="49.5981" x2="361.9395" y2="105.5395">
				<stop  offset="0.1249" style="stop-color:#F79C00"/>
				<stop  offset="0.2755" style="stop-color:#F77300"/>
				<stop  offset="0.6196" style="stop-color:#F77300"/>
				<stop  offset="0.9296" style="stop-color:#F79C00"/>
			</linearGradient>
			<path class="st5" d="M326.9,79.2l2.1,33.4c21.3,1.7,41,7.5,68.2,9.1V79.2H326.9z"/>
		</g>
	</g>
</g>
</svg>
