<?xml version="1.0" encoding="utf-8"?>
<!-- Generator: Adobe Illustrator 21.1.0, SVG Export Plug-In . SVG Version: 6.00 Build 0)  -->
<svg version="1.1" id="Capa_1" xmlns="http://www.w3.org/2000/svg" xmlns:xlink="http://www.w3.org/1999/xlink" x="0px" y="0px"
	 viewBox="0 0 512 512" style="enable-background:new 0 0 512 512;" xml:space="preserve">
<style type="text/css">
	.st0{fill:#3E016D;stroke:#3E016D;stroke-width:15;stroke-linecap:round;stroke-linejoin:round;stroke-miterlimit:10;}
	.st1{fill:#F77300;stroke:#3E016D;stroke-width:4;stroke-linecap:round;stroke-linejoin:round;stroke-miterlimit:10;}
</style>
<g>
	<g>
		<path class="st0" d="M485.2,206.6c-0.6-16.1-14.3-29.1-30.7-29.1h-8.1c-8.9-47.1-32.3-77.3-60.1-77.3H311
			c-0.7-0.2-1.6-0.3-2.4-0.3h-149c-27.4,0-51.2,30.9-60.1,77.3H87.7c-1.6,0-2.8-1.3-2.8-2.8v-63.2l0,0V43.9
			c-0.1-11-9.1-19.9-20-19.9H44.4c-11,0-19.9,9-19.9,19.9v130.9c0,34.8,28.2,63.2,62.8,63.2h8.6L96,380.3c0,0.3-0.1,0.6-0.1,0.8V474
			c-0.1,4,2,7.6,5.6,9.6s7.9,2,11.2-0.1l32.1-19.7l32,19.7c1.8,1.1,3.9,1.7,5.8,1.7c2,0,4-0.6,5.8-1.7l32.1-19.7l32,19.7
			c3.5,2.2,8.2,2.2,11.6,0l32.1-19.7l32,19.7c3.3,2.1,7.6,2.3,11.2,0.3s5.8-5.7,5.8-9.6V335.1h41.6c17.5,0,33.6-12,45.4-33.9
			c9.1-16.9,15.2-39.2,17.4-63.1h5.6h0.4c8,0,15.9-3.5,21.6-9.6C482.7,222.5,485.7,214.5,485.2,206.6z"/>
	</g>
	<g>
		<path class="st1" d="M479.7,204.3c-0.5-14.4-12.9-26.2-27.6-26.2h-10.7c-8.3-47-30.8-77.3-57.4-77.3h-92.8c-4.4,0-8,3.6-8,8
			c0,4.5,3.5,8,8,8h61.3c-18.1,20.2-29.2,57.6-29.2,98.5v38.4h-0.7c-4.4,0-8,3.6-8,8s3.6,8,8,8h0.9v187.8L298,441.7
			c-2.6-1.7-5.8-1.7-8.4,0l-33.7,20.7l-33.6-20.7c-2.6-1.7-5.8-1.7-8.4,0l-33.7,20.7l-33.6-20.7c-2.6-1.7-5.8-1.7-8.4,0l-25.7,15.8
			v-78.7c0-4.4-3.6-8-8-8c-4.5,0-8,3.5-8,8v92.8c-0.1,2.8,1.5,5.4,4,6.9s5.7,1.5,8.1-0.1l33.6-20.7l33.6,20.7c2.6,1.7,5.8,1.6,8.4,0
			l33.6-20.7l33.6,20.7c1.3,0.8,2.8,1.2,4.1,1.2c1.5,0,2.8-0.4,4.1-1.2l33.6-20.7l33.6,20.7c2.4,1.6,5.4,1.6,8,0.2
			c2.6-1.5,4.2-4.1,4.1-7V329.5h44.7c16.3,0,31.4-11.5,42.6-32.3c9.3-17.3,15.3-40.1,17.3-64.7h8.5c0.1,0,0.2,0,0.3,0
			c7.2,0,14.1-3.1,19.4-8.5C477.4,218.5,480.1,211.3,479.7,204.3z M352.9,313.6h-13.3v-20.4C343.5,301.3,347.9,308.2,352.9,313.6z
			 M402.7,178c-4.9-7.3-11.5-11.4-18.6-11.4c-16,0-28,20.8-28,48.5s12,48.5,28,48.5c12.3,0,22.2-11.9,26.3-31.1H428
			c-3.9,45.6-23.1,81.2-43.9,81.2c-10.7,0-21.7-9.7-30-26.7c-9.4-19-14.5-44.4-14.5-71.4V215c0-27.1,5.1-52.4,14.5-71.4
			c8.4-17,19.4-26.7,30-26.7c17.4,0,34.3,25.2,41.2,61.4h-22.7V178H402.7z M463.8,204.8c0.2,3.1-0.9,6.1-3.1,8.3
			c-2.1,2.2-5,3.4-8,3.4h-80.5v-0.1c0-0.5,0-0.9,0-1.3c0-9.7,1.7-16.8,3.3-21.2h76.8C458.3,193.9,463.6,198.8,463.8,204.8z
			 M384.2,247.6c-2.5,0-7.2-4.8-9.9-15.2h19.8C391.3,242.8,386.6,247.6,384.2,247.6z"/>
		<path class="st1" d="M96.7,352c0,4.4,3.6,8,8,8s8-3.6,8-8v-82.6h0.9c4.4,0,8-3.6,8-8c0-4.5-3.5-8-8-8h-0.9V215
			c0-27.2,5.2-52.7,14.6-71.7c8.4-17,19.4-26.7,30-26.7h107.6c4.4,0,8-3.6,8-8c0-4.5-3.5-8-8-8H157.2c-26.4-0.1-49.3,30.9-57.4,77.2
			H85.3c-3.2,0-5.9-2.7-5.9-6v-63.2c0-4.4-3.6-8-8-8c-4.5,0-8,3.5-8,8V172c0,12,9.7,21.9,21.8,21.9h12.4c-0.6,7.3-1,14.4-1,21.2v1.5
			H84.8c-24.2,0-43.8-19.8-43.8-44.2v-131c0-0.6,0.4-0.9,0.9-0.9h20.6c0.6,0,0.9,0.4,0.9,0.9V82c0,4.4,3.6,8,8,8c4.5,0,8-3.5,8-8
			V41.5c-0.2-9.3-7.7-16.8-17-16.8H41.9c-9.3,0-16.8,7.5-16.8,16.8v130.9c0,33.2,26.8,60.1,59.7,60.1h11.8L96.7,352z"/>
		<path class="st1" d="M269.2,261.4c0.1,4.5,3.6,8,8,8h18.3c4.4,0,8-3.6,8-8c0-4.5-3.5-8-8-8h-18.3
			C272.7,253.3,269.2,256.9,269.2,261.4z"/>
		<path class="st1" d="M140.7,253.4c-4.4,0-8,3.6-8,8s3.6,8,8,8H159c4.4,0,8-3.6,8-8c0-4.5-3.5-8-8-8H140.7L140.7,253.4z"/>
		<path class="st1" d="M186.2,253.4c-4.4,0-8,3.6-8,8s3.6,8,8,8h18.2c4.4,0,8-3.6,8-8c0-4.5-3.5-8-8-8H186.2L186.2,253.4z"/>
		<path class="st1" d="M231.7,253.4c-4.4,0-8,3.6-8,8s3.6,8,8,8H250c4.4,0,8-3.6,8-8c0-4.5-3.5-8-8-8H231.7L231.7,253.4z"/>
	</g>
</g>
</svg>
