<?xml version="1.0" encoding="utf-8"?>
<!-- Generator: Adobe Illustrator 21.1.0, SVG Export Plug-In . SVG Version: 6.00 Build 0)  -->
<svg version="1.1" id="Capa_1" xmlns="http://www.w3.org/2000/svg" xmlns:xlink="http://www.w3.org/1999/xlink" x="0px" y="0px"
	 viewBox="0 0 512 512" style="enable-background:new 0 0 512 512;" xml:space="preserve">
<style type="text/css">
	.st0{fill:#3E016D;stroke:#3E016D;stroke-width:9;stroke-linecap:round;stroke-linejoin:round;stroke-miterlimit:10;}
	.st1{fill:#F77300;stroke:#3E016D;stroke-width:4;stroke-linecap:round;stroke-linejoin:round;stroke-miterlimit:10;}
	.st2{fill:#F77300;stroke:#3E016D;stroke-width:3.9292;stroke-linecap:round;stroke-linejoin:round;stroke-miterlimit:10;}
</style>
<g>
	<g>
		<path class="st0" d="M445.7,417.7c-0.1-8.3-2.3-16.4-6.7-24.2c-7.2-12.9-18-21.6-32.2-25.8c-10.8-3.2-21.7-6.5-32.3-9.5
			c-5.3-1.6-10.6-3.1-15.9-4.6c-5.5-1.6-11-3.2-16.5-4.9c-4.8-1.4-9.6-2.8-14.4-4.2c-5.3-1.6-11.8-5.1-12.1-13.4
			c-0.4-8.2-0.3-16.5-0.2-24.6c0-3.4,0.1-6.9,0.1-10.2c12.6-9.3,22.4-19.7,29.9-31.8c7.7-12.4,12.6-25.7,14.9-40.8
			c0.1,0,0.2,0,0.2,0c13.9,0,22.9-4.6,28.3-14.6c5.5-10,4.2-20.2-4-31c1.3-3.2,2.6-6.4,3.7-9.6c3-8,6-15.4,9.3-22.9
			c2.6-5.9,1.8-10-2.7-14c-2.5-2.2-4.7-4.5-6.9-6.9c-1-1-1.9-2-2.8-2.9l2.2-6.4c1.8-5.3,3.5-10.5,5.2-15.7c0.5-1.6,1.1-3.2,1.6-4.8
			c1.5-4.5,3-9.2,4.5-13.9c1.6-5.2-0.3-8.8-5.5-10.6c-1.2-0.4-2.4-0.7-3.5-1c-0.4-0.1-0.9-0.2-1.3-0.3c-4.9-1.2-9.8-2.5-14.8-3.7
			l-4.7-1.2V59c0-1.9,0-3.7,0-5.6c0-4.2,0-8.6-0.1-13c-0.2-5.8-2.9-8.5-8.7-8.8c-1,0-2.1,0-3,0c-0.5,0-0.9,0-1.4,0h-37.9
			c-1.8-1.9-3.5-3.6-5.3-5.5c-4.2-4.3-8.6-8.8-12.9-13.4c-3.4-3.6-7-4.7-12.1-3.5c-8,1.9-16.2,3.4-24.2,4.9
			c-2.5,0.5-4.9,0.9-7.5,1.4c-1.6,0.3-2.9,0.4-4.2,0.2l-1.9-0.3c-12.6-2.1-25.6-4.2-38.5-6.5c-4.2-0.8-7.4,0.2-10.1,3.1
			c-1.7,1.8-3.4,3.4-5.1,5.1c-1.7,1.6-3.3,3.2-4.9,4.9c-1.6,1.7-3.4,2.6-6,2.8c-13.9,1.9-28.2,3.9-41.8,5.9l-3.6,0.5
			c-3.7,0.6-6.3,1.9-7.5,3.9c-1.2,2.1-1.1,4.9,0.3,8.3c1.7,4.1,3.3,8.3,4.9,12.3c1.4,3.5,2.8,7,4.2,10.5c0.4,1.1,0.8,2.2,1.3,3.4
			c0.2,0.5,0.4,1.1,0.6,1.7c-0.6,0.2-1.2,0.3-1.8,0.5c-1.3,0.3-2.5,0.6-3.6,0.9c-3.2,0.7-6.4,1.3-9.6,1.9c-4.2,0.8-8.6,1.7-13,2.6
			c-4.9,1-7.7,4-7.4,8c0.1,1.5,0.7,2.9,1.3,4.3l0.2,0.4c3.2,8.3,6.6,16.6,9.9,25l2.6,6.5c-1,1-2,2.1-2.9,3c-2.3,2.4-4.4,4.5-6.7,6.6
			c-4.3,3.8-5.1,7.9-2.7,13.5c3.4,7.8,6.5,15.8,9.5,23.6c1.3,3.1,2.5,6.4,3.7,9.5c0,0.2-0.1,0.3-0.1,0.4s-0.1,0.3-0.1,0.3
			c-0.3,0.5-0.6,0.9-1,1.3c-6.8,8.5-8,17.9-3.7,27.5c4.3,9.7,12.2,15,23.5,15.8c1.3,0.1,2.7,0.2,4,0.3l1.9,0.1
			c4.8,29.9,19.8,54.2,44.9,72.6v8.6c0,7.3,0,14.3,0,21.5c0,10.5-3.3,15.1-13.3,18.2c-4,1.3-8.3,2.5-12.3,3.5
			c-2.8,0.8-5.5,1.6-8.2,2.4c-16.1,4.7-32.8,9.6-49.3,14.5l-1.2,0.3c-8.4,2.5-17.1,5.1-24.4,10.7c-14.3,11.1-21.7,25.7-21.9,43.6
			c-0.2,17.1-0.1,34.5-0.1,51.3c0,6.3,0,12.5,0,18.8c0,1.5,0,2.9,0.4,4.4c0,0.1,0.1,0.1,0.1,0.2c0.9,3.4,3.9,6,7.6,6h367.4
			c2.8,0,5.2-1.5,6.6-3.6c0.5-0.7,1-1.5,1.3-2.4c0.4-1.3,0.5-2.8,0.5-3.8v-14.9C445.8,456.6,445.8,436.9,445.7,417.7z"/>
	</g>
	<g>
		<path class="st1" d="M445.5,417.5c-0.1-8.3-2.3-16.4-6.7-24.2c-7.2-12.9-18-21.6-32.2-25.8c-10.8-3.2-21.7-6.5-32.3-9.5
			c-5.3-1.6-10.6-3.1-15.9-4.6c-5.5-1.6-11-3.2-16.5-4.9c-4.8-1.4-9.6-2.8-14.4-4.2c-5.3-1.6-11.8-5.1-12.1-13.4
			c-0.4-8.2-0.3-16.5-0.2-24.6c0-3.4,0.1-6.9,0.1-10.2c12.6-9.3,22.4-19.7,29.9-31.8c7.7-12.4,12.6-25.7,14.9-40.8
			c0.1,0,0.2,0,0.2,0c13.9,0,22.9-4.6,28.3-14.6c5.5-10,4.2-20.2-4-31c1.3-3.2,2.6-6.4,3.7-9.6c3-8,6-15.4,9.3-22.9
			c2.6-5.9,1.8-10-2.7-14c-2.5-2.2-4.7-4.5-6.9-6.9c-1-1-1.9-2-2.8-2.9l2.2-6.4c1.8-5.3,3.5-10.5,5.2-15.7c0.5-1.6,1.1-3.2,1.6-4.8
			c1.5-4.5,3-9.2,4.5-13.9c1.6-5.2-0.3-8.8-5.5-10.6c-1.2-0.4-2.4-0.7-3.5-1c-0.4-0.1-0.9-0.2-1.3-0.3c-4.9-1.2-9.8-2.5-14.8-3.7
			l-4.7-1.2v-4.9c0-1.9,0-3.7,0-5.6c0-4.2,0-8.6-0.1-13c-0.2-5.8-2.9-8.5-8.7-8.8c-1,0-2.1,0-3,0c-0.5,0-0.9,0-1.4,0h-38
			c-1.8-1.9-3.5-3.6-5.3-5.5c-4.2-4.3-8.6-8.8-12.9-13.4c-3.4-3.6-7-4.7-12.1-3.5c-8,1.9-16.2,3.4-24.2,4.9
			c-2.5,0.5-4.9,0.9-7.5,1.4c-1.6,0.3-2.9,0.4-4.2,0.2l-1.6-0.2c-12.7-2.1-25.7-4.2-38.6-6.6c-4.2-0.8-7.4,0.2-10.1,3.1
			c-1.7,1.8-3.4,3.4-5.1,5.1c-1.7,1.6-3.3,3.2-4.9,4.9c-1.6,1.7-3.4,2.6-6,2.8c-13.9,1.9-28.2,3.9-41.8,5.9l-3.6,0.5
			c-3.7,0.6-6.3,1.9-7.5,3.9c-1.2,2.1-1.1,4.9,0.3,8.3c1.7,4.1,3.3,8.3,4.9,12.3c1.4,3.5,2.8,7,4.2,10.5c0.4,1.1,0.8,2.2,1.3,3.4
			c0.2,0.5,0.4,1.1,0.6,1.7c-0.6,0.2-1.2,0.3-1.8,0.5c-1.3,0.3-2.5,0.6-3.6,0.9c-3.2,0.7-6.4,1.3-9.6,1.9c-4.2,0.8-8.6,1.7-13,2.6
			c-4.9,1-7.7,4-7.4,8c0.1,1.5,0.7,2.9,1.3,4.3l0.2,0.4c3.2,8.3,6.6,16.6,9.9,25l2.6,6.5c-1,1-2,2.1-2.9,3c-2.3,2.4-4.4,4.5-6.7,6.6
			c-4.3,3.8-5.1,7.9-2.7,13.5c3.4,7.8,6.5,15.8,9.5,23.6c1.3,3.1,2.5,6.4,3.7,9.5c0,0.2-0.1,0.3-0.1,0.4c0,0.1-0.1,0.3-0.1,0.3
			c-0.3,0.5-0.6,0.9-1,1.3c-6.8,8.5-8,17.9-3.7,27.5c4.3,9.7,12.2,15,23.5,15.8c1.3,0.1,2.7,0.2,4,0.3l1.9,0.1
			c4.8,29.9,19.8,54.2,44.9,72.6v8.6c0,7.3,0,14.3,0,21.5c0,10.5-3.3,15.1-13.3,18.2c-4,1.3-8.3,2.5-12.3,3.5
			c-2.8,0.8-5.5,1.6-8.2,2.4c-16.1,4.7-32.8,9.6-49.3,14.5l-1.2,0.3c-8.4,2.5-17.1,5.1-24.4,10.7c-14.3,11.1-21.7,25.7-21.9,43.6
			c-0.2,17.1-0.1,34.5-0.1,51.3c0,6.3,0,12.5,0,18.8c0,1.5,0,2.9,0.4,4.4c0,0.1,0.1,0.1,0.1,0.2c0.9,3.4,3.9,6,7.6,6h367.4
			c2.8,0,5.2-1.5,6.6-3.6c0.5-0.7,1-1.5,1.3-2.4c0.4-1.3,0.5-2.8,0.5-3.8V475C445.6,456.4,445.6,436.8,445.5,417.5z M189.1,376.1
			c2.4-3.7,0.9-8.5-3.2-11.2c-1.6-1-3.1-2-4.9-3c-0.7-0.4-1.5-0.9-2.3-1.4c0.9-0.3,1.8-0.6,2.6-0.9c2.1-0.7,3.8-1.3,5.6-2
			c12.3-4.5,19.2-13.4,20.4-26.3c0.4-3.6,0.3-7.4,0.3-10.9c0-1.8,0-3.6,0-5.5c0-2.2,0.1-4.2,0.2-6.7c0-1.1,0.1-2.2,0.1-3.3
			c14.9,7,29.9,10.3,45.8,10.4c0.1,0,0.1,0,0.2,0c16.2,0,31.3-3.3,46-10.2c0,0.5,0.1,1,0.1,1.4c0.1,1.1,0.2,2,0.2,2.8
			c0,2.5,0,4.9,0,7.4c0,4.6-0.1,9.3,0.2,14c0.6,12.9,8.8,23.4,21.3,27.4c1.6,0.5,3.2,1,5.1,1.6l2.4,0.7l-3.3,2.1
			c-2.6,1.6-4.8,2.9-7.1,4.3c-5.5,3.3-11,6.8-16.5,10.1c-13,8-26.3,16.1-39.5,24.2c-5.9,3.5-11.9,3.5-17.8,0
			c-3.8-2.3-7.7-4.6-11.3-7c-2.3-1.4-4.5-2.8-6.9-4.2c-1.3-0.8-2.7-1.6-3.9-2.5c-3.6-2.3-7.4-4.5-11.1-6.7
			c-3.7-2.2-7.7-1.3-10.1,2.2c-2.4,3.3-1.8,7.3,1.5,10.2c0.7,0.7,1.6,1.3,2.8,2c10,6.1,20.7,12.6,31.3,19c11.1,6.7,22.4,6.7,33.4,0
			c10.2-6.2,20.6-12.6,30.7-18.8c5.9-3.6,11.9-7.3,17.8-10.9c6.9-4.2,13.9-8.4,20.7-12.6l9-5.5c1.5,0.5,2.9,0.9,4.4,1.4
			c3.1,1,6.2,1.9,9.2,2.8c4.6,1.4,9.2,2.7,13.9,4c8.8,2.6,18.1,5.3,27.1,8c7.9,2.4,14.2,7,19.4,13.9c-0.4,0.4-0.8,0.8-1.2,1.2
			c-1,0.9-1.9,1.8-2.8,2.6c-5.6,4.9-11.3,9.8-16.9,14.8c-7.2,6.2-14.2,12.5-21.4,18.8c-9.6,8.4-15.5,18.2-17.9,29.6
			c-1.5,7.1-1.4,14.3-1.3,21.4H146c0-3.9,0-7.8-0.1-10.9c-0.2-15.4-6.3-28.7-18.1-39.3c-6.1-5.5-12.4-10.9-18.5-16.2
			c-3.2-2.8-6.4-5.5-9.5-8.3c-3.5-3.1-7.1-6.3-10.6-9.4c-1.6-1.4-3-2.8-4.6-4.1c5.1-6.8,11.4-11.4,19.3-13.9c2.9-1,6.1-1.9,9-2.7
			c1.4-0.4,2.8-0.8,4-1.2l41.7-12.3c1.9,1.2,3.8,2.4,5.7,3.4c4.4,2.8,8.9,5.5,13.6,8.2C182.2,380.4,186.8,379.6,189.1,376.1z
			 M376.6,475.7c-0.2-12.3,4.4-22.6,13.7-30.7c11-9.6,24.1-21.1,37.4-32.8c0.3-0.3,0.8-0.5,1.4-0.8c0.2-0.1,0.5-0.2,0.8-0.4
			c0.1,1.3,0.2,2.6,0.3,3.7c0.2,2.8,0.4,5.3,0.4,7.9c0.1,15.4,0.1,31.1,0.1,46.4c0,5.1,0,10.2,0,15.3h-54
			C376.6,481.5,376.7,478.7,376.6,475.7z M130.9,476c0,2.7,0,5.5,0,8.3h-54c0-5,0-9.9,0-14.9c0-15.6,0-31.8,0.1-47.7
			c0-2.5,0.2-4.8,0.5-7.5c0.1-1.1,0.2-2.3,0.3-3.4c0.3,0.2,0.6,0.4,0.8,0.5c0.7,0.4,1.1,0.7,1.5,1c4.5,4,9.1,8,13.7,12
			c7.5,6.6,15.3,13.5,23,20C126.4,452.9,131.1,463.2,130.9,476z M127.1,138c2.1-2.2,4.1-4.3,6.4-6.3c4.8-4.2,5.8-8.6,3.2-14.4
			c-2.7-6-5-12.1-7.5-18.5c-1-2.7-2.1-5.3-3.1-8l4.6-1c3.2-0.7,6.4-1.4,9.6-2.1c1.5-0.3,2.9-0.6,4.4-0.9c3.1-0.6,6.3-1.3,9.4-2.1
			c3.3-0.8,5.4-2.1,6.4-4c1.1-2,0.9-4.5-0.3-7.8c-2.2-5.6-4.4-11.4-6.6-16.9c-1.2-2.8-2.3-5.7-3.3-8.5c-0.2-0.4-0.3-0.9-0.5-1.5
			c-0.1-0.3-0.2-0.6-0.3-1c0.5-0.1,1.1-0.2,1.6-0.3c1.3-0.3,2.6-0.5,3.8-0.7l6.7-1c9.8-1.5,20-2.9,30.1-4.2c3-0.4,5.5-1.7,7.8-4
			c2.5-2.6,5-5.1,7.5-7.8l3.1-3.1l7.7,1.3c5.5,0.9,10.9,1.8,16.2,2.8c1.5,0.2,2.9,0.5,4.3,0.7c4.2,0.7,8.6,1.5,13,2.1
			c1.9,0.2,4,0.1,6.6-0.4c6.7-1.3,13.5-2.7,20-3.9c3.1-0.6,6.3-1.3,9.4-1.9c0.4-0.1,0.9-0.1,1.5-0.2c0.3,0,0.6,0,1-0.1
			c1.3,1.3,2.6,2.5,3.7,3.7c2.9,2.9,6,6,9,9c1.5,1.5,2.8,2.8,3.7,3.7c5.6,5.6,5.7,5.7,12.7,5.6c1.6,0,3.5-0.1,6,0
			c5.3,0.1,10.6,0.1,15.8,0c2.4,0,4.8,0,7.2,0h5.8v3.2c0,2.2,0,4.1,0,6.1c0,1.4,0,2.8,0,4c0,2.8,0,5.7,0,8.5
			c0.1,5.6,1.5,7.4,6.8,8.8c4.1,1.2,8.3,2.3,12.3,3.2c2.1,0.5,4.1,1.1,6.2,1.7c0.6,0.1,1.1,0.3,1.8,0.5c0.3,0.1,0.6,0.2,1,0.3
			c-0.4,1.4-0.9,2.8-1.3,4.1c-1,3.1-1.9,6.2-2.8,9.2c-0.5,1.5-1,2.9-1.5,4.4c-1.9,5.9-3.8,12-6.1,17.9c-1.8,4.9-1,8.7,2.8,12.2
			c2.4,2.3,4.6,4.5,7,6.9c1,1,2,2.1,3,3l-11.6,29h-33.7c-3.1-11-8.5-19-16.7-24.4l10.3-11.4l2.3,3.9c2.6,4.4,5,8.5,7.4,12.7
			c0.5,0.9,1,1.8,1.5,2.6c0.8,1.4,1.5,2.8,2.4,4c2.7,4.2,6.8,5.6,10.6,3.6c1.7-0.9,3-2.7,3.6-4.6c0.4-1.5,0.6-3.7-0.9-6.2
			c-3-5-6-10.1-8.7-15.1c-1.3-2.3-2.6-4.4-3.7-6.7c-0.6-1.1-1.2-2.2-1.8-3.1c-1.4-2.5-2.8-4.9-4.2-7.3c-1.8-2.7-3.9-4.1-6.3-4.3
			c-2.4-0.2-4.8,1-7,3.3c-3.8,4.1-7.5,8.3-11.4,12.7c-1.6,1.8-3.2,3.6-4.8,5.5c-0.4-0.3-0.9-0.6-1.3-0.9c-1-0.7-2-1.4-2.8-2.2
			c-8.2-6.3-16.4-12.7-24.6-19l-13.8-10.6c-0.7-0.5-1.3-1-2-1.5c-2.7-1.9-5.2-2.5-7.5-1.9c-2.2,0.7-3.9,2.7-5.2,5.6
			c-1.1,2.8-2.1,5.7-2.9,8.5c-0.5,1.5-1,2.9-1.5,4.4c-0.3,0.8-0.6,1.6-1,2.5c-0.2,0.5-0.4,0.9-0.6,1.5c-3.4-0.9-6.9-1.7-10.3-2.6
			c-7.7-1.9-15.2-3.7-22.7-5.6l-6.2-1.6c-9.9-2.5-20.2-4.9-30.5-7.3c-6.4-1.5-8.9,0.1-11.3,6.8c-5.3,14.9-10.7,30.1-15.9,44.7
			l-3.7,10.4c-0.2,0.7-0.5,1.3-0.9,2c-0.1,0.3-0.3,0.6-0.4,0.9l-8.4,1.1l-11.9-29.7C125.3,139.8,126.2,138.9,127.1,138z M322.9,177
			c0,6.4-2.4,12.2-6.7,16.5c-4.3,4.3-10.2,6.7-16.6,6.7c-6.1,0-11.9-2.4-16.1-6.7c-4.3-4.3-6.7-10.2-6.7-16.5
			c0.1-12.7,10.3-23.1,23-23.1c0,0,0,0,0.1,0c6,0,11.8,2.5,16.2,6.8C320.4,165.2,322.9,171,322.9,177z M291.1,139.8
			c-15.7,4.8-25.1,14.4-28.9,29.5h-16.9c-5.9-19.7-19-30.2-37.8-30.2s-31.8,10.4-37.6,30.2h-8.8l17.3-48.7c0.7,0.1,1.3,0.2,1.9,0.4
			c1.4,0.3,2.7,0.5,3.9,0.8c14.5,3.5,29.1,7.2,43.7,10.7l17.9,4.4c1.1,0.3,2.2,0.5,3.2,0.7c5.4,1.1,8.2-0.4,10.1-5.5
			c0.6-1.5,1.1-2.9,1.6-4.3c0.3-0.8,0.6-1.6,0.8-2.4c0.5-1.5,1.1-2.9,1.7-4.7l0.7-1.9L291.1,139.8z M230.7,177.3
			c0,12.9-10.1,23-23,23l0,0c-12.7,0-23.1-10.2-23.2-22.9c-0.1-6.1,2.5-12.1,7-16.5c4.4-4.3,10.2-6.9,16.1-6.9c0.1,0,0.2,0,0.3,0
			C220.5,154.1,230.7,164.6,230.7,177.3z M131.2,193.8c1-3.8,3.9-6.9,7.8-8.3c0.8-0.3,1.7-0.4,2.7-0.5c1.8-0.2,3.6-0.3,5.4-0.4
			c5.6,0,11.2,0,16.9,0h6c6.2,20.2,18.9,30.5,37.8,30.5c0.1,0,0.3,0,0.4,0c18.8-0.1,31.3-10.3,37.3-30.2h16.6
			c6.4,20.5,19.5,30.6,39,30.2c18.4-0.5,30.6-10.7,36.5-30.3c2.8,0,5.7,0,8.4-0.1c6.7-0.1,13.6-0.2,20.2,0.2
			c5.8,0.3,10.5,5.4,10.4,11.5c-0.1,5.6-4.9,10.5-10.9,11.2c-1,0.1-1.9,0.1-2.9,0.1c-0.4,0-0.9,0-1.4,0c-0.1-0.3-0.2-0.6-0.4-0.9
			c-0.3-0.7-0.6-1.4-1-2.1c-2.1-3.5-5-4.9-8.5-4.1c-3.3,0.8-5.2,3.1-5.6,7c-0.2,1.9-0.4,3.8-0.5,5.7c-0.3,3.5-0.6,7.2-1.3,10.6
			c-6.7,34.2-26.3,57.8-58.2,70c-20.4,7.9-42.1,8.3-62.6,1.1c-19.8-7-36.9-20.7-48.2-38.8c-8.3-13.5-13.1-28.7-13.9-45.4
			c0-0.3,0-0.7,0-1c0-0.9-0.1-1.9-0.2-2.8c-0.5-3.6-2.7-6-6-6.7c-0.5-0.1-0.9-0.1-1.4-0.1c-2.6,0-4.8,1.4-6.4,3.8
			c-0.5,0.8-0.8,1.6-1.2,2.4c-0.1,0.4-0.3,0.7-0.5,1.1c-5.2,0.8-9.1-0.4-12.1-3.6C131.2,201.3,130.2,197.5,131.2,193.8z"/>
		<path class="st2" d="M228.2,255.7c7.9,6.1,16.2,9.1,25,9.1c1.8,0,3.5-0.1,5.3-0.4c13.7-1.9,24.7-9.2,33.7-22.4
			c2.9-4.2,3.2-9,1.1-13.9c-2.8-6.1-7.7-9.1-14.5-9.1h-0.1c-5.7,0-11.5,0-17.1,0c-2.5,0-5,0-7.5,0c-0.1,0-0.2,0-0.2,0.1h-8
			c-6.2,0-12.4,0-18.6,0c-5.1,0-10.2,3.4-12.8,8.5s-2,10.7,1.6,15.4C220.2,248.4,224.1,252.5,228.2,255.7z M228.4,234.6h50.6
			c-7.4,9.8-14.7,14.4-23.9,14.9C242.9,250.2,235,242.8,228.4,234.6z"/>
		<path class="st2" d="M208.2,162.7c-3.5-0.3-6.7,2.1-7.7,5.5c-0.3,1.3-0.5,2.6-0.5,3.7c0,0.5-0.1,1-0.1,1.4c0,0,0,0,0,0.1
			c0.1,0.7,0.1,1.4,0.1,2c0.1,1.4,0.1,2.6,0.4,3.8c0.8,3.7,3.7,6.2,7.4,6.2c0.1,0,0.2,0,0.3,0c3.6-0.1,6.5-2.8,6.9-6.3
			c0.4-3.4,0.4-6.9-0.1-10.3C214.4,165.4,211.8,162.9,208.2,162.7z"/>
		<path class="st2" d="M307.1,168.8c-0.8-3.6-3.8-6.1-7.4-6.1c-0.1,0-0.3,0-0.4,0c-3.6,0.2-6.4,2.8-6.8,6.4c-0.4,3.2-0.4,6.6,0,9.8
			c0.4,3.6,3.1,6.2,6.8,6.4c0.1,0,0.3,0,0.4,0c3.5,0,6.5-2.5,7.3-6.1c0.2-1.1,0.3-2.3,0.4-3.4c0-0.5,0.1-1.1,0.1-1.6c0,0,0,0,0-0.1
			c0-0.5-0.1-1.1-0.1-1.6C307.4,171.4,307.4,170.1,307.1,168.8z"/>
	</g>
</g>
</svg>
