<?xml version="1.0" encoding="utf-8"?>
<!-- Generator: Adobe Illustrator 21.1.0, SVG Export Plug-In . SVG Version: 6.00 Build 0)  -->
<svg version="1.1" id="Layer_1" xmlns="http://www.w3.org/2000/svg" xmlns:xlink="http://www.w3.org/1999/xlink" x="0px" y="0px"
	 viewBox="0 0 97.2 64.4" style="enable-background:new 0 0 97.2 64.4;" xml:space="preserve">
<style type="text/css">
	.st0{fill:#3E016D;stroke:#3E016D;stroke-width:9;stroke-linecap:round;stroke-linejoin:round;stroke-miterlimit:10;}
	.st1{fill:#F77300;}
	.st2{fill:#F7A700;}
</style>
<g>
	<path class="st0" d="M8.3,8.3h13.2l9.3,35l9.3-35h13.1L38.7,57.2H22.8L8.3,8.3z M55.5,55.7V45.5c4.4,0.4,9.4,0.6,15.1,0.6
		c2.2,0,3.9-0.3,4.9-0.8c1.1-0.5,1.6-1.4,1.6-2.6V42c0-0.9-0.3-1.6-1-2.1c-0.7-0.5-1.5-0.8-2.4-0.8h-3.5c-5.2,0-9.1-1.2-11.7-3.5
		s-3.9-6-3.9-11.2v-2.2c0-4.8,1.4-8.4,4.3-10.8c2.9-2.4,7-3.6,12.6-3.6c4.8,0,9.9,0.6,15.3,1.9v10.1c-4.9-0.4-9.5-0.6-13.7-0.6
		c-2.1,0-3.7,0.3-4.7,0.8c-1.1,0.5-1.6,1.5-1.6,2.9v0.7c0,2.2,1.4,3.4,4.3,3.4h4.3c4.4,0,7.8,1.2,10.2,3.7c2.4,2.5,3.6,5.7,3.6,9.6
		v2.2c0,4-0.7,7.2-2.1,9.4c-1.4,2.2-3.4,3.7-6,4.5c-2.6,0.8-5.9,1.2-9.9,1.2C65.6,57.6,60.3,56.9,55.5,55.7z"/>
	<path class="st1" d="M6.3,6.3h13.2l9.3,35l9.3-35h13.1L36.7,55.2H20.8L6.3,6.3z M53.5,53.7V43.5c4.4,0.4,9.4,0.6,15.1,0.6
		c2.2,0,3.9-0.3,4.9-0.8c1.1-0.5,1.6-1.4,1.6-2.6V40c0-0.9-0.3-1.6-1-2.1c-0.7-0.5-1.5-0.8-2.4-0.8h-3.5c-5.2,0-9.1-1.2-11.7-3.5
		s-3.9-6-3.9-11.2v-2.2c0-4.8,1.4-8.4,4.3-10.8c2.9-2.4,7-3.6,12.6-3.6c4.8,0,9.9,0.6,15.3,1.9v10.1c-4.9-0.4-9.5-0.6-13.7-0.6
		c-2.1,0-3.7,0.3-4.7,0.8c-1.1,0.5-1.6,1.5-1.6,2.9v0.7c0,2.2,1.4,3.4,4.3,3.4h4.3c4.4,0,7.8,1.2,10.2,3.7c2.4,2.5,3.6,5.7,3.6,9.6
		v2.2c0,4-0.7,7.2-2.1,9.4c-1.4,2.2-3.4,3.7-6,4.5c-2.6,0.8-5.9,1.2-9.9,1.2C63.6,55.6,58.3,54.9,53.5,53.7z"/>
	<g>
		<path class="st2" d="M67.5,8.9c4.5,0,9.3,0.6,14.3,1.7v6.1c0.7,0,1.3,0.1,2,0.1V8.6c-5-1.1-9.8-1.7-14.3-1.7
			c-5.3,0-9.3,1.1-11.9,3.4c-0.6,0.5-1.1,1.1-1.6,1.7C58.6,9.9,62.5,8.9,67.5,8.9z"/>
		<path class="st2" d="M54.5,44.6v2.1c3.7,0.2,7.7,0.4,12.1,0.4c2.4,0,4.2-0.3,5.4-0.9c0.9-0.4,1.5-1.1,1.9-1.9
			c-1.2,0.5-2.9,0.8-5.2,0.8C63.3,45.1,58.6,44.9,54.5,44.6z"/>
		<polygon class="st2" points="38.4,9.3 47.9,9.3 34.6,54.2 36,54.2 49.9,7.3 38.9,7.3 		"/>
		<polygon class="st2" points="16.8,9.3 26.8,47.2 28.1,42.4 18.8,7.3 7.7,7.3 8.3,9.3 		"/>
		<path class="st2" d="M82.9,29.3c-2.2-2.2-5.4-3.4-9.5-3.4H69c-4.6,0-5.3-2.7-5.3-4.4v-0.7c0-0.7,0.1-1.3,0.3-1.8
			c-0.1,0-0.1,0-0.2,0.1c-1,0.5-2.1,1.5-2.1,3.8v0.7c0,1.6,0.7,4.4,5.3,4.4h4.3c4.1,0,7.3,1.1,9.5,3.4c2.2,2.3,3.3,5.2,3.3,8.9v2.2
			c0,3.8-0.7,6.8-2,8.8c-0.1,0.2-0.3,0.4-0.4,0.6c1-0.7,1.8-1.6,2.4-2.6c1.3-2,2-5,2-8.8v-2.2C86.2,34.5,85.1,31.6,82.9,29.3z"/>
	</g>
</g>
</svg>
